<?xml version="1.0" encoding="UTF-8"?>
<svg xmlns="http://www.w3.org/2000/svg" xmlns:xlink="http://www.w3.org/1999/xlink" viewBox="0 0 200 200">
  <defs>
    <style>
      .cls-1 {
        mix-blend-mode: multiply;
        opacity: .05;
      }

      .cls-2 {
        fill: url(#linear-gradient-3);
      }

      .cls-3 {
        fill: url(#linear-gradient-2);
      }

      .cls-4 {
        fill: url(#linear-gradient);
      }

      .cls-5 {
        isolation: isolate;
      }

      .cls-6 {
        fill: #fff;
        mix-blend-mode: screen;
        opacity: .3;
      }
    </style>
    <linearGradient id="linear-gradient" x1="344.64" y1="149.62" x2="449.64" y2="302.43" gradientTransform="translate(-342.17 -30.72) rotate(-13.47)" gradientUnits="userSpaceOnUse">
      <stop offset="0" stop-color="#ffb1da"/>
      <stop offset=".04" stop-color="#ffaed8"/>
      <stop offset=".27" stop-color="#ff9fd1"/>
      <stop offset=".56" stop-color="#ff96cd"/>
      <stop offset="1" stop-color="#ff94cc"/>
    </linearGradient>
    <linearGradient id="linear-gradient-2" x1="324.66" y1="104.36" x2="324.66" y2="238.8" gradientTransform="translate(-262.46 -42.44) rotate(-8.86)" gradientUnits="userSpaceOnUse">
      <stop offset="0" stop-color="#fffaef"/>
      <stop offset=".78" stop-color="#fff8eb"/>
      <stop offset="1" stop-color="#fff8e9"/>
    </linearGradient>
    <linearGradient id="linear-gradient-3" x1="376.11" y1="216.29" x2="258.13" y2="216.29" xlink:href="#linear-gradient-2"/>
  </defs>
  <g class="cls-5">
    <g id="_레이어_2" data-name="레이어 2">
      <g id="_레이어_1-2" data-name="레이어 1">
        <g>
          <g>
            <path class="cls-4" d="M190.59,74.09c5.28,22.06,2.54,44.16-6.36,63.23-11.15,23.94-31.99,43.1-58.77,51.43-2.06.65-4.16,1.22-6.29,1.73-24.93,5.97-49.91,1.69-70.52-10.14-15.65-8.97-28.77-22.29-37.43-38.76-3.66-6.97-6.53-14.5-8.44-22.51C-2.23,98.15-.02,77.19,7.81,58.82c7.09-16.66,18.81-31.21,33.94-41.68,9.55-6.6,20.46-11.59,32.44-14.46,19.25-4.61,38.53-3.11,55.81,3.26,25.38,9.35,46.42,29.19,56.67,55.56,1.57,4.04,2.88,8.24,3.92,12.58Z"/>
            <g>
              <g>
                <path class="cls-1" d="M105.56,111.71c-.08,2.98,2.23,6.39,4.91,8.18,4.81,3.62,14.16,3.67,20.3,1.11,8.25-2.99,14.89-9.54,19.11-17.15,11.64-21.39.88-47.72-16.93-62.5-28.38-23.7-75.9-22.98-101.79,4.46-9.54,9.78-16.22,22.32-19.57,35.57-.23.96-.65,2.9-.87,3.87-.48,2.11-2.57,3.44-4.69,2.96-2.05-.46-3.35-2.46-3-4.5l.48-2.72c2.51-13.65,8.18-26.67,16.68-37.7C48,5.9,106.49,1.27,142.75,28.96c20.63,15.5,34.14,42.12,29.73,68.12-2.18,12.45-8.43,24.11-17.52,32.89-14.55,14.19-38.6,20.13-56.73,9.11-9.27-5.72-15.9-15.49-16.43-26.86-.39-6.56,4.61-12.19,11.16-12.58,6.88-.44,12.74,5.19,12.6,12.07h0Z"/>
                <path class="cls-3" d="M102.59,107.8c-.08,2.98,2.23,6.39,4.91,8.18,4.81,3.62,14.16,3.67,20.3,1.11,8.25-2.99,14.89-9.54,19.11-17.15,11.64-21.39.88-47.72-16.93-62.5-28.38-23.7-75.9-22.98-101.79,4.46-9.54,9.78-16.22,22.32-19.57,35.57-.23.96-.65,2.9-.87,3.87-.48,2.11-2.57,3.44-4.69,2.96-2.05-.46-3.35-2.46-3-4.5l.48-2.72c2.51-13.65,8.18-26.67,16.68-37.7C45.03,1.99,103.52-2.64,139.78,25.05c20.63,15.5,34.14,42.12,29.73,68.12-2.18,12.45-8.43,24.11-17.52,32.89-14.55,14.19-38.6,20.13-56.73,9.11-9.27-5.72-15.9-15.49-16.43-26.86-.39-6.56,4.61-12.19,11.16-12.58,6.88-.44,12.74,5.19,12.6,12.07h0Z"/>
              </g>
              <g>
                <path class="cls-1" d="M96.41,94.21c-4.68-8.49-14.6-14.66-24.39-15.42-15.71-1.38-29.89,10.73-35.65,24.83-6.85,16.35-1.47,35.27,9.19,48.89,19.34,25.38,56.45,33.56,85.62,21.68,5.23-2.09,10.31-4.88,14.97-8.03,11.44-7.89,20.85-18.77,26.82-31.49.83-1.83,3.01-2.63,4.83-1.77,1.74.82,2.51,2.85,1.82,4.61-5.36,13.46-14.17,25.59-25.46,34.92-17.03,14.4-39.68,21.61-61.94,20.07-15.12-.94-29.83-5.59-42.69-13.78-21.8-14.09-37.4-39-36.33-65.56,1.21-26.99,21.15-52.61,48.09-58.25,13.17-2.76,27.24-.22,38.89,6.39,7.8,4.43,14.75,10.71,19.86,18.59,4.18,6.39,2.38,14.96-4.01,19.14-6.65,4.39-15.76,2.15-19.63-4.82h0Z"/>
                <path class="cls-2" d="M100.64,92.37c-4.68-8.49-14.6-14.66-24.39-15.42-15.71-1.38-29.89,10.73-35.65,24.83-6.85,16.35-1.47,35.27,9.19,48.89,19.34,25.38,56.45,33.56,85.62,21.68,5.23-2.09,10.31-4.88,14.97-8.03,11.44-7.89,20.85-18.77,26.82-31.49.83-1.83,3.01-2.63,4.83-1.77,1.74.82,2.51,2.85,1.82,4.61-5.36,13.46-14.17,25.59-25.46,34.92-17.03,14.4-39.69,21.61-61.94,20.07-15.12-.94-29.83-5.59-42.69-13.78-21.8-14.09-37.4-39-36.33-65.56,1.21-26.99,21.15-52.61,48.09-58.25,13.17-2.76,27.24-.22,38.89,6.39,7.8,4.43,14.75,10.71,19.86,18.59,4.18,6.39,2.38,14.96-4.01,19.14-6.65,4.39-15.76,2.15-19.63-4.82h0Z"/>
              </g>
            </g>
          </g>
          <path class="cls-6" d="M68.97,41.42c.04.73,2.47.09,6.15-.69.92-.22,1.92-.37,2.98-.58.53-.1,1.07-.16,1.63-.25.28-.04.56-.09.85-.13.28-.03.57-.06.86-.09,2.33-.28,4.83-.41,7.34-.3,2.52.1,5.05.42,7.48.97,2.43.55,4.74,1.32,6.85,2.23,4.22,1.84,7.56,4.3,9.72,6.07,2.17,1.78,4.13,3.63,5.87,5.43,1.74,1.79,3.24,3.52,4.57,4.96,2.6,2.93,4.45,4.75,5.55,3.75,1.05-.94,1.12-4.67-.36-9.48-.77-2.37-1.92-5-3.53-7.53-1.61-2.53-3.69-4.97-6.18-7.01-2.48-2.04-6.49-4.56-11.52-6.06-2.51-.75-5.25-1.26-8.1-1.45-2.85-.2-5.8-.07-8.68.34-2.88.4-5.71,1.12-8.3,2.02-.32.11-.64.22-.96.33-.32.12-.63.25-.94.37-.62.25-1.21.47-1.79.73-1.16.54-2.24,1.02-3.22,1.57-3.94,2.12-6.32,4.13-6.28,4.8Z"/>
          <path class="cls-6" d="M128.71,151.37c-.06-.73-2.47-.03-6.13.82-.92.24-1.91.41-2.97.64-.53.11-1.07.18-1.63.28-.28.05-.56.1-.85.15-.28.04-.57.07-.86.11-2.32.33-4.82.52-7.33.46-2.52-.04-5.06-.31-7.5-.8-2.44-.49-4.77-1.21-6.9-2.08-4.26-1.75-7.65-4.13-9.85-5.86-2.21-1.73-4.21-3.54-5.98-5.3-1.78-1.75-3.32-3.45-4.68-4.86-2.66-2.87-4.55-4.65-5.63-3.63-1.03.96-1.02,4.69.57,9.47.82,2.35,2.03,4.96,3.7,7.45,1.67,2.5,3.8,4.89,6.33,6.87,2.53,1.99,6.59,4.41,11.64,5.8,2.52.69,5.28,1.14,8.13,1.27,2.85.13,5.8-.05,8.67-.53,2.87-.47,5.68-1.25,8.25-2.2.32-.12.64-.23.95-.35.31-.13.62-.26.93-.39.61-.26,1.2-.5,1.77-.77,1.15-.56,2.21-1.07,3.19-1.64,3.89-2.21,6.23-4.27,6.17-4.93Z"/>
        </g>
      </g>
    </g>
  </g>
</svg>