<svg width="393" height="815" viewBox="0 0 393 815" fill="none" xmlns="http://www.w3.org/2000/svg">
<g clip-path="url(#clip0_156_26679)">
<path d="M971 -34H-217V815H971V-34Z" fill="#FFFBEB"/>
<path d="M41.5096 -34H37.3735V815H41.5096V-34Z" fill="#FFE0D9"/>
<path d="M86.5181 -34H82.3821V815H86.5181V-34Z" fill="#FFE0D9"/>
<path d="M131.527 -34H127.391V815H131.527V-34Z" fill="#FFE0D9"/>
<path d="M176.535 -34H172.399V815H176.535V-34Z" fill="#FFE0D9"/>
<path d="M221.538 -34H217.402V815H221.538V-34Z" fill="#FFE0D9"/>
<path d="M266.547 -34H262.411V815H266.547V-34Z" fill="#FFE0D9"/>
<path d="M311.556 -34H307.419V815H311.556V-34Z" fill="#FFE0D9"/>
<path d="M356.564 -34H352.428V815H356.564V-34Z" fill="#FFE0D9"/>
</g>
<defs>
<clipPath id="clip0_156_26679">
<rect width="1188" height="849" fill="white" transform="translate(-217 -34)"/>
</clipPath>
</defs>
</svg>
