<?xml version="1.0" encoding="UTF-8"?>
<svg xmlns="http://www.w3.org/2000/svg" xmlns:xlink="http://www.w3.org/1999/xlink" viewBox="0 0 193.86 193.87">
  <defs>
    <style>
      .cls-1 {
        opacity: .03;
      }

      .cls-1, .cls-2, .cls-3 {
        mix-blend-mode: multiply;
      }

      .cls-2 {
        opacity: .05;
      }

      .cls-3, .cls-4, .cls-5 {
        opacity: .1;
      }

      .cls-6 {
        fill: url(#linear-gradient-4);
      }

      .cls-7 {
        fill: url(#linear-gradient);
      }

      .cls-8 {
        fill: #e5e5e5;
      }

      .cls-9 {
        isolation: isolate;
      }

      .cls-10 {
        fill: #f2f7ff;
      }

      .cls-4 {
        mix-blend-mode: overlay;
      }

      .cls-11 {
        fill: url(#linear-gradient-3);
        opacity: .3;
      }

      .cls-11, .cls-5 {
        mix-blend-mode: screen;
      }

      .cls-5 {
        fill: url(#linear-gradient-2);
      }
    </style>
    <linearGradient id="linear-gradient" x1="167.8" y1="27.46" x2="25.2" y2="167.26" gradientUnits="userSpaceOnUse">
      <stop offset="0" stop-color="#ffb1da"/>
      <stop offset=".36" stop-color="#ffabd7"/>
      <stop offset=".82" stop-color="#ff9ccf"/>
      <stop offset="1" stop-color="#ff94cc"/>
    </linearGradient>
    <linearGradient id="linear-gradient-2" x1="221.73" y1="-194.18" x2="274.13" y2="-148.02" gradientTransform="translate(-189.65 236.35) rotate(-2.07)" gradientUnits="userSpaceOnUse">
      <stop offset="0" stop-color="#fff"/>
      <stop offset="1" stop-color="#000"/>
    </linearGradient>
    <linearGradient id="linear-gradient-3" x1="229.63" y1="1169.55" x2="352.85" y2="1169.55" gradientTransform="translate(-150.31 1316.54) rotate(-2.07) scale(1 -1)" gradientUnits="userSpaceOnUse">
      <stop offset="0" stop-color="#fff"/>
      <stop offset=".01" stop-color="#f4f4f4"/>
      <stop offset=".12" stop-color="#ababab"/>
      <stop offset=".22" stop-color="#6e6e6e"/>
      <stop offset=".31" stop-color="#3e3e3e"/>
      <stop offset=".39" stop-color="#1c1c1c"/>
      <stop offset=".45" stop-color="#070707"/>
      <stop offset=".5" stop-color="#000"/>
      <stop offset=".54" stop-color="#0a0a0a"/>
      <stop offset=".62" stop-color="#272727"/>
      <stop offset=".71" stop-color="#565656"/>
      <stop offset=".83" stop-color="#979797"/>
      <stop offset=".97" stop-color="#e9e9e9"/>
      <stop offset="1" stop-color="#fff"/>
    </linearGradient>
    <linearGradient id="linear-gradient-4" x1="159.18" y1="16.23" x2="21.24" y2="140.18" gradientUnits="userSpaceOnUse">
      <stop offset="0" stop-color="#ffefac"/>
      <stop offset=".49" stop-color="#ffeda5"/>
      <stop offset="1" stop-color="#ffeb99"/>
    </linearGradient>
  </defs>
  <g class="cls-9">
    <g id="_레이어_2" data-name="레이어 2">
      <g id="_레이어_1-2" data-name="레이어 1">
        <g>
          <g>
            <g>
              <path class="cls-7" d="M191.49,118.37c-.04.16-.07.32-.1.46-.02.06-.04.13-.05.17-8.85,37.97-40.1,67.65-79.51,73.73h-.03c-.83.13-1.68.26-2.51.36t-.03,0c-2.9.38-5.84.61-8.81.73-3.11.11-6.19.08-9.23-.1t-.03,0c-38.42-2.25-71.14-26.99-84.62-61.62-.46-1.18-.9-2.39-1.31-3.6-.03-.07-.06-.12-.07-.18-.05-.15-.11-.3-.14-.45-1.9-5.66-3.31-11.57-4.14-17.65-.44-3.21-.71-6.46-.83-9.77-.1-2.57-.1-5.13.03-7.65.02-.68.05-1.34.1-1.99,0-.05,0-.1,0-.16l.14-1.88c.31-3.66.82-7.25,1.52-10.77.81-4.14,1.91-8.17,3.24-12.11C17.62,28.83,52.01,1.56,93.42.06c42.19-1.52,79.07,24.16,93.71,61.32,1.4,3.56,2.6,7.24,3.58,10.99.61,2.35,1.14,4.75,1.59,7.19.1.57.21,1.13.29,1.7.02.15.04.28.07.41.01.07,0,.13.02.2.07.38.12.77.17,1.16.5,3.4.81,6.87.95,10.39.31,8.6-.5,16.95-2.31,24.95Z"/>
              <path class="cls-5" d="M102.34,4.94c-.4,0-.8,0-1.2.01C46.71,5.89,3.42,51.99,5.94,106.37c.02.45.04.89.07,1.34,1.39,23.13,31.81,30.55,43.56,10.58,17.38-29.56,39.66-55.93,65.78-77.97,14.35-12.11,5.77-35.47-13.01-35.38Z"/>
            </g>
            <circle class="cls-4" cx="97.05" cy="96.93" r="91.67" transform="translate(-40.12 97.01) rotate(-45)"/>
            <path class="cls-11" d="M36.04,117.84h0c1.02,28.24,24.15,50.53,51.39,49.54l24.07-.87c27.24-.99,48.7-24.9,47.67-53.13h0c-.11-3.11-2.64-5.54-5.63-5.43l-37.9-.55c-12.41-.18-24.81.27-37.17,1.36l-37.2,3.26c-3,.11-5.34,2.72-5.23,5.83Z"/>
          </g>
          <g>
            <path class="cls-2" d="M191.47,74.72c.43,1.52-.51,3.1-2.05,3.48h-.03c-.69.2-1.44.25-2.27.14-.11,0-.23-.02-.35-.04-1.74-.31-3.27-1.38-4.92-2.05-.58-.24-1.18-.41-1.8-.49-2.26-.28-4.2.86-5.58,2.65-1.5,1.97-2.34,4.72-2.14,7.22.15,1.92.64,3.78,1.26,5.62.89,2.72,2.03,5.4,2.55,8.2,1.15,6.22-1.13,12.85-5.48,17.41-1.89,2-4.21,3.61-6.79,4.62-1.11.43-2.27.75-3.43.95-2.47.44-5.03.36-7.5-.14-5.26-1.07-10.15-4.17-13-8.73-.32-.51-.6-1.01-.85-1.53-3.14-6.08-3.35-13.36-5.19-20.02-.59-2.08-1.48-4.18-2.62-6.11-1.28-2.13-2.86-4.04-4.71-5.46-2.27-1.74-4.96-2.71-7.89-2.4-7.13.76-11.21,8.7-11.98,15.81-.16,1.43-.21,2.84-.24,4.28-.06,1.87-.04,3.73-.08,5.6-.03,2.71-.15,5.4-.64,8.01-.23,1.16-.53,2.3-.92,3.43-2.38,6.76-10.69,12.29-16.66,8.32-1.48-.98-2.49-2.3-3.25-3.83-.74-1.51-1.21-3.21-1.58-4.96-.13-.62-.25-1.25-.36-1.88-1.08-6.03-1.28-12.2-8.76-14.45-1.25-.37-2.62-.24-3.76.39-3,1.67-3.32,4.82-2.86,8.4.22,1.79.64,3.7,1,5.56.08.44.18.89.26,1.31.2,1.19.37,2.37.43,3.49.57,10.47-12.09,18.16-22.15,15.21-1.52-.45-2.96-1.06-4.3-1.83-1.87-1.06-3.58-2.38-5.1-3.94-4.63-4.71-7.59-11.34-8.51-17.98-.75-5.41.15-14.53,1-21.08.34-2.65-2.39-4.6-4.8-3.44-1.03.49-2.11.92-3.22,1.26-3.55,1.1-7.45,1.41-11,.72-.65-.13-1.3-.28-1.92-.47-.42-.15-.85-.29-1.26-.47-.02,0-.04-.01-.06-.02-3.02-1.2-4.6-4.57-3.81-7.73.64-2.56,1.38-5.07,2.22-7.55C18.91,33.15,53.3,5.89,94.71,4.38c42.19-1.52,79.07,24.16,93.71,61.32,1.15,2.93,2.17,5.95,3.04,9.02Z"/>
            <path class="cls-6" d="M190.18,70.4c.43,1.52-.51,3.1-2.05,3.48h-.03c-.69.2-1.44.25-2.27.14-.11,0-.23-.02-.35-.04-1.74-.31-3.27-1.38-4.92-2.05-.58-.24-1.18-.41-1.8-.49-2.26-.28-4.2.86-5.58,2.65-1.5,1.97-2.34,4.72-2.14,7.22.15,1.92.64,3.78,1.26,5.62.89,2.72,2.03,5.4,2.55,8.2,1.15,6.22-1.13,12.85-5.48,17.41-1.89,2-4.21,3.61-6.79,4.62-1.11.43-2.27.75-3.43.95-2.47.44-5.03.36-7.5-.14-5.26-1.07-10.15-4.17-13-8.73-.32-.51-.6-1.01-.85-1.53-3.14-6.08-3.35-13.36-5.19-20.02-.59-2.08-1.48-4.18-2.62-6.11-1.28-2.13-2.86-4.04-4.71-5.46-2.27-1.74-4.96-2.71-7.89-2.4-7.13.76-11.21,8.7-11.98,15.81-.16,1.43-.21,2.84-.24,4.28-.06,1.87-.04,3.73-.08,5.6-.03,2.71-.15,5.4-.64,8.01-.23,1.16-.53,2.3-.92,3.43-2.38,6.76-10.69,12.29-16.66,8.32-1.48-.98-2.49-2.3-3.25-3.83-.74-1.51-1.21-3.21-1.58-4.96-.13-.62-.25-1.25-.36-1.88-1.08-6.03-1.28-12.2-8.76-14.45-1.25-.37-2.62-.24-3.76.39-3,1.67-3.32,4.82-2.86,8.4.22,1.79.64,3.7,1,5.56.08.44.18.89.26,1.31.2,1.19.37,2.37.43,3.49.57,10.47-12.09,18.16-22.15,15.21-1.52-.45-2.96-1.06-4.3-1.83-1.87-1.06-3.58-2.38-5.1-3.94-4.63-4.71-7.59-11.34-8.51-17.98-.75-5.41.15-14.53,1-21.08.34-2.65-2.39-4.6-4.8-3.44-1.03.49-2.11.92-3.22,1.26-3.55,1.1-7.45,1.41-11,.72-.65-.13-1.3-.28-1.92-.47-.43-.15-.85-.29-1.26-.47-.02,0-.04-.01-.06-.02-3.02-1.2-4.6-4.57-3.81-7.73.64-2.56,1.38-5.07,2.22-7.55C17.62,28.83,52.01,1.56,93.42.06c42.19-1.52,79.07,24.16,93.71,61.32,1.15,2.93,2.17,5.95,3.04,9.02Z"/>
            <g>
              <g>
                <path class="cls-3" d="M121.17,21.72c.2,5.56,5.09,9.9,10.92,9.69,5.83-.21,10.39-4.89,10.19-10.45-.2-5.56-5.09-9.9-10.92-9.69-5.83.21-10.39,4.89-10.19,10.45Z"/>
                <g>
                  <g>
                    <path class="cls-8" d="M121.59,17.29c-1.28,5.85,2.42,11.63,8.26,12.91,5.85,1.28,11.63-2.42,12.91-8.26,1.28-5.85-2.42-11.63-8.26-12.91-.28-.06-.55-.11-.83-.15-5.16-.73-10.11,2.35-11.76,7.26-.13.37-.23.76-.32,1.15Z"/>
                    <path class="cls-10" d="M129.96,29.71c5.57,1.22,11.09-2.31,12.32-7.88,1.22-5.57-2.31-11.09-7.88-12.32-.26-.06-.53-.1-.79-.14-4.92-.69-9.64,2.22-11.22,6.93-.12.35-.22.72-.3,1.1-1.22,5.57,2.31,11.09,7.88,12.32Z"/>
                  </g>
                  <g>
                    <path class="cls-1" d="M141.16,15.19c-.43-.1-.94.32-1.59.82-.15.13-.34.25-.51.39-.09.06-.18.13-.28.19-.05.03-.09.07-.14.1-.05.03-.1.06-.15.09-.39.25-.81.5-1.25.69-.44.19-.88.34-1.31.43-.43.09-.83.12-1.19.12-.72-.02-1.34-.18-1.76-.27-.84-.18-1.68-.27-2.56-.25-.43,0-.88.03-1.31.11-.43.08-.85.23-1.2.5s-.59.65-.68,1.16c-.09.5-.01,1.1.27,1.75.28.63.77,1.29,1.46,1.85.69.56,1.57,1,2.57,1.22.13.03.26.05.4.07.14.02.29.05.45.06.16.01.32.03.49.04.17,0,.35,0,.53,0,.73-.02,1.55-.12,2.38-.39.83-.26,1.66-.66,2.39-1.17.74-.51,1.39-1.12,1.91-1.77.53-.65.93-1.35,1.21-2.02.03-.08.07-.17.1-.25.03-.08.06-.17.08-.25.05-.16.1-.32.14-.47.07-.32.13-.6.15-.88.01-.14.02-.27.02-.39,0-.12,0-.24-.02-.35-.02-.22-.06-.41-.12-.57-.12-.32-.28-.5-.49-.56Z"/>
                    <path class="cls-1" d="M139.87,23.93c-.06-.02-.14.02-.23.1-.05.04-.1.09-.15.16-.06.06-.12.13-.19.21-.06.08-.14.16-.22.25-.08.09-.17.19-.27.29-.05.05-.1.1-.15.15-.05.05-.11.1-.16.16-.12.1-.23.21-.37.31-.26.21-.56.42-.9.61-.33.19-.7.35-1.1.48-.4.13-.81.22-1.25.26-.44.04-.89.04-1.34-.02-.91-.11-1.82-.41-2.62-.86-.8-.45-1.51-1.05-2.09-1.71-.58-.66-1.05-1.37-1.4-2.04-.36-.67-.59-1.27-.72-1.71-.14-.45-.22-.86-.25-1.23-.03-.35-.02-.7.03-1.01.05-.31.12-.58.21-.81.02-.06.05-.11.07-.17.03-.05.04-.1.07-.15.05-.1.12-.2.19-.3.15-.19.32-.37.49-.52.17-.15.35-.29.53-.41.34-.25.69-.44.83-.76.07-.16.07-.33-.02-.53-.09-.2-.28-.41-.57-.59-.3-.18-.7-.33-1.2-.37-.49-.05-1.06,0-1.66.22-.3.11-.61.25-.91.44-.15.09-.3.21-.45.33-.14.12-.28.24-.41.38-.27.27-.51.58-.72.92-.21.34-.39.7-.53,1.08-.29.76-.43,1.6-.41,2.47.02.85.19,1.69.47,2.47.28.78.72,1.66,1.32,2.53.6.88,1.38,1.8,2.35,2.62.97.82,2.14,1.54,3.43,2,1.29.46,2.67.64,3.97.54.65-.05,1.29-.18,1.88-.37.59-.19,1.15-.45,1.63-.75.49-.3.91-.64,1.26-.99.36-.35.65-.71.88-1.07.12-.17.21-.35.31-.52.04-.09.08-.17.12-.25.04-.08.07-.16.1-.24.06-.16.11-.3.15-.44.04-.14.07-.26.09-.38.02-.12.03-.22.03-.31,0-.09,0-.17-.01-.23-.02-.13-.06-.2-.12-.22Z"/>
                  </g>
                </g>
              </g>
              <g>
                <path class="cls-3" d="M118.29,45.28c.18,4.99,4.57,8.89,9.8,8.7,5.23-.19,9.33-4.39,9.14-9.38-.18-4.99-4.57-8.89-9.8-8.7-5.23.19-9.33,4.39-9.14,9.38Z"/>
                <g>
                  <g>
                    <path class="cls-8" d="M118.67,41.3c-1.15,5.25,2.17,10.44,7.42,11.59,5.25,1.15,10.44-2.17,11.59-7.42,1.15-5.25-2.17-10.44-7.42-11.59-.25-.05-.5-.1-.74-.13-4.63-.65-9.08,2.11-10.56,6.52-.11.33-.21.68-.29,1.03Z"/>
                    <path class="cls-10" d="M126.19,52.45c5,1.1,9.96-2.08,11.06-7.08,1.1-5-2.08-9.96-7.08-11.06-.23-.05-.47-.09-.71-.13-4.42-.62-8.65,2-10.08,6.22-.11.32-.2.65-.27.98-1.1,5,2.08,9.96,7.08,11.06Z"/>
                  </g>
                  <g>
                    <path class="cls-1" d="M136.24,39.41c-.38-.09-.84.29-1.42.73-.14.12-.3.23-.46.35-.08.06-.16.11-.25.17-.04.03-.08.06-.13.09-.04.03-.09.06-.13.08-.35.23-.73.45-1.12.62-.39.17-.79.3-1.17.38-.38.08-.74.11-1.06.11-.64-.01-1.2-.16-1.58-.24-.76-.16-1.5-.24-2.3-.23-.39,0-.79.03-1.18.1-.38.07-.76.2-1.08.45s-.53.59-.61,1.04c-.08.45-.01.99.24,1.57.26.57.69,1.16,1.31,1.66.62.5,1.41.9,2.31,1.1.11.02.23.04.36.07.13.02.26.04.4.05.14.01.29.02.44.03.15,0,.31,0,.47,0,.65-.02,1.39-.11,2.14-.35.75-.23,1.49-.59,2.15-1.05.66-.45,1.24-1,1.72-1.59.48-.58.83-1.21,1.08-1.81.03-.07.06-.15.09-.22.03-.07.05-.15.08-.22.05-.15.09-.29.13-.43.06-.28.12-.54.13-.79,0-.12.02-.24.02-.35,0-.11,0-.22-.02-.32-.02-.2-.05-.37-.11-.51-.11-.29-.26-.45-.44-.5Z"/>
                    <path class="cls-1" d="M135.08,47.27c-.05-.02-.12.02-.21.09-.04.04-.09.08-.14.14-.05.05-.11.12-.17.19-.06.07-.13.15-.2.23-.07.08-.16.17-.24.26-.04.05-.09.09-.14.14-.05.05-.1.09-.15.14-.11.09-.21.19-.33.28-.23.19-.51.38-.81.54-.3.17-.63.32-.99.43-.36.12-.72.19-1.12.23-.39.04-.8.03-1.2-.02-.81-.1-1.64-.37-2.35-.77-.72-.4-1.35-.95-1.87-1.54-.52-.59-.94-1.23-1.25-1.83-.32-.61-.53-1.14-.65-1.54-.12-.4-.19-.77-.22-1.1-.03-.32-.02-.63.02-.9.04-.28.11-.52.19-.73.02-.05.04-.1.06-.16.02-.04.04-.09.06-.14.05-.09.11-.18.17-.27.13-.17.28-.33.44-.47.16-.14.32-.26.47-.37.31-.22.62-.4.74-.68.06-.14.06-.3-.02-.48-.08-.18-.25-.37-.51-.53-.27-.16-.63-.29-1.07-.34-.44-.04-.95,0-1.49.2-.27.09-.55.22-.82.4-.14.08-.27.19-.41.29-.13.11-.25.22-.37.34-.24.24-.46.52-.65.82-.19.3-.35.63-.48.97-.26.69-.39,1.44-.37,2.21.02.76.17,1.52.42,2.22.25.7.65,1.49,1.18,2.27.54.79,1.24,1.61,2.11,2.35.87.74,1.92,1.38,3.08,1.79,1.16.41,2.39.58,3.57.48.59-.05,1.16-.16,1.69-.33.53-.17,1.03-.4,1.47-.67.44-.27.81-.57,1.13-.89.32-.31.58-.64.79-.96.11-.15.19-.32.28-.46.04-.08.07-.15.11-.22.03-.07.07-.14.09-.21.05-.14.1-.27.13-.39.03-.12.06-.23.08-.34.02-.1.03-.2.03-.28,0-.08,0-.15-.01-.21-.02-.12-.05-.18-.1-.2Z"/>
                  </g>
                </g>
              </g>
              <g>
                <path class="cls-3" d="M142.62,37.69c.16,4.48,4.1,7.98,8.8,7.81s8.37-3.94,8.21-8.42c-.16-4.48-4.1-7.98-8.8-7.81-4.7.17-8.37,3.94-8.21,8.42Z"/>
                <g>
                  <g>
                    <path class="cls-8" d="M142.96,34.12c-1.03,4.71,1.95,9.37,6.66,10.4,4.71,1.03,9.37-1.95,10.4-6.66,1.03-4.71-1.95-9.37-6.66-10.4-.22-.05-.44-.09-.67-.12-4.16-.58-8.15,1.89-9.48,5.85-.1.3-.19.61-.26.93Z"/>
                    <path class="cls-10" d="M149.7,44.13c4.49.98,8.94-1.87,9.93-6.35s-1.87-8.94-6.35-9.93c-.21-.05-.43-.08-.64-.11-3.96-.56-7.77,1.79-9.04,5.58-.1.29-.18.58-.25.88-.99,4.49,1.87,8.94,6.35,9.93Z"/>
                  </g>
                  <g>
                    <path class="cls-1" d="M158.73,32.43c-.35-.08-.76.26-1.28.66-.12.1-.27.2-.41.31-.07.05-.15.1-.22.16-.04.03-.07.05-.11.08-.04.02-.08.05-.12.08-.31.2-.65.4-1.01.55-.35.15-.71.27-1.05.34-.34.07-.67.1-.96.09-.58-.01-1.08-.15-1.42-.22-.68-.15-1.35-.21-2.07-.2-.35,0-.71.03-1.06.09-.34.06-.68.18-.97.4-.28.22-.48.53-.55.93-.07.4,0,.89.22,1.41.23.51.62,1.04,1.18,1.49.55.45,1.27.81,2.07.98.1.02.21.04.32.06.11.02.23.04.36.05.13.01.26.02.39.03.14,0,.28,0,.43,0,.59-.02,1.25-.1,1.92-.31.67-.21,1.34-.53,1.93-.94.59-.41,1.12-.9,1.54-1.43.43-.52.75-1.09.97-1.62.03-.07.05-.13.08-.2.03-.07.05-.13.07-.2.04-.13.08-.26.11-.38.06-.25.11-.49.12-.71,0-.11.01-.21.02-.31,0-.1,0-.2-.02-.28-.02-.18-.05-.33-.1-.46-.1-.26-.23-.41-.4-.45Z"/>
                    <path class="cls-1" d="M157.69,39.47s-.11.02-.19.08c-.04.03-.08.08-.12.13-.05.05-.1.11-.15.17-.05.06-.12.13-.18.21-.06.08-.14.15-.21.23-.04.04-.08.08-.12.12-.04.04-.09.08-.13.13-.1.08-.19.17-.3.25-.21.17-.45.34-.72.49-.27.15-.57.29-.88.39-.32.1-.65.17-1,.21-.35.03-.71.03-1.08-.01-.73-.09-1.47-.33-2.11-.7-.64-.36-1.22-.85-1.68-1.38-.47-.53-.84-1.1-1.13-1.64-.29-.54-.47-1.02-.58-1.38-.11-.36-.17-.69-.2-.99-.03-.28-.01-.57.02-.81.04-.25.1-.46.17-.65.02-.05.04-.09.06-.14.02-.04.03-.08.06-.12.04-.08.1-.16.15-.24.12-.15.25-.3.39-.42.14-.12.28-.23.42-.33.28-.2.56-.36.67-.61.05-.13.05-.27-.02-.43-.07-.16-.22-.33-.46-.48-.24-.15-.57-.26-.96-.3-.4-.04-.86,0-1.34.18-.24.09-.49.2-.74.36-.12.07-.24.17-.36.26-.11.1-.23.2-.33.31-.21.22-.41.47-.58.74-.17.27-.31.56-.43.87-.23.62-.35,1.29-.33,1.99.02.69.16,1.36.38,1.99.22.63.58,1.34,1.06,2.04.48.71,1.11,1.45,1.9,2.11.78.66,1.72,1.24,2.77,1.61,1.04.37,2.15.52,3.2.43.53-.04,1.04-.14,1.52-.3.48-.15.93-.36,1.32-.6.39-.24.73-.51,1.02-.8.29-.28.52-.57.71-.86.1-.14.17-.28.25-.42.03-.07.06-.14.1-.2.03-.06.06-.13.08-.19.05-.13.09-.24.12-.35.03-.11.06-.21.07-.3.01-.09.02-.18.03-.25,0-.07,0-.14-.01-.19-.02-.1-.05-.16-.09-.18Z"/>
                  </g>
                </g>
              </g>
            </g>
          </g>
        </g>
      </g>
    </g>
  </g>
</svg>