<svg width="194" height="194" viewBox="0 0 194 194" fill="none" xmlns="http://www.w3.org/2000/svg">
<mask id="mask0_195_59" style="mask-type:luminance" maskUnits="userSpaceOnUse" x="0" y="0" width="194" height="194">
<path d="M191.482 118.374C191.442 118.534 191.412 118.694 191.382 118.834C191.362 118.894 191.342 118.964 191.332 119.004C182.482 156.974 151.232 186.654 111.822 192.734H111.792C110.962 192.864 110.112 192.994 109.282 193.094C109.282 193.094 109.272 193.094 109.252 193.094C106.352 193.474 103.412 193.704 100.442 193.824C97.3316 193.934 94.2516 193.904 91.2116 193.724C91.2116 193.724 91.2016 193.724 91.1816 193.724C52.7616 191.474 20.0416 166.734 6.56162 132.104C6.10162 130.924 5.66162 129.714 5.25162 128.504C5.22162 128.434 5.19162 128.384 5.18162 128.324C5.13162 128.174 5.07162 128.024 5.04162 127.874C3.14162 122.214 1.73162 116.304 0.901619 110.224C0.461619 107.014 0.191617 103.764 0.0716167 100.454C-0.0283833 97.884 -0.0283807 95.3241 0.101619 92.8041C0.121619 92.1241 0.151618 91.464 0.201618 90.814C0.201618 90.764 0.201618 90.7141 0.201618 90.6541L0.341617 88.7741C0.651617 85.1141 1.16162 81.5241 1.86162 78.0041C2.67162 73.8641 3.77162 69.8341 5.10162 65.8941C17.6116 28.834 52.0116 1.56405 93.4216 0.064053C135.612 -1.45595 172.492 24.2241 187.132 61.3841C188.532 64.9441 189.732 68.6241 190.712 72.3741C191.322 74.7241 191.852 77.124 192.302 79.564C192.402 80.134 192.512 80.6941 192.592 81.2641C192.612 81.4141 192.632 81.544 192.662 81.674C192.672 81.744 192.662 81.8041 192.682 81.8741C192.752 82.2541 192.802 82.6441 192.852 83.034C193.352 86.4341 193.662 89.904 193.802 93.424C194.112 102.024 193.302 110.374 191.492 118.374H191.482Z" fill="white"/>
</mask>
<g mask="url(#mask0_195_59)">
<path d="M234.482 -0.635925H-39.2984V194.554H234.482V-0.635925Z" fill="#F2E1D1"/>
<path d="M198.312 153.264C198.142 152.644 198.032 151.864 198.552 151.484C198.782 151.314 199.082 151.284 199.362 151.264C201.552 151.124 203.772 151.514 205.782 152.404C205.982 154.204 204.782 155.824 203.642 157.234C200.092 161.634 199.102 156.154 198.322 153.254L198.312 153.264ZM207.822 162.944C209.622 162.744 211.622 162.434 212.742 161.004C211.942 158.964 210.632 157.114 208.972 155.684C208.762 155.504 208.522 155.314 208.242 155.274C207.612 155.184 207.142 155.814 206.822 156.374C205.342 158.994 202.202 163.584 207.812 162.944H207.822ZM196.282 165.204C194.612 165.894 192.772 166.744 192.092 168.424C193.422 170.164 195.192 171.574 197.182 172.494C197.442 172.614 197.712 172.724 197.992 172.684C198.622 172.604 198.902 171.854 199.052 171.234C199.752 168.314 201.502 163.024 196.282 165.194V165.204ZM197.932 159.084C197.002 157.534 195.892 155.844 194.132 155.404C192.602 156.974 191.462 158.924 190.842 161.034C190.762 161.304 190.692 161.594 190.772 161.864C190.942 162.474 191.722 162.644 192.352 162.704C195.352 162.974 200.832 163.934 197.932 159.084ZM202.682 168.634C203.252 170.354 203.972 172.244 205.592 173.044C207.422 171.834 208.962 170.184 210.022 168.264C210.162 168.014 210.292 167.754 210.272 167.464C210.232 166.824 209.512 166.494 208.902 166.304C206.032 165.394 200.892 163.274 202.672 168.634H202.682Z" fill="#FCA3D1"/>
<path d="M-11.5384 153.264C-11.7084 152.644 -11.8184 151.864 -11.2984 151.484C-11.0684 151.314 -10.7684 151.284 -10.4884 151.264C-8.29838 151.124 -6.07838 151.514 -4.06838 152.404C-3.86838 154.204 -5.06838 155.824 -6.20838 157.234C-9.75838 161.634 -10.7484 156.154 -11.5284 153.254L-11.5384 153.264ZM-2.02838 162.944C-0.228381 162.744 1.77162 162.434 2.89162 161.004C2.09162 158.964 0.781616 157.114 -0.878384 155.684C-1.08838 155.504 -1.32838 155.314 -1.60838 155.274C-2.23838 155.184 -2.70838 155.814 -3.02838 156.374C-4.50838 158.994 -7.64838 163.584 -2.03838 162.944H-2.02838ZM-13.5584 165.204C-15.2284 165.894 -17.0684 166.744 -17.7484 168.424C-16.4184 170.164 -14.6484 171.574 -12.6584 172.494C-12.3984 172.614 -12.1284 172.724 -11.8484 172.684C-11.2184 172.604 -10.9384 171.854 -10.7884 171.234C-10.0884 168.314 -8.33838 163.024 -13.5584 165.194V165.204ZM-11.9184 159.084C-12.8484 157.534 -13.9584 155.844 -15.7184 155.404C-17.2484 156.974 -18.3884 158.924 -19.0084 161.034C-19.0884 161.304 -19.1584 161.594 -19.0784 161.864C-18.9084 162.474 -18.1284 162.644 -17.4984 162.704C-14.4984 162.974 -9.01838 163.934 -11.9184 159.084ZM-7.16838 168.634C-6.59838 170.354 -5.87838 172.244 -4.25838 173.044C-2.42838 171.834 -0.888381 170.184 0.171619 168.264C0.311619 168.014 0.441619 167.754 0.421619 167.464C0.381619 166.824 -0.338383 166.494 -0.948383 166.304C-3.81838 165.394 -8.95838 163.274 -7.17838 168.634H-7.16838Z" fill="#FCA3D1"/>
<path d="M198.312 24.614C198.142 23.994 198.032 23.214 198.552 22.834C198.782 22.664 199.082 22.634 199.362 22.614C201.552 22.474 203.772 22.864 205.782 23.754C205.982 25.554 204.782 27.174 203.642 28.584C200.092 32.984 199.102 27.504 198.322 24.604L198.312 24.614ZM207.822 34.284C209.622 34.084 211.622 33.774 212.742 32.344C211.942 30.304 210.632 28.454 208.972 27.024C208.762 26.844 208.522 26.654 208.242 26.614C207.612 26.524 207.142 27.154 206.822 27.714C205.342 30.334 202.202 34.924 207.812 34.284H207.822ZM196.282 36.554C194.612 37.244 192.772 38.094 192.092 39.774C193.422 41.514 195.192 42.924 197.182 43.844C197.442 43.964 197.712 44.074 197.992 44.034C198.622 43.954 198.902 43.204 199.052 42.584C199.752 39.664 201.502 34.374 196.282 36.544V36.554ZM197.932 30.434C197.002 28.884 195.892 27.194 194.132 26.754C192.602 28.324 191.462 30.274 190.842 32.384C190.762 32.654 190.692 32.944 190.772 33.214C190.942 33.824 191.722 33.994 192.352 34.054C195.352 34.324 200.832 35.284 197.932 30.434ZM202.682 39.974C203.252 41.694 203.972 43.584 205.592 44.384C207.422 43.174 208.962 41.524 210.022 39.604C210.162 39.354 210.292 39.094 210.272 38.804C210.232 38.164 209.512 37.834 208.902 37.644C206.032 36.734 200.892 34.614 202.672 39.974H202.682Z" fill="#FCA3D1"/>
<path d="M-11.5384 24.614C-11.7084 23.994 -11.8184 23.214 -11.2984 22.834C-11.0684 22.664 -10.7684 22.634 -10.4884 22.614C-8.29838 22.474 -6.07838 22.864 -4.06838 23.754C-3.86838 25.554 -5.06838 27.174 -6.20838 28.584C-9.75838 32.984 -10.7484 27.504 -11.5284 24.604L-11.5384 24.614ZM-2.02838 34.284C-0.228381 34.084 1.77162 33.774 2.89162 32.344C2.09162 30.304 0.781616 28.454 -0.878384 27.024C-1.08838 26.844 -1.32838 26.654 -1.60838 26.614C-2.23838 26.524 -2.70838 27.154 -3.02838 27.714C-4.50838 30.334 -7.64838 34.924 -2.03838 34.284H-2.02838ZM-13.5584 36.554C-15.2284 37.244 -17.0684 38.094 -17.7484 39.774C-16.4184 41.514 -14.6484 42.924 -12.6584 43.844C-12.3984 43.964 -12.1284 44.074 -11.8484 44.034C-11.2184 43.954 -10.9384 43.204 -10.7884 42.584C-10.0884 39.664 -8.33838 34.374 -13.5584 36.544V36.554ZM-11.9184 30.434C-12.8484 28.884 -13.9584 27.194 -15.7184 26.754C-17.2484 28.324 -18.3884 30.274 -19.0084 32.384C-19.0884 32.654 -19.1584 32.944 -19.0784 33.214C-18.9084 33.824 -18.1284 33.994 -17.4984 34.054C-14.4984 34.324 -9.01838 35.284 -11.9184 30.434ZM-7.16838 39.974C-6.59838 41.694 -5.87838 43.584 -4.25838 44.384C-2.42838 43.174 -0.888381 41.524 0.171619 39.604C0.311619 39.354 0.441619 39.094 0.421619 38.804C0.381619 38.164 -0.338383 37.834 -0.948383 37.644C-3.81838 36.734 -8.95838 34.614 -7.17838 39.974H-7.16838Z" fill="#FCA3D1"/>
<path d="M96.8816 153.324C128.008 153.324 153.242 128.091 153.242 96.9641C153.242 65.8373 128.008 40.6041 96.8816 40.6041C65.7548 40.6041 40.5216 65.8373 40.5216 96.9641C40.5216 128.091 65.7548 153.324 96.8816 153.324Z" fill="#F5A6D5"/>
<path d="M39.28 115.72C36.04 115.72 33.205 115.075 30.775 113.785C28.375 112.465 26.5 110.62 25.15 108.25C23.83 105.88 23.17 103.12 23.17 99.97C23.17 96.73 23.86 93.865 25.24 91.375C26.65 88.885 28.57 86.935 31 85.525C33.46 84.085 36.28 83.365 39.46 83.365C43 83.365 45.775 84.055 47.785 85.435L46.57 92.59C45.7 92.17 44.785 91.87 43.825 91.69C42.895 91.48 42.01 91.375 41.17 91.375C38.71 91.375 36.775 92.11 35.365 93.58C33.955 95.05 33.25 97.09 33.25 99.7C33.25 102.16 33.925 104.095 35.275 105.505C36.655 106.885 38.56 107.575 40.99 107.575C41.95 107.575 42.82 107.485 43.6 107.305C44.41 107.125 45.4 106.795 46.57 106.315L47.83 113.425C45.22 114.955 42.37 115.72 39.28 115.72ZM60.1667 115.36C58.0967 115.36 56.2217 114.865 54.5417 113.875C52.8617 112.855 51.5267 111.46 50.5367 109.69C49.5767 107.92 49.0967 105.895 49.0967 103.615C49.0967 101.335 49.5767 99.34 50.5367 97.63C51.5267 95.92 52.8617 94.585 54.5417 93.625C56.2217 92.635 58.0967 92.14 60.1667 92.14C61.6367 92.14 63.0617 92.545 64.4417 93.355C65.8217 94.165 66.8867 95.5 67.6367 97.36V92.455H76.9967V115H67.5467V110.815C66.8267 112.285 65.8667 113.41 64.6667 114.19C63.4667 114.97 61.9667 115.36 60.1667 115.36ZM63.0917 108.25C64.3217 108.25 65.3717 107.815 66.2417 106.945C67.1117 106.045 67.5467 104.95 67.5467 103.66C67.5467 102.37 67.1117 101.32 66.2417 100.51C65.3717 99.67 64.3217 99.25 63.0917 99.25C61.8017 99.25 60.7217 99.685 59.8517 100.555C58.9817 101.425 58.5467 102.49 58.5467 103.75C58.5467 105.01 58.9817 106.075 59.8517 106.945C60.7217 107.815 61.8017 108.25 63.0917 108.25ZM81.5107 115V92.455H90.8707V97.36C91.5607 95.68 92.5807 94.39 93.9307 93.49C95.3107 92.59 96.9457 92.14 98.8357 92.14C101.776 92.14 104.056 93.16 105.676 95.2C107.296 97.21 108.106 100.06 108.106 103.75V115H98.6107V103.255C98.6107 100.585 97.5307 99.25 95.3707 99.25C94.0807 99.25 93.0307 99.73 92.2207 100.69C91.4107 101.62 91.0057 102.88 91.0057 104.47V115H81.5107ZM122.305 115.36C120.235 115.36 118.36 114.865 116.68 113.875C115 112.855 113.665 111.46 112.675 109.69C111.715 107.92 111.235 105.895 111.235 103.615C111.235 101.335 111.715 99.34 112.675 97.63C113.665 95.92 115 94.585 116.68 93.625C118.36 92.635 120.235 92.14 122.305 92.14C123.775 92.14 125.185 92.545 126.535 93.355C127.915 94.135 128.935 95.41 129.595 97.18V85.345L139.09 83.95V115H129.685V110.815C128.965 112.285 128.005 113.41 126.805 114.19C125.605 114.97 124.105 115.36 122.305 115.36ZM125.23 108.25C126.46 108.25 127.51 107.815 128.38 106.945C129.25 106.045 129.685 104.95 129.685 103.66C129.685 102.37 129.25 101.32 128.38 100.51C127.51 99.67 126.46 99.25 125.23 99.25C123.94 99.25 122.86 99.685 121.99 100.555C121.12 101.425 120.685 102.49 120.685 103.75C120.685 105.01 121.12 106.075 121.99 106.945C122.86 107.815 123.94 108.25 125.23 108.25ZM155.44 123.775C154.3 123.775 153.235 123.7 152.245 123.55C151.255 123.4 150.475 123.22 149.905 123.01L150.625 116.485C151.165 116.605 151.75 116.695 152.38 116.755C153.01 116.845 153.625 116.89 154.225 116.89C156.235 116.89 157.675 116.47 158.545 115.63C159.445 114.79 159.895 113.5 159.895 111.76V109.195C159.175 111.025 158.155 112.36 156.835 113.2C155.515 114.01 153.955 114.415 152.155 114.415C149.365 114.415 147.205 113.41 145.675 111.4C144.145 109.36 143.38 106.495 143.38 102.805V92.455H152.875V103.3C152.875 105.97 153.82 107.305 155.71 107.305C156.88 107.305 157.81 106.825 158.5 105.865C159.22 104.905 159.58 103.645 159.58 102.085V92.455H169.075V109.735C169.075 114.535 167.89 118.075 165.52 120.355C163.15 122.635 159.79 123.775 155.44 123.775Z" fill="#3D2E95"/>
<path d="M82.8995 168.694C82.7159 168.694 82.565 168.638 82.4469 168.527C82.3354 168.409 82.2796 168.264 82.2796 168.094V162.406C82.2796 162.236 82.3354 162.095 82.4469 161.983C82.565 161.865 82.7093 161.806 82.8799 161.806H86.0779C86.2484 161.806 86.3895 161.862 86.501 161.973C86.6191 162.078 86.6781 162.216 86.6781 162.387C86.6781 162.531 86.6191 162.659 86.501 162.77C86.3895 162.882 86.2484 162.938 86.0779 162.938H83.4211L83.5096 162.82V164.797L83.4407 164.67H85.6351C85.8056 164.67 85.9467 164.725 86.0582 164.837C86.1763 164.942 86.2353 165.08 86.2353 165.25C86.2353 165.394 86.1763 165.522 86.0582 165.634C85.9467 165.745 85.8056 165.801 85.6351 165.801H83.4211L83.5096 165.713V168.094C83.5096 168.264 83.4473 168.409 83.3227 168.527C83.2046 168.638 83.0635 168.694 82.8995 168.694ZM92.6694 166.067C92.6694 166.605 92.5481 167.08 92.3054 167.494C92.0692 167.9 91.7478 168.218 91.341 168.448C90.9409 168.678 90.4915 168.792 89.993 168.792C89.4944 168.792 89.0418 168.678 88.635 168.448C88.2349 168.218 87.9134 167.9 87.6707 167.494C87.4346 167.08 87.3165 166.605 87.3165 166.067C87.3165 165.529 87.4346 165.057 87.6707 164.65C87.9134 164.237 88.2349 163.915 88.635 163.686C89.0418 163.449 89.4944 163.331 89.993 163.331C90.4915 163.331 90.9409 163.449 91.341 163.686C91.7478 163.915 92.0692 164.237 92.3054 164.65C92.5481 165.057 92.6694 165.529 92.6694 166.067ZM91.4886 166.067C91.4886 165.732 91.4198 165.444 91.282 165.201C91.1508 164.952 90.9704 164.758 90.7408 164.62C90.5178 164.483 90.2685 164.414 89.993 164.414C89.7174 164.414 89.4649 164.483 89.2353 164.62C89.0122 164.758 88.8318 164.952 88.6941 165.201C88.5629 165.444 88.4973 165.732 88.4973 166.067C88.4973 166.395 88.5629 166.683 88.6941 166.933C88.8318 167.175 89.0122 167.366 89.2353 167.503C89.4649 167.641 89.7174 167.71 89.993 167.71C90.2685 167.71 90.5178 167.641 90.7408 167.503C90.9704 167.366 91.1508 167.175 91.282 166.933C91.4198 166.683 91.4886 166.395 91.4886 166.067ZM94.2933 168.694C94.1227 168.694 93.9817 168.638 93.8701 168.527C93.7586 168.409 93.7029 168.264 93.7029 168.094V164.03C93.7029 163.859 93.7586 163.718 93.8701 163.607C93.9817 163.489 94.1227 163.43 94.2933 163.43C94.4638 163.43 94.6049 163.489 94.7164 163.607C94.8279 163.718 94.8837 163.859 94.8837 164.03V164.955L94.8148 164.296C94.8869 164.138 94.9788 164 95.0903 163.882C95.2084 163.758 95.3396 163.656 95.4839 163.577C95.6282 163.492 95.7824 163.43 95.9464 163.39C96.1104 163.351 96.2744 163.331 96.4384 163.331C96.6352 163.331 96.7992 163.387 96.9304 163.499C97.0681 163.61 97.137 163.741 97.137 163.892C97.137 164.109 97.0813 164.266 96.9697 164.364C96.8582 164.456 96.7369 164.502 96.6057 164.502C96.481 164.502 96.3662 164.479 96.2613 164.433C96.1629 164.387 96.0481 164.364 95.9169 164.364C95.7988 164.364 95.6774 164.394 95.5528 164.453C95.4347 164.506 95.3232 164.591 95.2182 164.709C95.1198 164.827 95.0378 164.975 94.9722 165.152C94.9132 165.322 94.8837 165.526 94.8837 165.762V168.094C94.8837 168.264 94.8279 168.409 94.7164 168.527C94.6049 168.638 94.4638 168.694 94.2933 168.694ZM104.634 163.43C104.804 163.43 104.945 163.489 105.057 163.607C105.168 163.718 105.224 163.859 105.224 164.03V168.212C105.224 168.815 105.109 169.294 104.88 169.649C104.657 170.009 104.355 170.268 103.975 170.426C103.594 170.583 103.168 170.662 102.695 170.662C102.485 170.662 102.262 170.646 102.026 170.613C101.79 170.58 101.597 170.531 101.446 170.465C101.249 170.38 101.111 170.272 101.032 170.141C100.96 170.016 100.947 169.881 100.993 169.737C101.052 169.547 101.147 169.416 101.278 169.344C101.41 169.278 101.547 169.271 101.692 169.324C101.797 169.357 101.934 169.406 102.105 169.471C102.275 169.544 102.472 169.58 102.695 169.58C102.997 169.58 103.246 169.537 103.443 169.452C103.647 169.373 103.797 169.235 103.896 169.038C104.001 168.848 104.053 168.586 104.053 168.251V167.592L104.26 167.828C104.148 168.045 104.007 168.225 103.837 168.369C103.673 168.507 103.476 168.612 103.246 168.684C103.017 168.756 102.754 168.792 102.459 168.792C102.111 168.792 101.806 168.714 101.544 168.556C101.288 168.392 101.088 168.169 100.944 167.887C100.799 167.599 100.727 167.271 100.727 166.903V164.03C100.727 163.859 100.783 163.718 100.895 163.607C101.006 163.489 101.147 163.43 101.318 163.43C101.488 163.43 101.629 163.489 101.741 163.607C101.852 163.718 101.908 163.859 101.908 164.03V166.549C101.908 166.975 102 167.277 102.184 167.454C102.374 167.625 102.636 167.71 102.971 167.71C103.2 167.71 103.394 167.667 103.551 167.582C103.709 167.49 103.83 167.359 103.915 167.189C104.001 167.011 104.043 166.798 104.043 166.549V164.03C104.043 163.859 104.099 163.718 104.211 163.607C104.322 163.489 104.463 163.43 104.634 163.43ZM111.561 166.067C111.561 166.605 111.44 167.08 111.197 167.494C110.961 167.9 110.64 168.218 110.233 168.448C109.833 168.678 109.384 168.792 108.885 168.792C108.386 168.792 107.934 168.678 107.527 168.448C107.127 168.218 106.805 167.9 106.563 167.494C106.327 167.08 106.209 166.605 106.209 166.067C106.209 165.529 106.327 165.057 106.563 164.65C106.805 164.237 107.127 163.915 107.527 163.686C107.934 163.449 108.386 163.331 108.885 163.331C109.384 163.331 109.833 163.449 110.233 163.686C110.64 163.915 110.961 164.237 111.197 164.65C111.44 165.057 111.561 165.529 111.561 166.067ZM110.381 166.067C110.381 165.732 110.312 165.444 110.174 165.201C110.043 164.952 109.862 164.758 109.633 164.62C109.41 164.483 109.161 164.414 108.885 164.414C108.609 164.414 108.357 164.483 108.127 164.62C107.904 164.758 107.724 164.952 107.586 165.201C107.455 165.444 107.389 165.732 107.389 166.067C107.389 166.395 107.455 166.683 107.586 166.933C107.724 167.175 107.904 167.366 108.127 167.503C108.357 167.641 108.609 167.71 108.885 167.71C109.161 167.71 109.41 167.641 109.633 167.503C109.862 167.366 110.043 167.175 110.174 166.933C110.312 166.683 110.381 166.395 110.381 166.067ZM116.501 163.43C116.672 163.43 116.813 163.489 116.924 163.607C117.036 163.718 117.092 163.859 117.092 164.03V166.529C117.092 167.225 116.898 167.776 116.511 168.182C116.124 168.589 115.567 168.792 114.838 168.792C114.11 168.792 113.553 168.589 113.166 168.182C112.785 167.776 112.595 167.225 112.595 166.529V164.03C112.595 163.859 112.651 163.718 112.762 163.607C112.874 163.489 113.015 163.43 113.185 163.43C113.356 163.43 113.497 163.489 113.608 163.607C113.72 163.718 113.776 163.859 113.776 164.03V166.529C113.776 166.929 113.864 167.228 114.041 167.425C114.218 167.615 114.484 167.71 114.838 167.71C115.199 167.71 115.468 167.615 115.645 167.425C115.822 167.228 115.911 166.929 115.911 166.529V164.03C115.911 163.859 115.967 163.718 116.078 163.607C116.19 163.489 116.331 163.43 116.501 163.43Z" fill="#3D2E95"/>
<path d="M71.7436 29.9635C71.3264 29.9635 70.9509 29.9128 70.6171 29.8115C70.2834 29.7042 69.9645 29.5195 69.6606 29.2572C69.5831 29.1917 69.5235 29.1172 69.4818 29.0337C69.44 28.9503 69.4192 28.8668 69.4192 28.7834C69.4192 28.6463 69.4669 28.5271 69.5622 28.4258C69.6635 28.3185 69.7887 28.2649 69.9377 28.2649C70.0509 28.2649 70.1523 28.3006 70.2417 28.3722C70.4681 28.5569 70.6916 28.697 70.9122 28.7923C71.1386 28.8877 71.4158 28.9354 71.7436 28.9354C71.9641 28.9354 72.1667 28.9026 72.3515 28.837C72.5363 28.7655 72.6853 28.6731 72.7985 28.5599C72.9117 28.4407 72.9684 28.3066 72.9684 28.1576C72.9684 27.9788 72.9147 27.8268 72.8074 27.7017C72.7002 27.5765 72.5363 27.4722 72.3157 27.3888C72.0952 27.2994 71.8151 27.2308 71.4754 27.1831C71.1535 27.1355 70.8704 27.0639 70.6261 26.9686C70.3817 26.8673 70.1761 26.7421 70.0092 26.5931C69.8483 26.4381 69.7261 26.2593 69.6427 26.0567C69.5592 25.8481 69.5175 25.6157 69.5175 25.3594C69.5175 24.972 69.6159 24.6412 69.8125 24.367C70.0152 24.0929 70.2864 23.8843 70.6261 23.7412C70.9658 23.5982 71.3413 23.5267 71.7525 23.5267C72.1399 23.5267 72.4975 23.5863 72.8253 23.7055C73.1591 23.8187 73.4303 23.9647 73.6389 24.1435C73.8117 24.2806 73.8981 24.4386 73.8981 24.6174C73.8981 24.7485 73.8475 24.8677 73.7461 24.975C73.6448 25.0822 73.5256 25.1359 73.3885 25.1359C73.2991 25.1359 73.2187 25.1091 73.1472 25.0554C73.0518 24.972 72.9237 24.8945 72.7627 24.823C72.6018 24.7455 72.432 24.6829 72.2532 24.6352C72.0744 24.5816 71.9075 24.5548 71.7525 24.5548C71.4962 24.5548 71.2787 24.5876 71.0999 24.6531C70.9271 24.7187 70.7959 24.8081 70.7065 24.9213C70.6171 25.0346 70.5724 25.1657 70.5724 25.3147C70.5724 25.4935 70.6231 25.6425 70.7244 25.7617C70.8317 25.8749 70.9837 25.9673 71.1804 26.0388C71.377 26.1044 71.6125 26.164 71.8866 26.2176C72.2442 26.2832 72.5571 26.3607 72.8253 26.4501C73.0995 26.5395 73.326 26.6557 73.5048 26.7987C73.6836 26.9358 73.8177 27.1116 73.9071 27.3262C73.9965 27.5348 74.0412 27.7911 74.0412 28.095C74.0412 28.4824 73.9339 28.8162 73.7193 29.0963C73.5048 29.3764 73.2217 29.591 72.87 29.74C72.5243 29.889 72.1489 29.9635 71.7436 29.9635ZM77.364 25.0197L75.4329 29.5612C75.3912 29.6744 75.3257 29.7638 75.2363 29.8294C75.1528 29.889 75.0604 29.9188 74.9591 29.9188C74.7982 29.9188 74.679 29.8741 74.6015 29.7847C74.524 29.6953 74.4853 29.585 74.4853 29.4539C74.4853 29.4003 74.4942 29.3436 74.5121 29.284L76.7382 23.9379C76.7859 23.8187 76.8574 23.7263 76.9527 23.6608C77.0541 23.5952 77.1613 23.5684 77.2746 23.5803C77.3819 23.5803 77.4802 23.6131 77.5696 23.6787C77.665 23.7383 77.7335 23.8247 77.7752 23.9379L79.9745 29.1768C80.0043 29.2542 80.0192 29.3258 80.0192 29.3913C80.0192 29.5522 79.9655 29.6804 79.8582 29.7757C79.7569 29.8711 79.6437 29.9188 79.5185 29.9188C79.4112 29.9188 79.3129 29.886 79.2235 29.8204C79.1401 29.7549 79.0745 29.6655 79.0268 29.5522L77.1047 25.0733L77.364 25.0197ZM75.7101 28.4705L76.2018 27.4424H78.6156L78.7854 28.4705H75.7101ZM82.4497 29.8741C82.2828 29.8741 82.1457 29.8234 82.0384 29.7221C81.9311 29.6148 81.8775 29.4837 81.8775 29.3287V24.1435H83.0397V29.3287C83.0397 29.4837 82.9831 29.6148 82.8698 29.7221C82.7626 29.8234 82.6225 29.8741 82.4497 29.8741ZM80.4739 24.6442C80.319 24.6442 80.1878 24.5965 80.0806 24.5011C79.9792 24.4058 79.9286 24.2806 79.9286 24.1257C79.9286 23.9707 79.9792 23.8485 80.0806 23.7591C80.1878 23.6638 80.319 23.6161 80.4739 23.6161H84.4433C84.5982 23.6161 84.7264 23.6638 84.8277 23.7591C84.935 23.8545 84.9886 23.9796 84.9886 24.1346C84.9886 24.2896 84.935 24.4147 84.8277 24.5101C84.7264 24.5995 84.5982 24.6442 84.4433 24.6442H80.4739ZM87.7794 25.0197L85.8484 29.5612C85.8067 29.6744 85.7411 29.7638 85.6517 29.8294C85.5683 29.889 85.4759 29.9188 85.3746 29.9188C85.2136 29.9188 85.0944 29.8741 85.017 29.7847C84.9395 29.6953 84.9007 29.585 84.9007 29.4539C84.9007 29.4003 84.9097 29.3436 84.9276 29.284L87.1536 23.9379C87.2013 23.8187 87.2728 23.7263 87.3682 23.6608C87.4695 23.5952 87.5768 23.5684 87.69 23.5803C87.7973 23.5803 87.8956 23.6131 87.985 23.6787C88.0804 23.7383 88.1489 23.8247 88.1907 23.9379L90.3899 29.1768C90.4197 29.2542 90.4346 29.3258 90.4346 29.3913C90.4346 29.5522 90.381 29.6804 90.2737 29.7757C90.1724 29.8711 90.0591 29.9188 89.934 29.9188C89.8267 29.9188 89.7283 29.886 89.6389 29.8204C89.5555 29.7549 89.4899 29.6655 89.4423 29.5522L87.5202 25.0733L87.7794 25.0197ZM86.1255 28.4705L86.6172 27.4424H89.031L89.2009 28.4705H86.1255ZM95.9387 23.6161C96.0818 23.6161 96.198 23.6638 96.2874 23.7591C96.3768 23.8545 96.4215 23.9737 96.4215 24.1167V29.3287C96.4215 29.4837 96.3678 29.6148 96.2606 29.7221C96.1592 29.8234 96.0311 29.8741 95.8761 29.8741C95.7987 29.8741 95.7182 29.8622 95.6348 29.8383C95.5573 29.8085 95.4977 29.7698 95.456 29.7221L91.9425 25.261L92.175 25.118V29.3734C92.175 29.5165 92.1273 29.6357 92.0319 29.731C91.9425 29.8264 91.8233 29.8741 91.6743 29.8741C91.5313 29.8741 91.4151 29.8264 91.3257 29.731C91.2363 29.6357 91.1916 29.5165 91.1916 29.3734V24.1614C91.1916 24.0065 91.2422 23.8783 91.3436 23.777C91.4508 23.6697 91.582 23.6161 91.7369 23.6161C91.8204 23.6161 91.9068 23.634 91.9962 23.6697C92.0856 23.6995 92.1511 23.7472 92.1929 23.8128L95.599 28.1576L95.447 28.2649V24.1167C95.447 23.9737 95.4917 23.8545 95.5811 23.7591C95.6705 23.6638 95.7897 23.6161 95.9387 23.6161ZM100.716 29.9635C100.263 29.9635 99.8397 29.88 99.4463 29.7132C99.053 29.5463 98.7073 29.3168 98.4093 29.0248C98.1113 28.7268 97.8759 28.3841 97.703 27.9967C97.5362 27.6093 97.4527 27.1921 97.4527 26.7451C97.4527 26.2981 97.5362 25.8809 97.703 25.4935C97.8759 25.1061 98.1113 24.7664 98.4093 24.4743C98.7073 24.1763 99.053 23.9439 99.4463 23.777C99.8397 23.6101 100.263 23.5267 100.716 23.5267C100.996 23.5267 101.267 23.5565 101.529 23.6161C101.792 23.6757 102.033 23.7651 102.253 23.8843C102.343 23.932 102.408 23.9975 102.45 24.081C102.498 24.1584 102.522 24.2389 102.522 24.3223C102.522 24.4654 102.474 24.5935 102.379 24.7068C102.283 24.82 102.161 24.8766 102.012 24.8766C101.964 24.8766 101.914 24.8707 101.86 24.8587C101.812 24.8468 101.765 24.8289 101.717 24.8051C101.568 24.7395 101.41 24.6889 101.243 24.6531C101.076 24.6174 100.901 24.5995 100.716 24.5995C100.328 24.5995 99.9738 24.6978 99.652 24.8945C99.3361 25.0852 99.0828 25.3445 98.8921 25.6723C98.7073 25.9941 98.6149 26.3517 98.6149 26.7451C98.6149 27.1325 98.7073 27.4901 98.8921 27.8179C99.0828 28.1457 99.3361 28.4079 99.652 28.6046C99.9738 28.7953 100.328 28.8907 100.716 28.8907C100.895 28.8907 101.091 28.8728 101.306 28.837C101.52 28.8013 101.696 28.7536 101.833 28.694L101.753 28.9622V27.4335L101.905 27.5676H100.912C100.758 27.5676 100.626 27.5169 100.519 27.4156C100.418 27.3143 100.367 27.1861 100.367 27.0312C100.367 26.8762 100.418 26.7481 100.519 26.6467C100.626 26.5454 100.758 26.4948 100.912 26.4948H102.379C102.534 26.4948 102.662 26.5484 102.763 26.6557C102.864 26.757 102.915 26.8851 102.915 27.0401V28.9354C102.915 29.0546 102.885 29.1529 102.826 29.2304C102.772 29.3079 102.709 29.3705 102.638 29.4181C102.364 29.585 102.063 29.7191 101.735 29.8204C101.413 29.9158 101.073 29.9635 100.716 29.9635ZM104.554 23.6071C104.637 23.6071 104.724 23.631 104.813 23.6787C104.908 23.7204 104.98 23.777 105.027 23.8485L107.2 27.1921L106.753 27.1742L108.979 23.8485C109.092 23.6876 109.238 23.6071 109.417 23.6071C109.56 23.6071 109.688 23.6578 109.801 23.7591C109.915 23.8604 109.971 23.9916 109.971 24.1525V29.3287C109.971 29.4837 109.921 29.6148 109.819 29.7221C109.718 29.8234 109.584 29.8741 109.417 29.8741C109.25 29.8741 109.113 29.8234 109.006 29.7221C108.904 29.6148 108.854 29.4837 108.854 29.3287V25.118L109.202 25.1985L107.379 27.9788C107.325 28.0444 107.257 28.101 107.173 28.1487C107.096 28.1963 107.015 28.2172 106.932 28.2112C106.854 28.2172 106.774 28.1963 106.69 28.1487C106.613 28.101 106.547 28.0444 106.494 27.9788L104.786 25.2789L105.019 24.8051V29.3287C105.019 29.4837 104.971 29.6148 104.876 29.7221C104.78 29.8234 104.655 29.8741 104.5 29.8741C104.351 29.8741 104.229 29.8234 104.133 29.7221C104.038 29.6148 103.99 29.4837 103.99 29.3287V24.1525C103.99 24.0035 104.044 23.8753 104.151 23.7681C104.265 23.6608 104.399 23.6071 104.554 23.6071ZM117.073 26.7451C117.073 27.1921 116.998 27.6093 116.849 27.9967C116.7 28.3841 116.489 28.7268 116.214 29.0248C115.946 29.3168 115.624 29.5463 115.249 29.7132C114.879 29.88 114.474 29.9635 114.033 29.9635C113.592 29.9635 113.187 29.88 112.817 29.7132C112.448 29.5463 112.126 29.3168 111.852 29.0248C111.584 28.7268 111.375 28.3841 111.226 27.9967C111.077 27.6093 111.002 27.1921 111.002 26.7451C111.002 26.2981 111.077 25.8809 111.226 25.4935C111.375 25.1061 111.584 24.7664 111.852 24.4743C112.126 24.1763 112.448 23.9439 112.817 23.777C113.187 23.6101 113.592 23.5267 114.033 23.5267C114.474 23.5267 114.879 23.6101 115.249 23.777C115.624 23.9439 115.946 24.1763 116.214 24.4743C116.489 24.7664 116.7 25.1061 116.849 25.4935C116.998 25.8809 117.073 26.2981 117.073 26.7451ZM115.91 26.7451C115.91 26.3458 115.83 25.9852 115.669 25.6633C115.508 25.3355 115.288 25.0763 115.008 24.8856C114.727 24.6948 114.403 24.5995 114.033 24.5995C113.664 24.5995 113.339 24.6948 113.059 24.8856C112.778 25.0763 112.558 25.3326 112.397 25.6544C112.242 25.9762 112.165 26.3398 112.165 26.7451C112.165 27.1444 112.242 27.508 112.397 27.8358C112.558 28.1576 112.778 28.4139 113.059 28.6046C113.339 28.7953 113.664 28.8907 114.033 28.8907C114.403 28.8907 114.727 28.7953 115.008 28.6046C115.288 28.4139 115.508 28.1576 115.669 27.8358C115.83 27.508 115.91 27.1444 115.91 26.7451ZM123.856 26.7451C123.856 27.1921 123.782 27.6093 123.633 27.9967C123.484 28.3841 123.272 28.7268 122.998 29.0248C122.73 29.3168 122.408 29.5463 122.032 29.7132C121.663 29.88 121.258 29.9635 120.817 29.9635C120.376 29.9635 119.97 29.88 119.601 29.7132C119.231 29.5463 118.909 29.3168 118.635 29.0248C118.367 28.7268 118.158 28.3841 118.009 27.9967C117.86 27.6093 117.786 27.1921 117.786 26.7451C117.786 26.2981 117.86 25.8809 118.009 25.4935C118.158 25.1061 118.367 24.7664 118.635 24.4743C118.909 24.1763 119.231 23.9439 119.601 23.777C119.97 23.6101 120.376 23.5267 120.817 23.5267C121.258 23.5267 121.663 23.6101 122.032 23.777C122.408 23.9439 122.73 24.1763 122.998 24.4743C123.272 24.7664 123.484 25.1061 123.633 25.4935C123.782 25.8809 123.856 26.2981 123.856 26.7451ZM122.694 26.7451C122.694 26.3458 122.614 25.9852 122.453 25.6633C122.292 25.3355 122.071 25.0763 121.791 24.8856C121.511 24.6948 121.186 24.5995 120.817 24.5995C120.447 24.5995 120.122 24.6948 119.842 24.8856C119.562 25.0763 119.342 25.3326 119.181 25.6544C119.026 25.9762 118.948 26.3398 118.948 26.7451C118.948 27.1444 119.026 27.508 119.181 27.8358C119.342 28.1576 119.562 28.4139 119.842 28.6046C120.122 28.7953 120.447 28.8907 120.817 28.8907C121.186 28.8907 121.511 28.7953 121.791 28.6046C122.071 28.4139 122.292 28.1576 122.453 27.8358C122.614 27.508 122.694 27.1444 122.694 26.7451ZM129.63 23.6161C129.773 23.6161 129.889 23.6638 129.978 23.7591C130.068 23.8545 130.112 23.9737 130.112 24.1167V29.3287C130.112 29.4837 130.059 29.6148 129.951 29.7221C129.85 29.8234 129.722 29.8741 129.567 29.8741C129.49 29.8741 129.409 29.8622 129.326 29.8383C129.248 29.8085 129.189 29.7698 129.147 29.7221L125.633 25.261L125.866 25.118V29.3734C125.866 29.5165 125.818 29.6357 125.723 29.731C125.633 29.8264 125.514 29.8741 125.365 29.8741C125.222 29.8741 125.106 29.8264 125.017 29.731C124.927 29.6357 124.882 29.5165 124.882 29.3734V24.1614C124.882 24.0065 124.933 23.8783 125.034 23.777C125.142 23.6697 125.273 23.6161 125.428 23.6161C125.511 23.6161 125.598 23.634 125.687 23.6697C125.776 23.6995 125.842 23.7472 125.884 23.8128L129.29 28.1576L129.138 28.2649V24.1167C129.138 23.9737 129.183 23.8545 129.272 23.7591C129.361 23.6638 129.481 23.6161 129.63 23.6161Z" fill="#3D2E95"/>
</g>
<path d="M150.722 34.584C150.552 33.954 150.442 33.1441 150.962 32.7641C151.192 32.5941 151.502 32.564 151.792 32.544C154.042 32.394 156.322 32.804 158.382 33.724C158.592 35.574 157.352 37.234 156.182 38.684C152.542 43.204 151.522 37.574 150.712 34.594L150.722 34.584ZM160.492 44.524C162.342 44.314 164.392 43.994 165.542 42.534C164.722 40.434 163.382 38.544 161.672 37.064C161.452 36.874 161.212 36.684 160.922 36.644C160.272 36.544 159.792 37.204 159.472 37.774C157.952 40.464 154.722 45.184 160.492 44.524ZM148.642 46.844C146.922 47.554 145.042 48.434 144.342 50.154C145.712 51.944 147.522 53.394 149.572 54.334C149.832 54.454 150.122 54.574 150.412 54.534C151.062 54.444 151.342 53.684 151.502 53.054C152.222 50.054 154.012 44.624 148.652 46.844H148.642ZM150.332 40.554C149.372 38.954 148.242 37.224 146.432 36.774C144.862 38.394 143.692 40.394 143.052 42.554C142.972 42.834 142.892 43.134 142.972 43.414C143.152 44.044 143.952 44.214 144.602 44.274C147.682 44.554 153.312 45.534 150.332 40.554ZM155.222 50.364C155.812 52.124 156.542 54.064 158.212 54.894C160.092 53.654 161.672 51.954 162.762 49.984C162.902 49.734 163.042 49.454 163.022 49.164C162.982 48.514 162.242 48.174 161.622 47.974C158.682 47.034 153.392 44.864 155.222 50.364Z" fill="#FCA3D1"/>
<path d="M36.3816 34.9241C36.2116 34.2941 36.1016 33.4841 36.6216 33.1041C36.8516 32.9341 37.1616 32.9041 37.4516 32.8841C39.7016 32.7341 41.9816 33.1441 44.0416 34.0641C44.2516 35.9141 43.0116 37.5741 41.8416 39.0241C38.2016 43.5441 37.1816 37.9141 36.3716 34.9341L36.3816 34.9241ZM46.1416 44.8641C47.9916 44.6541 50.0416 44.3341 51.1916 42.8741C50.3716 40.7741 49.0316 38.8841 47.3216 37.4041C47.1016 37.2141 46.8616 37.0241 46.5716 36.9841C45.9216 36.8841 45.4416 37.5441 45.1216 38.1141C43.6016 40.8041 40.3716 45.5241 46.1416 44.8641ZM34.3016 47.1941C32.5816 47.9041 30.7016 48.7841 30.0016 50.5041C31.3716 52.2941 33.1816 53.7441 35.2316 54.6841C35.4916 54.8041 35.7816 54.9241 36.0716 54.8841C36.7216 54.7941 37.0016 54.0341 37.1616 53.4041C37.8816 50.4041 39.6716 44.9741 34.3116 47.1941H34.3016ZM35.9816 40.9041C35.0216 39.3041 33.8916 37.5741 32.0816 37.1241C30.5116 38.7441 29.3416 40.7441 28.7016 42.9041C28.6216 43.1841 28.5416 43.4841 28.6216 43.7641C28.8016 44.3941 29.6016 44.5641 30.2516 44.6241C33.3316 44.9041 38.9616 45.8841 35.9816 40.9041ZM40.8716 50.7041C41.4616 52.4641 42.1916 54.4041 43.8616 55.2341C45.7416 53.9941 47.3216 52.2941 48.4116 50.3241C48.5516 50.0741 48.6916 49.7941 48.6716 49.5041C48.6316 48.8541 47.8916 48.5141 47.2716 48.3141C44.3316 47.3741 39.0416 45.2041 40.8716 50.7041Z" fill="#FCA3D1"/>
</svg>
