<?xml version="1.0" encoding="UTF-8"?>
<svg xmlns="http://www.w3.org/2000/svg" viewBox="0 35 195 195">
  <defs>
    <style>
      .cls-1 {
        isolation: isolate;
      }

      .cls-2 {
        fill: #f7f0e6;
      }

      .cls-3 {
        fill: #fff;
        mix-blend-mode: screen;
        opacity: .4;
      }

      .cls-4 {
        fill: #8be8cb;
      }
    </style>
  </defs>
  <g class="cls-1">
    <g id="_레이어_2" data-name="레이어 2">
      <g id="_레이어_1-2" data-name="레이어 1">
        <g>
          <g>
            <path class="cls-2" d="M189.14,149.97c-1.82,8.8-4.8,17.08-8.73,24.69-5.13,9.89-11.88,18.66-19.85,26.04-8.28,7.67-17.87,13.83-28.29,18.17-10.03,4.19-20.82,6.69-31.96,7.24-7.89.38-15.95-.21-24.05-1.88-3.16-.65-6.25-1.45-9.28-2.39-10.74-3.36-20.54-8.5-29.12-15.02-9.04-6.86-16.73-15.24-22.77-24.7-5.9-9.21-10.22-19.42-12.68-30.22-2.46-10.76-3.08-22.09-1.57-33.56.3-2.33.69-4.66,1.18-7,1.79-8.66,4.69-16.8,8.54-24.3,5.22-10.19,12.15-19.2,20.37-26.73,8.1-7.43,17.43-13.42,27.56-17.7,10.27-4.33,21.34-6.9,32.79-7.41,7.76-.35,15.68.25,23.64,1.89,3.01.62,5.96,1.38,8.84,2.27,11.06,3.4,21.11,8.68,29.9,15.4,8.77,6.73,16.27,14.89,22.19,24.07,6.1,9.42,10.53,19.92,13.02,31.01,2.33,10.5,2.94,21.53,1.53,32.71-.32,2.47-.73,4.95-1.24,7.43Z"/>
            <g>
              <path class="cls-4" d="M82,77.07c.97,13.26,4.87,26.98,10.72,40.09-20.56-20.46-33.56-46.56-34.25-74.56,10.27-4.33,21.34-6.9,32.79-7.41-1.01,1.72-1.96,3.49-2.84,5.3-5,10.71-7.42,23.3-6.42,36.59Z"/>
              <path class="cls-4" d="M123.74,39.35c11.06,3.4,21.11,8.68,29.9,15.4-1.88.66-3.74,1.41-5.59,2.24-10.72,4.99-20.66,13.07-28.44,23.9-7.78,10.78-13.62,23.8-17.55,37.61-2.6-28.88,4.22-57.24,21.68-79.15Z"/>
              <path class="cls-4" d="M215.03,55.77s-.13.02-.19.03l.02-.13s.03.02.04.02l.13.08Z"/>
              <path class="cls-4" d="M175.83,78.82c6.1,9.42,10.53,19.92,13.02,31.01-1.87-.7-3.79-1.33-5.73-1.88-11.41-3.06-24.23-3.26-37.15.03-12.89,3.27-25.73,9.49-37.62,17.53,16.58-23.8,40.02-41.13,67.47-46.69Z"/>
              <path class="cls-4" d="M190.38,142.54c-.32,2.47-.73,4.95-1.24,7.43-1.82,8.8-4.8,17.08-8.73,24.69-.98-1.74-2.05-3.45-3.18-5.12-6.77-9.68-16.46-18.07-28.47-23.84-11.97-5.79-25.81-9.28-40.08-10.77,28-7.57,57.1-5.78,81.71,7.61Z"/>
              <path class="cls-4" d="M190.11,235.1v.06s-.06.14-.06.14c-.02-.02-.05-.12-.07-.19h.14Z"/>
              <path class="cls-4" d="M100.75,271.36l.09.08-.04.03-.12.07s.05-.11.07-.18Z"/>
              <path class="cls-4" d="M160.55,200.7c-8.28,7.67-17.87,13.83-28.29,18.17.37-1.96.65-3.94.86-5.94,1.04-11.77-.99-24.44-6.48-36.58-5.45-12.12-13.81-23.69-23.79-34,26.32,12.19,47.45,32.26,57.7,58.35Z"/>
              <path class="cls-4" d="M9.08,241.78l.02.13-.19-.04s.11-.06.16-.09Z"/>
              <path class="cls-4" d="M100.3,226.11c-7.89.38-15.95-.21-24.05-1.88-3.16-.65-6.25-1.45-9.28-2.39,1.53-1.27,3.03-2.61,4.48-4.02,8.36-8.34,14.94-19.35,18.54-32.18,3.62-12.8,4.65-27.03,3.65-41.34,12.33,26.27,15.6,55.25,6.67,81.81Z"/>
              <path class="cls-4" d="M85.31,139.85c-7.44,28.05-23.56,52.35-47.47,66.96-9.04-6.86-16.73-15.24-22.77-24.7,1.98.02,3.99-.04,5.98-.19,11.78-1.02,23.88-5.22,34.89-12.73,11-7.47,20.94-17.71,29.36-29.33Z"/>
              <path class="cls-4" d="M81.78,131.11c-23.73,16.7-51.68,24.97-79.4,20.78-2.46-10.76-3.08-22.09-1.57-33.56,1.52,1.29,3.09,2.53,4.71,3.71,9.68,6.78,21.66,11.35,34.92,12.68,13.23,1.34,27.43-.11,41.34-3.6Z"/>
              <path class="cls-4" d="M42.57.19l-.13-.04s.02-.03.03-.04l.1-.11s0,.13,0,.19Z"/>
              <path class="cls-4" d="M84.72,122.15c-28.91-2.47-55.66-14.12-74.18-35.12,5.22-10.19,12.15-19.2,20.37-26.73.33,1.97.74,3.93,1.23,5.88,3.05,11.42,9.29,22.61,18.59,32.15,9.27,9.53,21.09,17.55,33.99,23.82Z"/>
            </g>
          </g>
          <path class="cls-3" d="M108.65,55.58c-.44.89,2.85,1.76,7.71,3.31,1.23.36,2.51.85,3.9,1.32.69.24,1.37.53,2.09.8.36.14.72.28,1.09.42.35.16.71.31,1.08.47,2.93,1.24,5.96,2.75,8.85,4.57,2.9,1.8,5.67,3.88,8.17,6.16,2.5,2.27,4.71,4.74,6.58,7.23,3.74,5,6.02,10.13,7.38,13.68,1.36,3.55,2.43,7.05,3.27,10.33.84,3.28,1.46,6.33,2.05,8.92,1.1,5.19,2.05,8.59,4.03,8.15,1.86-.41,4.45-4.75,5.93-11.42.69-3.31,1.09-7.18.89-11.25-.2-4.07-1.01-8.33-2.58-12.4-1.55-4.07-4.59-9.73-9.5-14.86-2.45-2.56-5.35-5.01-8.57-7.15-3.22-2.14-6.78-3.98-10.46-5.42-3.67-1.46-7.48-2.51-11.13-3.19-.45-.09-.9-.17-1.35-.26-.46-.07-.91-.13-1.35-.19-.89-.12-1.75-.26-2.6-.34-1.73-.15-3.32-.3-4.85-.31-6.07-.14-10.22.63-10.62,1.44Z"/>
        </g>
      </g>
    </g>
  </g>
</svg>