<?xml version="1.0" encoding="UTF-8"?>
<svg xmlns="http://www.w3.org/2000/svg" xmlns:xlink="http://www.w3.org/1999/xlink" viewBox="0 0 198.21 198.2">
  <defs>
    <style>
      .cls-1 {
        mix-blend-mode: multiply;
        opacity: .05;
      }

      .cls-2 {
        fill: url(#linear-gradient-5);
      }

      .cls-3 {
        fill: url(#linear-gradient-4);
      }

      .cls-4 {
        fill: url(#linear-gradient-3);
      }

      .cls-5 {
        fill: url(#linear-gradient-2);
      }

      .cls-6 {
        fill: url(#linear-gradient);
      }

      .cls-7 {
        isolation: isolate;
      }

      .cls-8 {
        fill: #fff;
        mix-blend-mode: screen;
        opacity: .3;
      }
    </style>
    <linearGradient id="linear-gradient" x1="-58.15" y1="132.55" x2="49.6" y2="289.37" gradientTransform="translate(122.97 -110.54) rotate(5.33)" gradientUnits="userSpaceOnUse">
      <stop offset="0" stop-color="#fff0b5"/>
      <stop offset=".4" stop-color="#ffefb1"/>
      <stop offset=".74" stop-color="#ffeda7"/>
      <stop offset="1" stop-color="#ffeb99"/>
    </linearGradient>
    <linearGradient id="linear-gradient-2" x1="10.04" y1="109.94" x2="-10.16" y2="207.12" gradientTransform="translate(122.97 -110.54) rotate(5.33)" gradientUnits="userSpaceOnUse">
      <stop offset="0" stop-color="#ffb1da"/>
      <stop offset="1" stop-color="#ff94cc"/>
    </linearGradient>
    <linearGradient id="linear-gradient-3" x1="-103.38" y1="193.72" x2="5.06" y2="193.72" xlink:href="#linear-gradient-2"/>
    <linearGradient id="linear-gradient-4" x1="2.02" y1="215.32" x2="-35.5" y2="296.14" gradientTransform="translate(122.97 -110.54) rotate(5.33)" gradientUnits="userSpaceOnUse">
      <stop offset="0" stop-color="#ff94cc"/>
      <stop offset="1" stop-color="#ffb1da"/>
    </linearGradient>
    <linearGradient id="linear-gradient-5" x1="8.23" y1="209.83" x2="87.12" y2="236.76" xlink:href="#linear-gradient-4"/>
  </defs>
  <g class="cls-7">
    <g id="_레이어_2" data-name="레이어 2">
      <g id="_레이어_1-2" data-name="레이어 1">
        <g>
          <g>
            <g>
              <path class="cls-6" d="M197.78,108.31c-2.16,23.18-12.14,43.74-27.09,59.33-18.75,19.57-45.33,31.3-74.11,30.53-2.21-.05-4.45-.19-6.68-.39-26.2-2.44-49.05-14.87-65.16-33.17-12.24-13.89-20.58-31.17-23.55-50.04-1.25-7.98-1.54-16.25-.76-24.66,2.05-21.98,11.13-41.61,24.82-56.87,12.4-13.84,28.6-24.1,46.76-29.26C83.48.5,95.73-.74,108.31.44c20.23,1.89,38.46,9.73,53.14,21.63,21.56,17.48,35.44,43.72,36.68,72.72.18,4.45.08,8.96-.35,13.52Z"/>
              <path class="cls-1" d="M23.45,157.6c-2.68-7.31-4.52-15.07-5.36-23.18-2.2-21.17,2.7-41.44,12.77-58.46,9.13-15.42,22.51-28.17,38.72-36.47,10.22-5.24,21.58-8.71,33.7-9.97,19.49-2.02,38.21,1.96,54.32,10.46,15.65,8.25,28.85,20.75,37.91,36.13-5.12-21.45-17.26-40.41-34.08-54.04C146.78,10.16,128.54,2.32,108.31.44c-12.58-1.17-24.84.06-36.3,3.32-18.17,5.16-34.36,15.42-46.76,29.26C11.57,48.28,2.49,67.91.44,89.89c-.79,8.42-.49,16.68.76,24.66,2.96,18.87,11.31,36.15,23.55,50.04,1.11,1.26,2.26,2.49,3.43,3.7-1.77-3.45-3.36-7.01-4.72-10.7Z"/>
            </g>
            <g>
              <path class="cls-5" d="M161.04,29.36c-3.05,32.64-21.58,60.08-47.67,75.77-.86.51-1.73,1.01-2.6,1.5-1.35.76-2.73,1.49-4.12,2.18-.35.18-.7.36-1.06.52-.48.24-.97.47-1.45.7-1.99.92-4,1.78-6.05,2.58.61-1.59,1.17-3.2,1.7-4.83.59-1.84,1.14-3.7,1.62-5.59.53-2.02.99-4.07,1.38-6.14.61-3.15,1.07-6.36,1.38-9.61,3.01-32.31-9.84-62.44-32.15-82.67C83.48.5,95.73-.74,108.31.44c20.23,1.89,38.46,9.73,53.14,21.63-.05,2.42-.18,4.85-.41,7.29Z"/>
              <path class="cls-4" d="M107.3,111.83s-.07-.04-.11-.07c-.25-.14-.51-.3-.76-.44-.76-.45-1.52-.88-2.29-1.3-1.42-.79-2.88-1.54-4.35-2.26-2.63-1.28-5.32-2.45-8.1-3.5-2.95-1.13-6-2.13-9.11-2.98-28.89-7.92-58.3-2.2-81.38,13.26-1.25-7.98-1.54-16.25-.76-24.66,2.05-21.98,11.13-41.61,24.82-56.87,3.66.57,7.33,1.35,10.99,2.36,31.81,8.72,55.73,31.99,66.55,60.66.71,1.86,1.35,3.75,1.95,5.66,0,.03.01.05.02.09.72,2.31,1.34,4.65,1.89,7.02.22.94.42,1.89.61,2.84,0,.06.02.12.03.18Z"/>
              <path class="cls-3" d="M115.35,100.91c-1.07,1.24-2.12,2.51-3.14,3.81-.49.62-.97,1.26-1.44,1.91-1.22,1.63-2.39,3.3-3.5,5.02-.03.04-.05.07-.07.11-.12.17-.23.35-.34.53-2.26,3.53-4.32,7.25-6.17,11.14-11.54,24.38-12.27,51.1-4.1,74.73-2.21-.05-4.45-.19-6.68-.39-26.2-2.44-49.05-14.87-65.16-33.17.89-2.35,1.89-4.68,2.99-6.99,12.96-27.38,36.84-46.06,63.96-53.34,3.2-.86,6.44-1.55,9.73-2.09.51-.09,1.02-.17,1.53-.24.56-.08,1.11-.16,1.67-.23.04,0,.08-.02.12-.02,3.51-.45,7.05-.72,10.61-.79Z"/>
              <path class="cls-2" d="M197.78,108.31c-2.16,23.18-12.14,43.74-27.09,59.33-29.2-8.16-52.16-28.99-63.84-55.34-.14-.32-.28-.64-.42-.97-.29-.66-.56-1.33-.83-2-.98-2.42-1.87-4.88-2.65-7.38-.12-.38-.24-.77-.36-1.16.67.32,1.35.63,2.03.93.05.02.1.05.15.06,2.42,1.07,4.91,2.06,7.45,2.94.38.14.77.27,1.16.4,4.77,1.6,9.74,2.86,14.86,3.73,25.24,4.32,49.87-1.32,69.9-14.07.18,4.45.08,8.96-.35,13.52Z"/>
            </g>
          </g>
          <path class="cls-8" d="M142.02,43.65c-.7.65,1.97,2.56,5.83,5.63.99.75,1.97,1.63,3.07,2.53.54.45,1.06.95,1.61,1.44.28.25.56.49.84.75.27.26.54.53.81.79,2.22,2.12,4.45,4.52,6.43,7.15,2,2.62,3.8,5.45,5.27,8.36,1.48,2.91,2.63,5.89,3.47,8.78,1.67,5.79,1.97,11.21,1.99,14.88.02,3.67-.22,7.2-.58,10.45-.36,3.25-.85,6.22-1.19,8.76-.78,5.06-1.08,8.46.85,8.73,1.82.27,5.65-2.76,9.27-8.29,1.75-2.75,3.44-6.11,4.65-9.85,1.21-3.74,1.93-7.87,1.91-12.08-.01-4.21-.82-10.36-3.5-16.68-1.34-3.16-3.12-6.35-5.3-9.39-2.18-3.04-4.76-5.91-7.59-8.48-2.81-2.57-5.9-4.82-8.97-6.68-.38-.23-.76-.47-1.13-.69-.39-.22-.77-.43-1.15-.64-.77-.41-1.49-.83-2.24-1.19-1.51-.72-2.89-1.41-4.28-1.94-5.43-2.2-9.45-2.93-10.08-2.33Z"/>
        </g>
      </g>
    </g>
  </g>
</svg>