<?xml version="1.0" encoding="UTF-8"?>
<svg xmlns="http://www.w3.org/2000/svg" xmlns:xlink="http://www.w3.org/1999/xlink" viewBox="0 0 129.87 99.02">
  <defs>
    <style>
      .cls-1 {
        fill: url(#radial-gradient);
      }

      .cls-1, .cls-2 {
        mix-blend-mode: multiply;
      }

      .cls-1, .cls-3 {
        opacity: .3;
      }

      .cls-2 {
        opacity: .05;
      }

      .cls-4 {
        fill: url(#linear-gradient-7);
      }

      .cls-5 {
        fill: url(#linear-gradient-5);
      }

      .cls-6 {
        fill: url(#linear-gradient-6);
      }

      .cls-7 {
        fill: url(#linear-gradient-4);
      }

      .cls-8 {
        fill: url(#linear-gradient-3);
      }

      .cls-9 {
        fill: url(#linear-gradient-2);
      }

      .cls-10 {
        fill: url(#linear-gradient);
      }

      .cls-11 {
        isolation: isolate;
      }

      .cls-3 {
        fill: #fff;
        mix-blend-mode: screen;
      }
    </style>
    <radialGradient id="radial-gradient" cx="51.39" cy="56.1" fx="51.39" fy="56.1" r="42.92" gradientUnits="userSpaceOnUse">
      <stop offset="0" stop-color="#b2688f"/>
      <stop offset="1" stop-color="#fff"/>
    </radialGradient>
    <linearGradient id="linear-gradient" x1="-1045.68" y1="3427" x2="-1009.47" y2="3427" gradientTransform="translate(1241.61 -3334.66) rotate(3.31)" gradientUnits="userSpaceOnUse">
      <stop offset="0" stop-color="#ffefac"/>
      <stop offset="1" stop-color="#ffeb99"/>
    </linearGradient>
    <linearGradient id="linear-gradient-2" x1="-950.18" y1="3427.87" x2="-915.43" y2="3427.87" xlink:href="#linear-gradient"/>
    <linearGradient id="linear-gradient-3" x1="-1007.63" y1="3407.84" x2="-952.25" y2="3457.69" xlink:href="#linear-gradient"/>
    <linearGradient id="linear-gradient-4" x1="27.21" y1="29.02" x2="75.41" y2="29.02" gradientUnits="userSpaceOnUse">
      <stop offset="0" stop-color="#ffb1da"/>
      <stop offset=".04" stop-color="#ffaed8"/>
      <stop offset=".27" stop-color="#ff9fd1"/>
      <stop offset=".56" stop-color="#ff96cd"/>
      <stop offset="1" stop-color="#ff94cc"/>
    </linearGradient>
    <linearGradient id="linear-gradient-5" x1="45.82" y1="36.87" x2="100.73" y2="36.87" xlink:href="#linear-gradient-4"/>
    <linearGradient id="linear-gradient-6" x1="71.52" y1="50.3" x2="107.03" y2="50.3" xlink:href="#linear-gradient-4"/>
    <linearGradient id="linear-gradient-7" x1="22.11" y1="15.97" x2="46.06" y2="15.97" xlink:href="#linear-gradient-4"/>
  </defs>
  <g class="cls-11">
    <g id="_레이어_2" data-name="레이어 2">
      <g id="_레이어_1-2" data-name="레이어 1">
        <g>
          <circle class="cls-1" cx="51.39" cy="56.1" r="42.92"/>
          <g>
            <g>
              <g>
                <g>
                  <path class="cls-10" d="M23.81,43.15c-2.93,1.35-5.77,2.38-7.64,2.81-4.65,1.07-9.21-.26-11.42-3.03-.54-.67-.93-1.43-1.16-2.26-.69-2.51.34-5.12,2.49-7.11-.87-.26-1.66-.65-2.38-1.11-.09-.06-.17-.11-.25-.17C1.44,30.85.15,28.69.01,26.31c-.03-.53,0-1.08.08-1.63.43-2.6,2.16-4.74,4.5-5.95-1.2-2.54-1.1-5.37.55-7.66,2.27-3.12,6.78-4.26,11.04-3.1.59.15,1.16.36,1.73.6.47.2.93.44,1.38.7.71.42,1.56,1.01,2.49,1.73,1.06.82,2.21,1.81,3.36,2.89,1.13,1.06,2.26,2.21,3.31,3.39,3.4,3.83,5.88,7.93,4.38,10-.84,1.16-2.84,1.55-5.36,1.45-.19.42-.49.82-.89,1.19,4.65.38,8.61,1.39,9.15,3.38.79,2.88-5.79,7.05-11.92,9.86Z"/>
                  <path class="cls-2" d="M4.99,13.86c2.27-3.13,6.78-4.26,11.04-3.1.59.15,1.16.36,1.73.6.47.2.93.44,1.38.7.71.42,1.56,1.01,2.49,1.72,1.06.82,2.21,1.81,3.36,2.89,1.13,1.06,2.26,2.21,3.31,3.39,2.19,2.47,3.99,5.04,4.61,7.11,1.36-2.09-1.09-6.13-4.44-9.9-1.05-1.18-2.17-2.33-3.31-3.39-1.15-1.08-2.31-2.07-3.36-2.89-.92-.72-1.77-1.3-2.49-1.73-.45-.26-.91-.5-1.38-.7-.57-.24-1.15-.45-1.73-.6-4.26-1.17-8.77-.03-11.04,3.1-1.13,1.56-1.53,3.37-1.29,5.18.22-.83.59-1.64,1.13-2.39Z"/>
                  <g class="cls-2">
                    <path d="M20.41,18.97c2.03,1.4,6.17,5.18,5.64,5.95-.53.76-5.52-1.78-7.56-3.18-2.03-1.4-3.25-3.16-2.72-3.93.53-.76,2.6-.24,4.63,1.16Z"/>
                    <path d="M18.06,23.8c2.4.59,7.61,2.65,7.39,3.55s-5.79.31-8.19-.28-4.16-1.8-3.94-2.7c.22-.9,2.35-1.15,4.74-.56Z"/>
                    <path d="M17.85,32.05c2.11-1.28,7.25-3.52,7.73-2.73.48.79-3.87,4.32-5.99,5.6-2.11,1.28-4.21,1.68-4.7.88-.48-.79.84-2.48,2.95-3.76Z"/>
                  </g>
                </g>
                <g>
                  <path class="cls-9" d="M109.2,16c3.12-.83,6.09-1.37,8.01-1.48,4.77-.27,9.04,1.81,10.75,4.91.41.75.68,1.57.76,2.42.26,2.59-1.2,4.99-3.66,6.59.81.41,1.53.92,2.16,1.5.08.07.15.14.22.21,1.74,1.74,2.64,4.09,2.38,6.45-.06.53-.18,1.06-.36,1.59-.86,2.49-2.93,4.3-5.44,5.11.75,2.71.18,5.48-1.83,7.45-2.76,2.7-7.4,3.06-11.4,1.19-.55-.25-1.09-.55-1.6-.89-.43-.28-.84-.59-1.24-.92-.63-.54-1.37-1.26-2.16-2.12-.9-.99-1.87-2.16-2.83-3.42-.94-1.23-1.85-2.56-2.69-3.9-2.71-4.35-4.46-8.81-2.63-10.59,1.02-1,3.06-1.05,5.53-.52.25-.38.62-.72,1.08-1.02-4.52-1.16-8.25-2.83-8.45-4.87-.29-2.97,6.9-5.97,13.42-7.71Z"/>
                  <path class="cls-2" d="M122.81,48.04c-2.76,2.7-7.4,3.06-11.4,1.19-.55-.25-1.09-.55-1.6-.89-.43-.28-.84-.59-1.24-.92-.63-.54-1.37-1.26-2.16-2.12-.9-.99-1.87-2.16-2.83-3.42-.94-1.23-1.85-2.56-2.69-3.9-1.74-2.8-3.09-5.64-3.34-7.79-1.7,1.83.04,6.22,2.71,10.51.83,1.34,1.75,2.66,2.69,3.9.95,1.26,1.92,2.43,2.83,3.42.79.86,1.53,1.58,2.16,2.12.4.33.81.64,1.24.92.52.34,1.05.64,1.6.89,4,1.87,8.64,1.51,11.4-1.19,1.38-1.35,2.08-3.07,2.14-4.88-.35.79-.86,1.52-1.51,2.16Z"/>
                  <g class="cls-2">
                    <path d="M108.48,40.41c-1.77-1.73-5.21-6.15-4.56-6.81.65-.66,5.15,2.68,6.91,4.41,1.77,1.73,2.67,3.67,2.02,4.33-.65.66-2.61-.2-4.37-1.93Z"/>
                    <path d="M111.61,36.04c-2.26-.99-7.06-3.89-6.69-4.74.37-.85,5.76.68,8.03,1.66,2.26.99,3.8,2.48,3.43,3.33-.37.85-2.51.74-4.77-.24Z"/>
                    <path d="M111.27,28.88c-2.3.91-7.74,2.25-8.08,1.39-.34-.86,4.55-3.6,6.85-4.51,2.3-.91,4.44-.94,4.78-.08.34.86-1.24,2.3-3.54,3.21Z"/>
                  </g>
                </g>
              </g>
              <g>
                <path class="cls-8" d="M104.15,47.34c-.63,1.17-1.37,2.29-2.21,3.35l-7.93,10.08c-4.8,6.1-12.28,9.47-20.03,9.02l-22.98-1.33c-1.77-.1-3.51-.4-5.18-.89-5.44-1.56-10.21-5.04-13.35-9.87-.11-.17-.22-.34-.33-.51l-4.93-8.02-1.78-2.9c-.62-1.01-1.16-2.05-1.61-3.12-1.5-3.5-2.11-7.27-1.85-10.98.03-.49.08-.97.15-1.46.54-4.13,2.18-8.14,4.88-11.57l1.46-1.86,6.47-8.21c2.91-3.7,6.8-6.39,11.14-7.83.68-.23,1.36-.42,2.06-.59,2.21-.52,4.51-.73,6.83-.6l22.98,1.33c3.84.22,7.51,1.37,10.73,3.28,3.27,1.94,6.08,4.66,8.13,8l3.94,6.4,1.94,3.16.84,1.36c1.39,2.27,2.37,4.7,2.94,7.21h0c1.26,5.58.47,11.48-2.3,16.56Z"/>
                <g>
                  <path class="cls-7" d="M75.41,1.22c-6.83,23.37-22.23,43.77-42.94,56.47-.11-.17-.22-.34-.33-.51l-4.93-8.02C43.75,37.52,55.37,19.74,60.17.34l15.24.88Z"/>
                  <path class="cls-5" d="M100.73,19.04c-7.06,20.37-20.7,38.16-38.64,50.06l-11.09-.64c-1.77-.1-3.51-.4-5.18-.88,2.58-1.44,5.07-3.01,7.47-4.7,19.44-13.37,32.24-35.15,35.37-58.23,3.28,1.94,6.08,4.66,8.13,8l3.94,6.4Z"/>
                  <path class="cls-6" d="M104.15,47.34c-.63,1.17-1.37,2.29-2.21,3.35l-7.93,10.08c-4.8,6.1-12.28,9.47-20.03,9.02l-2.46-.14c14.49-9.34,26.73-23.01,34.93-38.87,1.26,5.57.47,11.47-2.3,16.56Z"/>
                </g>
                <path class="cls-4" d="M46.06,1.23c-6.01,11.25-14.15,21.31-23.95,29.48.54-4.13,2.18-8.14,4.88-11.57l1.46-1.86,6.47-8.21c2.91-3.7,6.8-6.39,11.14-7.83Z"/>
              </g>
            </g>
            <path class="cls-3" d="M63.84,8.88c-.04.4,1.33.24,3.4.12.52-.05,1.07-.05,1.67-.08.3-.01.6,0,.91,0,.15,0,.31,0,.47,0,.16,0,.32.01.48.02,1.29.04,2.66.16,4.02.42,1.36.25,2.71.63,3.99,1.12,1.28.49,2.47,1.1,3.55,1.76,2.15,1.34,3.77,2.94,4.8,4.08,1.04,1.14,1.96,2.31,2.76,3.42.8,1.11,1.48,2.18,2.09,3.06,1.18,1.8,2.04,2.94,2.72,2.48.64-.43.98-2.45.56-5.19-.23-1.35-.64-2.87-1.32-4.38-.67-1.51-1.61-3-2.8-4.3-1.19-1.31-3.17-3-5.78-4.21-1.3-.61-2.76-1.1-4.29-1.44-1.53-.33-3.15-.5-4.75-.51-1.6-.01-3.19.16-4.67.44-.18.03-.37.07-.55.1-.18.04-.36.08-.54.13-.35.09-.7.16-1.03.26-.67.2-1.3.37-1.88.6-2.31.84-3.77,1.74-3.8,2.11Z"/>
          </g>
        </g>
      </g>
    </g>
  </g>
</svg>