<?xml version="1.0" encoding="UTF-8"?>
<svg xmlns="http://www.w3.org/2000/svg" viewBox="0 0 195.87 191.76">
  <defs>
    <style>
      .cls-1 {
        mix-blend-mode: overlay;
        opacity: .2;
      }

      .cls-1, .cls-2, .cls-3, .cls-4, .cls-5, .cls-6 {
        fill: #ba9fdd;
      }

      .cls-2 {
        opacity: .05;
      }

      .cls-2, .cls-3 {
        mix-blend-mode: multiply;
      }

      .cls-3, .cls-6 {
        opacity: .1;
      }

      .cls-7 {
        isolation: isolate;
      }

      .cls-5 {
        opacity: .3;
      }

      .cls-5, .cls-6 {
        mix-blend-mode: screen;
      }
    </style>
  </defs>
  <g class="cls-7">
    <g id="_레이어_2" data-name="레이어 2">
      <g id="_레이어_1-2" data-name="레이어 1">
        <g>
          <g>
            <g>
              <g>
                <g>
                  <g>
                    <polygon class="cls-4" points="8.87 54.17 13.88 54.23 10.04 58.38 8.87 54.17"/>
                    <polygon class="cls-4" points="191.55 112.62 195.87 115.81 188.18 118.02 191.55 112.62"/>
                  </g>
                  <g>
                    <circle class="cls-4" cx="98.53" cy="95.88" r="95.86" transform="translate(-38.94 97.75) rotate(-45)"/>
                    <path class="cls-6" d="M136.01,12.81c-.37-.14-.74-.28-1.12-.41C84.29-5.96,28.03,21.35,11.15,72.47c-.14.42-.27.84-.41,1.26-6.89,21.85,18.6,39.45,36.5,25.15,26.49-21.16,56.38-37.66,88.29-48.79,17.53-6.12,17.85-30.73.48-37.27Z"/>
                  </g>
                </g>
                <circle class="cls-1" cx="98.64" cy="95.92" r="90.65" transform="translate(-38.93 97.84) rotate(-45)"/>
                <path class="cls-5" d="M34.9,93.68h0c-9.03,26.44,4.46,55.2,29.98,63.91l22.54,7.69c25.51,8.71,53.77-5.8,62.8-32.25h0c.99-2.91-.48-6.05-3.29-7.01l-34.82-13.89c-11.4-4.55-23.02-8.51-34.82-11.87l-35.51-10.12c-2.81-.96-5.89.62-6.89,3.54Z"/>
              </g>
              <g>
                <path class="cls-3" d="M175.63,152.54c-60.29-10.22-118.48-29.11-173-56.11h0c-.64-12.27,1.93-24.1,7.42-33.96.48-.86.95-1.71,1.43-2.57,56.24,28.45,116.42,48.27,178.79,58.83-.22.97-.43,1.93-.65,2.9-2.4,10.78-7.18,21.31-14,30.91h0Z"/>
                <g>
                  <path class="cls-4" d="M181.1,149.57C118.18,138.46,57.32,118.66.16,90.76H.16c-.84-12.34,1.67-24.19,7.25-34.02.48-.85.97-1.71,1.45-2.56,58.96,29.38,121.9,50.14,187.01,61.64-.21.97-.42,1.94-.63,2.9-2.35,10.8-7.18,21.32-14.14,30.86h0Z"/>
                  <path class="cls-6" d="M167.25,144.28c-53.33-8.97-104.78-25.66-152.97-49.59h0c-.54-10.93,1.76-21.47,6.64-30.27.42-.76.85-1.53,1.27-2.29,49.7,25.22,102.91,42.73,158.09,52-.19.86-.39,1.72-.58,2.58-2.15,9.61-6.4,19-12.46,27.56h0Z"/>
                </g>
              </g>
            </g>
            <path class="cls-5" d="M34.63,54.04h0c9.32-27.19,42.28-40.75,73.24-30.13l27.36,9.38c30.96,10.62,48.66,41.55,39.34,68.74h0c-1.03,2.99-4.62,4.47-8.03,3.3l-43.63-12.89c-14.28-4.22-28.38-9.06-42.24-14.5l-41.72-16.37c-3.41-1.17-5.34-4.54-4.31-7.54Z"/>
          </g>
          <path class="cls-5" d="M8.7,54.65c59.58,27.75,122.62,48.48,187.01,61.64-65.08-9.69-128.92-30.72-187.01-61.64h0Z"/>
          <path class="cls-2" d="M180.94,150.06C118.06,140.73,56.33,120.71,0,91.24c57.8,26.27,118.74,46.06,180.94,58.82h0Z"/>
        </g>
      </g>
    </g>
  </g>
</svg>