<?xml version="1.0" encoding="UTF-8"?>
<svg id="_레이어_2" data-name="레이어 2" xmlns="http://www.w3.org/2000/svg" viewBox="0 0 55.8 57.14">
  <defs>
    <style>
      .cls-1 {
        fill: #705246;
      }

      .cls-2 {
        fill: #f4bbb8;
      }

      .cls-3 {
        fill: #724d41;
      }

      .cls-3, .cls-4 {
        fill-rule: evenodd;
      }

      .cls-4 {
        fill: #7c5950;
      }
    </style>
  </defs>
  <g id="chocolates_box" data-name="chocolates box">
    <g>
      <path class="cls-3" d="M.04,30.8C-.74,15.09,10.01.42,27.69.02c14.05-.53,27.23,11.47,28.07,27.8.85,15.54-12.86,28.99-28.07,29.32C13.09,57.44.78,45.71.04,30.8Z"/>
      <path class="cls-4" d="M3.3,23.63C2.62,11.58,12.11.33,27.71.01c12.41-.41,24.04,8.8,24.78,21.33.75,11.92-11.35,22.24-24.78,22.49-12.88.23-23.76-8.76-24.41-20.2Z"/>
      <path class="cls-1" d="M53.89,34.81c.14.22,1.68-1.18,1.38-1.46-1.14-1.06-5.21-.29-19.64,3.13-5.51,1.3-11.22,2.65-15.83,3.53-5.06.95-7.11,1-7.95.89.61-.4,2.12-1.1,5.84-2.17,3.64-1.05,8.28-2.13,13.19-3.28,16.35-3.83,23.52-5.8,23.56-8.65,0-.48-.2-.92-.59-1.22-1.94-1.55-9.93.16-26.43,4.15-5.44,1.32-11.08,2.68-15.43,3.53-5.3,1.04-7.07,1-7.66.88.25-.48,1.53-1.78,7.92-3.92,5.31-1.78,12.34-3.56,19.14-5.29,15.76-4,21.62-5.7,21.78-8.04-.19-.43-.39-.85-.59-1.26-.02-.02-.04-.04-.07-.05-1.72-1.13-7.34.4-20.71,4.43-6.09,1.84-12.39,3.74-17.59,4.95-7.58,1.77-9.39,1.21-9.82.89-.08-.06-.1-.09-.1-.21,0-.52.71-1.94,7.06-3.87,4.56-1.39,10.65-2.63,16.54-3.84,12.38-2.54,20.14-4.26,21.78-6.98-1.01-1.34-2.12-2.57-3.31-3.69-4.22-.31-11.99,1.38-22.47,3.82-6.33,1.47-14.11,3.28-16.21,2.97.71-.73,3.81-2.71,17.32-5.93,8.65-2.07,17.29-3.62,17.38-3.63.12-.02.24-.07.34-.13-.78-.52-1.59-1-2.41-1.44-3,.57-9.44,1.82-15.87,3.36C8.34,10.14,5.88,12.36,5.59,14.03c-.09.51.07.99.44,1.34,1.43,1.35,6.16.41,18.31-2.42,8.98-2.09,21.28-4.95,23.6-3.38.14.09.15.16.15.19,0,.05.1,1.13-5.65,2.85-3.96,1.18-9.28,2.27-14.92,3.43-15.61,3.2-25.09,5.44-25.14,9.57,0,.72.29,1.33.86,1.77,2.87,2.16,13.39-.79,29.12-5.53,7.03-2.12,15.58-4.7,18.37-4.75-.72.43-2.32,1.16-5.89,2.25-3.79,1.16-8.71,2.4-13.92,3.73C11,28.13,1.69,30.92,2.4,34.7c.05.28.21.67.67.97,1.95,1.26,9.06-.28,24.81-4.09,5.75-1.39,11.7-2.83,16.35-3.73,5.48-1.06,7.43-1.03,8.12-.89-.45.43-1.94,1.36-6.86,2.82-4.22,1.25-9.71,2.54-15.03,3.78-15.87,3.72-21.38,5.24-20.85,7.81.06.28.23.69.71.99.49.31,1.3.46,2.44.46,4.01,0,11.98-1.8,23.32-4.49,7.12-1.68,15.9-3.76,17.82-3.54Z"/>
      <path class="cls-2" d="M11.79,41.87c-1.14,0-1.95-.14-2.44-.46-.48-.31-.65-.71-.71-.99-.53-2.57,4.98-4.1,20.85-7.81,5.32-1.24,10.81-2.53,15.03-3.78,4.92-1.46,6.41-2.39,6.86-2.82-.69-.14-2.64-.17-8.12.89-4.66.9-10.6,2.34-16.35,3.73-15.76,3.81-22.87,5.35-24.81,4.09-.46-.3-.62-.69-.67-.97-.7-3.78,8.61-6.58,28.53-11.63,5.21-1.32,10.13-2.57,13.92-3.73,3.57-1.09,5.17-1.82,5.89-2.25-2.78.05-11.34,2.63-18.37,4.75-15.73,4.74-26.25,7.69-29.12,5.53-.57-.43-.87-1.04-.87-1.77.05-4.14,9.53-6.38,25.14-9.57,5.64-1.15,10.96-2.25,14.92-3.43,5.76-1.72,5.66-2.8,5.65-2.85,0-.04-.02-.1-.15-.19-2.32-1.57-14.62,1.29-23.6,3.38-12.15,2.83-16.88,3.77-18.31,2.42-.36-.34-.52-.83-.44-1.34.29-1.67,2.75-3.89,18.84-7.75,8.75-2.1,17.52-3.67,17.61-3.69.52-.09,1.02.25,1.11.78.09.52-.25,1.02-.78,1.11-.09.02-8.72,1.57-17.38,3.63-13.5,3.23-16.6,5.2-17.32,5.93,2.1.31,9.87-1.5,16.21-2.97,13.35-3.11,22.31-5,25.11-3.09.55.37.88.89.97,1.49.55,3.63-7.61,5.48-22.09,8.45-5.89,1.21-11.99,2.45-16.54,3.84-6.36,1.93-7.06,3.35-7.06,3.87,0,.12.02.15.1.21.43.32,2.25.88,9.82-.89,5.19-1.21,11.49-3.11,17.59-4.95,13.37-4.03,18.99-5.56,20.71-4.43.37.25.61.62.65,1.05.28,2.48-5.42,4.15-21.77,8.3-6.8,1.73-13.83,3.51-19.14,5.29-6.39,2.14-7.67,3.43-7.92,3.92.59.12,2.36.16,7.66-.88,4.35-.86,9.98-2.22,15.43-3.53,16.5-3.99,24.49-5.7,26.43-4.15.39.31.6.74.59,1.22-.04,2.84-7.21,4.82-23.56,8.65-4.91,1.15-9.55,2.24-13.19,3.28-3.72,1.07-5.23,1.78-5.84,2.17.83.11,2.89.06,7.95-.89,4.61-.87,10.32-2.22,15.83-3.53,14.43-3.41,18.49-4.19,19.64-3.13.3.28.44.68.38,1.09-.08.52-.57.88-1.1.8-.28-.04-.51-.21-.66-.43-1.91-.22-10.7,1.85-17.82,3.54-11.35,2.68-19.32,4.49-23.32,4.49Z"/>
    </g>
  </g>
</svg>