<?xml version="1.0" encoding="UTF-8"?>
<svg id="chocolates_box" data-name="chocolates box" xmlns="http://www.w3.org/2000/svg" viewBox="200 204 370 355">
  <defs>
    <style>
      .cls-1 {
        fill: #e83954;
      }

      .cls-1, .cls-2, .cls-3, .cls-4 {
        fill-rule: evenodd;
      }

      .cls-2 {
        fill: #d33540;
      }

      .cls-3 {
        fill: #c1242b;
      }

      .cls-4 {
        fill: #d52734;
      }
    </style>
  </defs>
  <path id="shadow-2" data-name="shadow" class="cls-2" d="M239.05,424.89c-24.42-38.07-39.57-78.66-36.67-115.52,2.37-30.06,16.35-56.95,37.95-74.29,31.9-25.61,94-43.76,152.56-1.09,41.6,108.05-69.72,169.25-153.85,190.9Z"/>
  <g id="box">
    <path class="cls-1" d="M385.99,556.55c-79.68-35.08-190.92-152.54-183.59-245.5,2.3-29.12,15.84-55.17,36.76-71.96,30.9-24.8,89.8-41.94,146.82-3.41,57.02-38.53,115.92-21.4,146.82,3.41,20.92,16.79,34.47,42.84,36.76,71.96,7.89,100.1-103.57,201.34-183.59,245.5Z"/>
    <path class="cls-3" d="M385.99,551.68c-77.13-33.95-184.79-147.64-177.7-237.63,2.22-28.19,15.33-53.4,35.58-69.65,29.91-24.01,86.92-40.59,142.11-3.3,55.19-37.29,112.2-20.71,142.11,3.3,20.25,16.25,33.36,41.46,35.58,69.65,7.64,96.89-100.25,194.88-177.7,237.63Z"/>
    <path class="cls-4" d="M385.99,542.39c-71.55-31.5-171.43-136.97-164.85-220.45,2.06-26.15,14.22-49.54,33.01-64.61,27.75-22.27,80.64-37.66,131.84-3.06,51.2-34.6,104.09-19.21,131.84,3.06,18.79,15.08,30.95,38.46,33.01,64.61,7.09,89.88-93,180.79-164.85,220.45Z"/>
  </g>
</svg>