<?xml version="1.0" encoding="UTF-8"?>
<svg id="Layer_1" data-name="Layer 1" xmlns="http://www.w3.org/2000/svg" viewBox="30 50 700 430">
  <defs>
    <style>
      .cls-1 {
        fill: #250000;
      }

      .cls-2 {
        fill: #67372a;
      }

      .cls-3 {
        fill: #4c1c18;
      }

      .cls-4 {
        fill: #7c4434;
      }

      .cls-5 {
        fill: #c39887;
      }
    </style>
  </defs>
  <g>
    <path class="cls-4" d="M654.23,301.98c-.34-3.2-.8-6.39-1.37-9.56l-202.52,141.91h-.03s0,0,0,0h0S47.72,304.05,47.72,304.05l-6.4,8.09,406.75,134.32,206.15-144.49Z"/>
    <path class="cls-1" d="M448.08,446.46l.33,31.82c11.3-1.83,22.19-3.62,31.27-5.11l103.06-70.26,71.49-100.93-206.15,144.49Z"/>
    <path class="cls-3" d="M654.23,301.98l-71.49,100.93,65.56-44.7c5.88-18.04,7.91-37.37,5.93-56.24Z"/>
    <polygon class="cls-3" points="452.25 352.65 452.26 352.64 452.26 352.61 283.28 303.49 244.18 366.23 235.93 289.71 71.04 241.8 47.72 304.05 450.3 434.32 452.25 352.65"/>
    <polygon class="cls-5" points="450.31 434.32 450.34 434.33 450.34 434.3 450.31 434.32"/>
    <polygon class="cls-5" points="450.3 434.33 450.31 434.32 450.3 434.32 450.3 434.33"/>
    <path class="cls-1" d="M679.18,201.82l-64.59,42.94-.16,11.54-.8,51.04v.56l-37.18-37.74h-.08l-72.83,48.39-51.28,34.05v.03s-.15,6.45-.15,6.45l-.73,31.02-1.04,44.23,202.52-141.91c-2.18-12.1-6.03-23.88-11.68-34.84,22.19-7.35,30.1-33.67,38-55.75Z"/>
    <path class="cls-4" d="M464.68,180.18l-22.11,14.98,28.2,8.09,24.76,7.13,85.33,24.68,33.73,9.69,64.59-42.94c.07-.21.15-.42.22-.63,6.28-17.51,14.63-34.25,24.69-49.89l-146.95-34.01-23.16,15.78-7.61,5.13-11.7,8.01-50,33.97ZM545.13,152.94l18.99-12.9,119.54,27.88-18.03,11.78-63.38,41.42-85.41-25.4-24.2-7.21,52.48-35.57Z"/>
    <path class="cls-2" d="M700.54,280.06l-59.36-22.48c5.65,10.97,9.5,22.74,11.68,34.84.57,3.17,1.03,6.35,1.37,9.56,1.98,18.87-.05,38.2-5.93,56.24l36.9-47.48,15.34-30.67Z"/>
    <polygon class="cls-3" points="713.32 203.38 700.54 280.06 685.21 310.73 722.94 306.19 728.66 251.95 713.32 203.38"/>
    <polygon class="cls-1" points="648.3 358.21 722.94 306.19 685.21 310.73 648.3 358.21"/>
    <path class="cls-1" d="M679.18,201.82l21.36,78.24,12.78-76.68-9.23-52.08c-10.06,15.65-18.41,32.39-24.69,49.89-.07.21-.15.42-.22.63Z"/>
    <path class="cls-4" d="M641.19,257.58l59.36,22.48-21.36-78.24c-7.89,22.08-15.81,48.4-38,55.75Z"/>
    <polygon class="cls-3" points="460.6 234.51 542.88 259.82 576.37 270.16 576.45 270.16 613.63 307.9 613.63 307.34 614.43 256.3 614.59 244.76 580.86 235.07 495.53 210.39 470.77 203.26 442.57 195.17 425.1 223.53 435.92 226.89 460.6 234.51"/>
    <path class="cls-4" d="M576.37,270.16l-33.49-10.34-82.29-25.32-24.68-7.61-10.82-3.36-16.67-5.13-9.59,6.45-9.16,6.28.48-.32-21.07,14.34-63.46,43.11-22.35,15.22,168.98,49.12,51.28-34.05,72.83-48.39ZM442.49,325.45l-81.64-22.19-27-7.29,62.9-42.55,20.35-13.78,24.92,7.69,81.64,25.08-19.87,12.98-61.29,40.06Z"/>
    <polygon class="cls-1" points="369.1 245.16 390.17 230.82 365.01 205.1 345.86 217.68 324.31 231.78 257.81 275.37 235.93 289.71 244.18 366.23 283.28 303.49 305.64 288.27 369.1 245.16"/>
    <polygon class="cls-2" points="330.32 140.12 398.58 160.47 445.37 130.75 374.86 115.12 330.32 140.12"/>
    <polygon class="cls-1" points="374.86 115.12 374.46 95.89 307.32 133.31 330.32 140.12 374.86 115.12"/>
    <polygon class="cls-3" points="445.37 130.75 466.44 117.37 374.46 95.89 374.86 115.12 445.37 130.75"/>
    <path class="cls-4" d="M303.72,155.1l71.07,20.51,24.44,7.05,23.08-15.14,47.67-31.25,20.35-13.38,23.72-15.54-141.5-32.85-119.14,66.1,26.92,7.77,23.4,6.73ZM374.46,95.89l91.98,21.47-21.07,13.38-46.79,29.73-68.26-20.35-23-6.81,67.14-37.42Z"/>
    <polygon class="cls-2" points="570.6 158.63 516.84 195.73 602.25 221.13 665.63 179.7 572.37 159.03 570.6 158.63"/>
    <polygon class="cls-1" points="516.84 195.73 570.6 158.63 572.37 159.03 564.11 140.04 545.13 152.94 492.65 188.52 516.84 195.73"/>
    <polygon class="cls-3" points="665.63 179.7 683.66 167.92 564.11 140.04 572.37 159.03 665.63 179.7"/>
    <polygon class="cls-2" points="422.14 261.03 360.84 303.25 442.49 325.45 503.78 285.38 422.14 261.03"/>
    <polygon class="cls-3" points="503.78 285.38 523.65 272.4 442.01 247.33 417.09 239.63 422.14 261.03 503.78 285.38"/>
    <polygon class="cls-1" points="417.09 239.63 396.74 253.42 333.84 295.96 360.84 303.25 422.14 261.03 417.09 239.63"/>
    <path class="cls-4" d="M257.81,275.37l66.5-43.59,21.55-14.1,19.15-12.58-24.6-7.61-72.51-22.27-23-7.05-3.29-1.04-23.16-7.13-147.43,81.81,164.89,47.91,21.87-14.34ZM144.43,244.6l-24.76-6.73,103.92-57.93,23.16,7.13,74.11,22.84-22.27,14.18-68.67,43.67-85.49-23.16Z"/>
    <polygon class="cls-3" points="298.59 224.09 320.86 209.91 246.75 187.07 223.59 179.94 221.75 201.09 298.59 224.09"/>
    <polygon class="cls-1" points="223.59 179.94 119.67 237.87 144.43 244.6 221.75 201.09 223.59 179.94"/>
    <polygon class="cls-2" points="221.75 201.09 144.43 244.6 229.92 267.76 298.59 224.09 221.75 201.09"/>
    <polygon class="cls-1" points="523.33 130.59 514.04 107.35 490.32 122.9 469.97 136.28 422.3 167.52 399.22 182.67 398.85 224.86 408.44 218.4 425.1 223.53 442.57 195.17 464.68 180.18 514.68 146.21 526.38 138.2 523.33 130.59"/>
    <polygon class="cls-3" points="267.9 175.22 340.41 197.49 365.01 205.1 390.17 230.82 389.69 231.14 398.85 224.86 399.22 182.67 374.79 175.62 303.72 155.1 280.32 148.37 253.4 140.6 241.62 167.12 244.91 168.16 267.9 175.22"/>
  </g>
  <path class="cls-3" d="M448.41,478.29l-.33-31.82L41.33,312.14l.7,45.47,184.3,62,25.52-1.29,12.45,14.06,40.29,13.55,4.87-8.11,15.73,15.04,90.96,30.6c10.33-1.63,21.48-3.43,32.28-5.18Z"/>
</svg>