<?xml version="1.0" encoding="UTF-8"?>
<svg id="_레이어_2" data-name="레이어 2" xmlns="http://www.w3.org/2000/svg" viewBox="0 0 55.97 57.32">
  <defs>
    <style>
      .cls-1 {
        fill: #f4e1c9;
      }

      .cls-1, .cls-2, .cls-3, .cls-4 {
        fill-rule: evenodd;
      }

      .cls-2 {
        fill: #fdd0ca;
      }

      .cls-3 {
        fill: #f4bbb8;
      }

      .cls-4 {
        fill: #fff3e3;
      }
    </style>
  </defs>
  <g id="chocolates_box" data-name="chocolates box">
    <g>
      <path class="cls-1" d="M.04,30.9C-.74,15.14,10.04.43,27.77.02c14.1-.53,27.32,11.5,28.16,27.89.86,15.59-12.9,29.08-28.16,29.41C13.14,57.62.78,45.86.04,30.9Z"/>
      <path class="cls-4" d="M3.31,23.71C2.62,11.61,12.14.33,27.8.01c12.45-.41,24.12,8.82,24.86,21.4.76,11.96-11.39,22.31-24.86,22.56-12.93.24-23.83-8.79-24.49-20.27Z"/>
      <path class="cls-1" d="M29.9,15.68c.69-.27.87-.96,1.31-1.43.72-.78,1.49-1.5,2.42-2.03,2.96-1.7,6.45-.33,7.41,2.89.59,1.98.39,3.93-.33,5.84-.27.7-.63,1.38-1.03,2.03-2.18,3.54-5.24,6.29-8.46,8.9-1.19.96-2.65,1.02-3.69-.03-2.36-2.38-5.16-4.31-7.23-6.96-.7-.9-1.31-1.88-1.8-2.9-1.43-3-.99-5.92.83-8.61,1.76-2.62,5.47-3.03,7.86-.93.71.62,1.23,1.45,1.81,2.19.28.36.3.92.88,1.04Z"/>
      <path class="cls-3" d="M28.78,15.11c.65-.26.83-.94,1.25-1.4.68-.76,1.42-1.46,2.3-1.98,2.82-1.65,6.13-.32,7.05,2.83.57,1.94.37,3.84-.31,5.7-.25.69-.6,1.35-.97,1.98-2.07,3.45-4.98,6.14-8.03,8.69-1.13.94-2.52,1-3.51-.03-2.24-2.32-4.91-4.22-6.88-6.8-.67-.87-1.25-1.84-1.71-2.83-1.36-2.94-.94-5.78.79-8.41,1.68-2.55,5.19-2.96,7.47-.9.67.61,1.17,1.41,1.73,2.14.26.35.29.9.84,1.01Z"/>
      <path class="cls-2" d="M28.71,14.48c.56-.22.72-.81,1.07-1.21.59-.65,1.22-1.26,1.98-1.71,2.43-1.43,5.28-.27,6.08,2.44.49,1.67.32,3.31-.27,4.91-.22.59-.52,1.16-.84,1.71-1.78,2.98-4.3,5.29-6.93,7.49-.97.81-2.17.86-3.02-.02-1.93-2-4.23-3.63-5.93-5.86-.57-.75-1.08-1.58-1.48-2.44-1.17-2.53-.81-4.98.68-7.25,1.44-2.2,4.48-2.55,6.44-.78.58.52,1.01,1.22,1.49,1.85.23.3.25.77.72.87Z"/>
    </g>
  </g>
</svg>