<?xml version="1.0" encoding="UTF-8"?>
<svg id="_레이어_2" data-name="레이어 2" xmlns="http://www.w3.org/2000/svg" viewBox="0 0 55.97 57.32">
  <defs>
    <style>
      .cls-1 {
        fill: #fff3e3;
      }

      .cls-2, .cls-3 {
        fill: #f4bbb8;
      }

      .cls-4 {
        fill: #fdd0ca;
      }

      .cls-4, .cls-3 {
        fill-rule: evenodd;
      }
    </style>
  </defs>
  <g id="chocolates_box" data-name="chocolates box">
    <g>
      <path class="cls-3" d="M.04,30.9C-.74,15.14,10.04.43,27.77.02c14.1-.53,27.32,11.5,28.16,27.89.86,15.59-12.9,29.08-28.16,29.41C13.14,57.62.78,45.86.04,30.9Z"/>
      <path class="cls-4" d="M3.31,23.71C2.63,11.61,12.14.33,27.8.01c12.45-.41,24.12,8.82,24.86,21.4.76,11.96-11.39,22.31-24.86,22.56-12.92.24-23.83-8.79-24.49-20.27Z"/>
      <path class="cls-2" d="M54.06,34.92c.14.22,1.69-1.18,1.38-1.46-1.15-1.06-5.23-.29-19.7,3.14-5.53,1.31-11.25,2.66-15.88,3.54-5.07.96-7.14,1-7.97.9.61-.4,2.13-1.11,5.86-2.18,3.66-1.05,8.31-2.14,13.24-3.29,16.4-3.84,23.6-5.82,23.63-8.67,0-.48-.2-.92-.59-1.23-1.95-1.55-9.96.16-26.51,4.16-5.46,1.32-11.11,2.69-15.47,3.55-5.32,1.05-7.1,1.01-7.68.88.25-.49,1.53-1.78,7.94-3.93,5.33-1.78,12.38-3.57,19.2-5.3,15.81-4.01,21.69-5.72,21.85-8.06-.19-.43-.39-.85-.59-1.27-.02-.02-.04-.04-.07-.05-1.72-1.14-7.36.4-20.77,4.44-6.11,1.84-12.43,3.75-17.64,4.97-7.6,1.78-9.42,1.21-9.86.89-.08-.06-.1-.09-.1-.21,0-.52.71-1.95,7.08-3.89,4.57-1.39,10.69-2.64,16.6-3.85,12.42-2.54,20.2-4.27,21.85-7-1.01-1.34-2.13-2.58-3.32-3.7-4.23-.31-12.03,1.39-22.54,3.83-6.35,1.48-14.15,3.29-16.26,2.98.71-.74,3.82-2.71,17.37-5.95,8.68-2.07,17.34-3.63,17.43-3.65.12-.02.24-.07.34-.13-.79-.52-1.59-1-2.42-1.44-3.01.57-9.47,1.83-15.92,3.38C8.37,10.17,5.9,12.4,5.61,14.08c-.09.51.07,1,.44,1.34,1.43,1.35,6.18.41,18.37-2.43,9.01-2.1,21.35-4.97,23.68-3.39.14.09.15.16.15.19,0,.05.1,1.14-5.67,2.86-3.97,1.18-9.31,2.28-14.97,3.44-15.66,3.21-25.17,5.46-25.22,9.61,0,.73.29,1.34.87,1.77,2.88,2.16,13.43-.79,29.21-5.55,7.05-2.13,15.63-4.71,18.43-4.77-.72.44-2.32,1.16-5.9,2.26-3.8,1.16-8.74,2.41-13.97,3.74C11.04,28.22,1.7,31.02,2.4,34.81c.05.28.21.67.67.97,1.95,1.27,9.08-.28,24.89-4.1,5.77-1.39,11.73-2.84,16.4-3.74,5.5-1.07,7.45-1.03,8.14-.89-.45.43-1.95,1.37-6.89,2.83-4.23,1.25-9.74,2.55-15.08,3.79-15.92,3.73-21.45,5.26-20.92,7.84.06.28.23.69.71.99.49.31,1.31.46,2.45.46,4.02,0,12.02-1.81,23.4-4.5,7.14-1.69,15.95-3.77,17.87-3.55Z"/>
      <path class="cls-1" d="M11.83,42c-1.14,0-1.96-.15-2.45-.46-.48-.31-.65-.71-.71-.99-.53-2.58,4.99-4.11,20.92-7.84,5.33-1.25,10.85-2.54,15.08-3.79,4.94-1.46,6.43-2.4,6.89-2.83-.69-.14-2.65-.17-8.14.89-4.67.91-10.64,2.35-16.4,3.74-15.81,3.82-22.94,5.37-24.89,4.1-.46-.3-.62-.69-.67-.97-.7-3.79,8.64-6.6,28.62-11.67,5.23-1.33,10.16-2.58,13.97-3.74,3.58-1.09,5.19-1.82,5.9-2.26-2.79.05-11.38,2.64-18.43,4.77-15.78,4.76-26.33,7.71-29.21,5.55-.58-.43-.88-1.04-.87-1.77.05-4.15,9.56-6.4,25.22-9.61,5.66-1.16,11-2.25,14.97-3.44,5.77-1.72,5.68-2.81,5.67-2.86,0-.04-.02-.1-.15-.19-2.33-1.58-14.67,1.29-23.68,3.39-12.19,2.84-16.93,3.78-18.37,2.43-.37-.34-.52-.83-.44-1.34.29-1.67,2.76-3.91,18.9-7.77,8.78-2.1,17.58-3.68,17.66-3.7.52-.09,1.02.25,1.12.78.09.52-.25,1.02-.78,1.12-.09.02-8.75,1.57-17.43,3.65-13.55,3.24-16.66,5.21-17.37,5.95,2.11.31,9.91-1.51,16.26-2.98,13.39-3.12,22.38-5.01,25.19-3.1.55.37.89.89.98,1.5.55,3.64-7.64,5.5-22.16,8.47-5.91,1.21-12.02,2.46-16.6,3.85-6.38,1.94-7.08,3.36-7.08,3.89,0,.12.02.15.1.21.43.32,2.26.89,9.86-.89,5.21-1.22,11.53-3.12,17.64-4.97,13.41-4.05,19.05-5.58,20.77-4.44.37.25.61.62.66,1.05.28,2.49-5.44,4.17-21.84,8.33-6.82,1.73-13.87,3.52-19.2,5.3-6.41,2.15-7.69,3.44-7.94,3.93.59.12,2.37.16,7.68-.88,4.36-.86,10.01-2.23,15.48-3.55,16.55-4,24.57-5.72,26.51-4.16.39.31.6.74.59,1.23-.04,2.85-7.23,4.83-23.63,8.67-4.93,1.15-9.58,2.24-13.24,3.29-3.73,1.07-5.25,1.78-5.86,2.18.84.11,2.9.06,7.97-.9,4.63-.87,10.35-2.23,15.88-3.54,14.47-3.42,18.55-4.2,19.7-3.14.3.28.44.68.38,1.09-.08.53-.58.88-1.1.8-.28-.04-.51-.21-.66-.43-1.92-.22-10.73,1.86-17.87,3.55-11.38,2.69-19.38,4.5-23.4,4.5Z"/>
    </g>
  </g>
</svg>