<?xml version="1.0" encoding="UTF-8"?>
<svg id="_레이어_2" data-name="레이어 2" xmlns="http://www.w3.org/2000/svg" viewBox="0 0 55.97 57.32">
  <defs>
    <style>
      .cls-1 {
        fill: #f4e1c9;
      }

      .cls-1, .cls-2, .cls-3 {
        fill-rule: evenodd;
      }

      .cls-2 {
        fill: #c49178;
      }

      .cls-4 {
        fill: #ad8371;
      }

      .cls-3 {
        fill: #fff3e3;
      }
    </style>
  </defs>
  <g id="chocolates_box" data-name="chocolates box">
    <g>
      <path class="cls-1" d="M.04,30.9C-.74,15.14,10.04.43,27.77.02c14.1-.53,27.32,11.5,28.16,27.89.86,15.59-12.9,29.08-28.16,29.41C13.14,57.62.78,45.86.04,30.9Z"/>
      <path class="cls-3" d="M3.31,23.71C2.62,11.61,12.15.33,27.8.01c12.45-.41,24.12,8.82,24.86,21.4.76,11.96-11.39,22.31-24.86,22.56-12.93.24-23.83-8.79-24.49-20.27Z"/>
      <g>
        <path class="cls-2" d="M34.78,30.98c1.77-3.79,2.49-7.66,1.92-11.61-.6-4.17-1.58-8.31-6.17-11.98-1.97-1.58-3.69-1.62-5.67-.15-.48.36-.91.75-1.22,1.17-6.15,7.98-5.94,16.14-.21,24.41.59.85,1.54,1.67,2.58,2.4,1.79,1.26,3.46,1.25,5.1.01,1.7-1.28,2.9-2.72,3.67-4.26Z"/>
        <path class="cls-4" d="M30.05,35.91c1.25-1.48,4.82-6.27,5.57-13.24.75-7-5.85-14.87-7.21-16.42-1.01-.2-2,.04-3.06.74-1.15,2.3-4.79,10.09-3.94,15.16.86,5.07,4.39,11.75,6.27,13.86.81.24,1.6.21,2.38-.1ZM34.66,22.56c-.58,5.4-2.98,9.49-4.48,11.59,1.61-7.8-1.1-22.22-2.03-26.72,1.92,2.31,7.14,9.2,6.51,15.13ZM27.16,7.43c.88,4.31,3.82,19.79,1.92,27.19-2.84-8.66-2.17-23.28-1.92-27.19ZM26.19,7.44c-.27,4.13-.96,18.97,2.08,27.8-1.56-1.87-5.06-8.14-5.92-13.26-.8-4.71,2.72-12.29,3.84-14.55Z"/>
      </g>
    </g>
  </g>
</svg>