<?xml version="1.0" encoding="UTF-8"?>
<svg id="_레이어_2" data-name="레이어 2" xmlns="http://www.w3.org/2000/svg" viewBox="0 0 55.97 57.32">
  <defs>
    <style>
      .cls-1 {
        fill: #fff3e3;
      }

      .cls-2 {
        fill: #fdd0ca;
      }

      .cls-2, .cls-3 {
        fill-rule: evenodd;
      }

      .cls-3 {
        fill: #f4bbb8;
      }

      .cls-4 {
        fill: #f9e9d7;
      }
    </style>
  </defs>
  <g id="chocolates_box" data-name="chocolates box">
    <g>
      <path class="cls-3" d="M.04,30.9C-.74,15.14,10.04.43,27.77.02c14.1-.53,27.32,11.5,28.16,27.89.86,15.59-12.9,29.08-28.16,29.41C13.14,57.62.78,45.86.04,30.9Z"/>
      <path class="cls-2" d="M3.31,23.71C2.63,11.61,12.14.33,27.8.01c12.45-.41,24.12,8.82,24.86,21.4.76,11.96-11.39,22.31-24.86,22.56-12.92.24-23.83-8.79-24.49-20.27Z"/>
      <path class="cls-4" d="M22.01,43.45c-.64.34-1.29.67-1.95.98-2.32,1.09-4.64,2.2-6.97,3.26-1.4.64-2.86,1.14-4.39,1.41-.21.04-.42.07-.63.11,1.61,1.64,3.43,3.07,5.39,4.26.71-.25,1.41-.54,2.1-.86,2.33-1.08,4.64-2.19,6.96-3.28,3.36-1.59,6.45-3.58,9.41-5.75-1.36.23-2.74.37-4.14.4-1.99.04-3.93-.15-5.79-.53Z"/>
      <path class="cls-1" d="M40.11,35.34c.49-1.02.99-2.03,1.48-3.05,1.39-2.92,2.16-5.98,2.13-9.24-.15-1.32-.23-2.65-.45-3.96-.49-2.9-1.83-5.43-3.47-7.82-3.4-4.97-9.09-6.46-14.4-4.96-2.88.81-5.12,2.56-7.04,4.76-2.77,3.18-3.97,6.9-3.74,11.08.04.7.19,1.43.45,2.09.96,2.44,2.77,4.07,5.24,4.85,1.78.57,3.65.54,5.49.23.49-.08,1-.28,1.42-.55,2.39-1.47,3.94-3.57,4.55-6.31.25-1.1.28-2.25-.02-3.36-.25-.96-.91-1.59-1.86-1.89-.99-.31-1.85,0-2.52.72-.34.36-.59.85-.74,1.32-.17.58-.21,1.21-.27,1.82-.08.86-.48,1.55-1.05,2.18-.36.4-.81.64-1.33.69-.82.09-1.65.04-2.42-.31-.8-.36-1.32-.97-1.43-1.86-.04-.3-.06-.61-.06-.92.08-3.06,1.39-5.52,3.68-7.5,1.89-1.64,4.06-2.31,6.55-2.03,1.71.2,3.19.89,4.27,2.21,1.99,2.43,3.35,5.14,3.49,8.37.14,3.04-.29,5.93-1.75,8.64-.34.63-.62,1.29-.93,1.95-.75,1.61-1.84,2.96-3.26,4.03-1.47,1.12-2.96,2.21-4.45,3.31-1.82,1.34-3.72,2.55-5.7,3.6,1.86.38,3.8.56,5.79.53,1.4-.03,2.78-.16,4.14-.4,1.42-1.04,2.8-2.12,4.18-3.21,1.71-1.36,3.04-3.05,3.99-5.03Z"/>
    </g>
  </g>
</svg>