<?xml version="1.0" encoding="UTF-8"?>
<svg id="_레이어_2" data-name="레이어 2" xmlns="http://www.w3.org/2000/svg" viewBox="0 0 58.55 59.76">
  <defs>
    <style>
      .cls-1 {
        fill: #76584b;
      }

      .cls-1, .cls-2, .cls-3 {
        fill-rule: evenodd;
      }

      .cls-2 {
        fill: #f9c68a;
      }

      .cls-3 {
        fill: #947061;
      }
    </style>
  </defs>
  <g id="chocolates_box" data-name="chocolates box">
    <g>
      <path class="cls-1" d="M2.01,31.7C1.23,15.94,12.01,1.22,29.74.81c14.1-.53,27.32,11.5,28.16,27.89.86,15.59-12.9,29.08-28.16,29.41-14.64.31-27-11.46-27.74-26.41Z"/>
      <path class="cls-3" d="M5.28,24.51C4.59,12.41,14.11,1.12,29.77.81c12.45-.41,24.12,8.82,24.86,21.4.76,11.96-11.39,22.31-24.86,22.56-12.92.24-23.83-8.79-24.49-20.27Z"/>
      <path class="cls-2" d="M12.93,7.1c.74-.13,1.43-.25,2.12-.36.35-.05.41-.29.39-.71-.13-2.48-.28-2.63-2.1-2.03-.23.08-.47.17-.7.22-.51.12-.67.49-.53,1.11.08.36.13.74.19,1.1.08.47.27.74.62.66Z"/>
      <path class="cls-2" d="M25.23,9.6c.73.19,1.41.36,2.08.56.34.1.5-.09.65-.48.91-2.31.84-2.51-1.06-2.72-.24-.03-.49-.04-.73-.09-.51-.1-.81.17-.94.79-.08.36-.19.72-.28,1.08-.13.46-.06.79.29.86Z"/>
      <path class="cls-2" d="M31.69,5.42c.37-.66.71-1.27,1.06-1.87.18-.3.04-.5-.3-.75-2.01-1.47-2.22-1.45-2.9.34-.09.23-.16.47-.27.69-.23.47-.04.82.53,1.11.33.17.65.37.98.55.41.24.74.26.9-.07Z"/>
      <path class="cls-2" d="M25.77,3.85c.5-.56.97-1.08,1.45-1.59.24-.26.15-.48-.13-.8-1.64-1.87-1.85-1.9-2.9-.3-.14.21-.26.42-.41.61-.32.41-.22.79.27,1.2.29.24.56.5.83.75.35.32.67.41.9.13Z"/>
      <path class="cls-2" d="M19.11,6.81c.75.08,1.44.15,2.14.24.35.04.48-.16.57-.57.56-2.42.46-2.61-1.46-2.53-.25.01-.49.03-.74.02-.52-.02-.77.28-.82.92-.02.37-.08.74-.12,1.11-.06.47.06.79.42.8Z"/>
      <path class="cls-2" d="M34.62,3.67c.75.08,1.44.15,2.14.24.35.04.48-.16.57-.57.56-2.42.46-2.61-1.46-2.53-.25.01-.49.03-.74.02-.52-.02-.77.28-.82.92-.02.37-.08.74-.12,1.11-.06.47.06.79.42.8Z"/>
      <path class="cls-2" d="M40.77,10.32c.62-.43,1.19-.83,1.77-1.22.29-.19.25-.44.06-.81-1.17-2.19-1.37-2.27-2.76-.95-.18.17-.35.35-.54.5-.41.32-.4.72-.01,1.23.22.3.43.61.64.92.27.39.56.56.84.33Z"/>
      <path class="cls-2" d="M37.48,18.37c1-.17,1.93-.34,2.86-.48.47-.07.56-.39.53-.95-.17-3.34-.37-3.55-2.82-2.74-.32.1-.63.23-.94.3-.68.16-.9.66-.72,1.5.1.49.17.99.26,1.49.1.63.37,1,.84.89Z"/>
      <path class="cls-2" d="M11.24,18.14c.74-.13,1.43-.25,2.12-.36.35-.05.41-.29.39-.71-.13-2.48-.28-2.63-2.1-2.03-.23.08-.46.17-.7.22-.51.12-.67.49-.53,1.11.08.36.13.74.19,1.1.08.47.27.74.62.66Z"/>
      <path class="cls-2" d="M23.57,58.36c.6.45,1.17.86,1.72,1.29.28.22.49.1.78-.2,1.71-1.8,1.72-2.02.03-2.92-.22-.12-.44-.22-.64-.35-.44-.28-.81-.15-1.17.38-.21.31-.45.6-.67.9-.29.38-.35.71-.05.9Z"/>
      <path class="cls-2" d="M41.63,42.26c.6.45,1.17.86,1.72,1.29.28.22.49.1.78-.2,1.71-1.8,1.72-2.02.03-2.92-.22-.12-.44-.22-.65-.35-.44-.28-.81-.15-1.17.38-.21.31-.45.6-.67.9-.29.38-.35.71-.05.9Z"/>
      <path class="cls-2" d="M45.07,52.54c.6.45,1.17.86,1.72,1.29.28.22.49.1.78-.2,1.71-1.8,1.72-2.02.03-2.92-.22-.12-.44-.22-.65-.35-.43-.28-.81-.15-1.17.38-.21.31-.45.6-.67.9-.29.38-.35.71-.05.9Z"/>
      <path class="cls-2" d="M47.07,40.39c.6.45,1.17.86,1.72,1.29.28.22.49.1.78-.2,1.71-1.8,1.72-2.02.03-2.92-.22-.12-.44-.22-.65-.35-.44-.28-.81-.15-1.17.38-.21.31-.45.6-.67.9-.29.38-.35.71-.05.9Z"/>
      <path class="cls-2" d="M48.01,48.35c.6.45,1.17.86,1.72,1.29.28.22.49.1.78-.2,1.71-1.8,1.72-2.02.03-2.92-.22-.12-.44-.22-.65-.35-.44-.28-.81-.15-1.17.38-.21.31-.45.6-.67.9-.29.38-.35.71-.05.9Z"/>
      <path class="cls-2" d="M23.9,18.14c.74-.13,1.43-.25,2.12-.36.35-.05.41-.29.39-.71-.13-2.48-.28-2.63-2.1-2.03-.23.08-.47.17-.7.22-.51.12-.67.49-.53,1.11.08.36.13.74.19,1.1.08.47.27.74.62.66Z"/>
      <path class="cls-2" d="M45.08,15.97c.74-.13,1.43-.25,2.12-.36.35-.05.42-.29.39-.71-.13-2.48-.28-2.63-2.1-2.03-.23.08-.46.17-.7.22-.51.12-.67.49-.53,1.11.08.36.13.74.19,1.1.08.47.27.74.62.66Z"/>
      <path class="cls-2" d="M38.7,57.78c.74-.13,1.43-.25,2.12-.36.35-.05.42-.29.39-.71-.13-2.48-.28-2.63-2.1-2.03-.23.08-.46.17-.7.22-.51.12-.67.49-.53,1.11.08.36.13.74.19,1.1.08.47.27.74.62.66Z"/>
      <path class="cls-2" d="M25.22,37.23c.48-.58.91-1.13,1.37-1.66.23-.27.12-.49-.17-.79-1.73-1.79-1.94-1.8-2.91-.15-.13.21-.24.43-.38.63-.3.42-.18.8.33,1.19.3.22.58.47.87.71.37.3.69.38.9.09Z"/>
      <path class="cls-2" d="M49.86,25.59c.48-.58.91-1.13,1.37-1.66.23-.27.12-.49-.17-.79-1.73-1.79-1.94-1.8-2.92-.15-.13.21-.24.43-.38.63-.3.42-.18.8.33,1.19.3.22.58.47.87.71.37.3.69.38.9.09Z"/>
      <path class="cls-2" d="M40.85,34.03c.08-.75.15-1.45.23-2.14.04-.35-.16-.48-.57-.57-2.42-.55-2.61-.45-2.53,1.46.01.25.04.49.02.74-.02.52.29.77.92.81.37.02.74.08,1.11.12.47.05.79-.06.8-.42Z"/>
      <path class="cls-2" d="M41.7,38.81c.74-.13,1.43-.25,2.12-.36.35-.05.42-.29.39-.71-.13-2.48-.28-2.63-2.1-2.03-.23.08-.47.17-.7.22-.51.12-.67.49-.53,1.11.08.36.13.74.19,1.1.08.47.27.74.62.66Z"/>
      <path class="cls-2" d="M56.03,36.15c.74-.13,1.43-.25,2.12-.36.35-.05.42-.29.39-.71-.13-2.48-.28-2.63-2.1-2.03-.23.08-.47.17-.7.22-.51.12-.67.49-.53,1.11.08.36.13.74.19,1.1.08.47.27.74.62.66Z"/>
      <path class="cls-2" d="M10.16,50.93c.74-.13,1.43-.25,2.12-.36.35-.05.41-.29.39-.71-.13-2.48-.28-2.63-2.1-2.03-.23.08-.46.17-.7.22-.51.12-.67.49-.53,1.11.08.36.13.74.19,1.1.08.47.27.74.62.66Z"/>
      <path class="cls-2" d="M32.26,37.1c.74-.13,1.43-.25,2.12-.36.35-.05.42-.29.39-.71-.13-2.48-.28-2.63-2.1-2.03-.23.08-.46.17-.7.22-.51.12-.67.49-.53,1.11.08.36.13.74.19,1.1.08.47.27.74.62.66Z"/>
      <path class="cls-2" d="M36.2,42.29c.68-.11,1.3-.23,1.93-.32.32-.05.38-.26.36-.65-.12-2.26-.25-2.4-1.91-1.85-.21.07-.42.15-.64.2-.46.11-.61.44-.48,1.01.07.33.12.67.17,1.01.07.43.25.67.57.6Z"/>
      <path class="cls-2" d="M27.78,41.91c.68-.11,1.3-.23,1.93-.32.32-.05.38-.26.36-.64-.12-2.26-.25-2.4-1.91-1.85-.21.07-.42.15-.64.2-.46.11-.61.44-.48,1.01.07.33.12.67.17,1.01.07.43.25.67.57.6Z"/>
      <path class="cls-2" d="M50.59,14.5c.68-.11,1.3-.23,1.93-.32.32-.05.38-.26.36-.64-.12-2.26-.25-2.4-1.91-1.85-.21.07-.42.15-.64.2-.46.11-.61.44-.48,1.01.07.33.12.67.17,1.01.07.43.25.67.57.6Z"/>
      <path class="cls-2" d="M4.67,45.16c.38.65.74,1.25,1.07,1.87.17.31.41.29.8.12,2.28-.99,2.37-1.18,1.17-2.67-.15-.19-.32-.38-.45-.58-.29-.43-.69-.45-1.23-.11-.31.2-.65.38-.97.56-.41.24-.6.51-.4.81Z"/>
      <path class="cls-2" d="M18.43,44.72c-.11-.74-.22-1.44-.31-2.13-.05-.35-.28-.42-.7-.41-2.48.07-2.64.22-2.08,2.05.07.24.16.47.21.71.11.51.47.68,1.1.56.36-.07.74-.11,1.11-.17.47-.07.75-.25.67-.61Z"/>
      <path class="cls-2" d="M13.13,40.74c.74-.13,1.43-.25,2.12-.36.35-.05.42-.29.39-.71-.13-2.48-.28-2.64-2.1-2.03-.23.08-.46.17-.7.22-.51.12-.67.49-.53,1.11.08.36.13.74.19,1.1.08.47.27.74.62.66Z"/>
      <path class="cls-2" d="M32.1,53.69c.37.65.73,1.26,1.07,1.87.17.31.41.29.8.13,2.29-.98,2.38-1.17,1.18-2.67-.15-.19-.32-.38-.45-.58-.29-.43-.69-.46-1.23-.12-.31.2-.65.37-.97.56-.41.24-.6.51-.4.81Z"/>
      <path class="cls-2" d="M33.2,46.65c.52-.53,1.01-1.03,1.5-1.51.25-.24.14-.53-.16-.97-1.82-2.62-2.05-2.7-3.14-1.09-.14.21-.27.43-.42.61-.34.39-.21.88.33,1.48.32.35.61.73.92,1.09.39.47.74.66.97.38Z"/>
      <path class="cls-2" d="M15.16,21.9c-.6-.55-1.17-1.05-1.72-1.57-.28-.26-.53-.16-.87.14-2.03,1.77-2.06,2-.33,3.15.22.15.45.28.66.45.44.35.86.24,1.3-.29.26-.31.54-.6.82-.9.35-.38.45-.73.14-.97Z"/>
      <path class="cls-2" d="M24.95,51.35c-.6-.55-1.17-1.05-1.72-1.57-.28-.26-.53-.16-.87.14-2.03,1.77-2.06,2-.33,3.15.22.15.45.28.66.45.44.35.86.24,1.3-.29.26-.31.54-.6.82-.9.35-.38.45-.73.14-.97Z"/>
      <path class="cls-2" d="M6.35,21.9c-.6-.55-1.17-1.05-1.72-1.57-.28-.26-.53-.16-.87.14-2.03,1.77-2.06,2-.33,3.15.22.15.45.28.66.45.44.35.86.24,1.3-.29.26-.31.54-.6.82-.9.35-.38.45-.73.14-.97Z"/>
      <path class="cls-2" d="M33.78,18.57c-.6-.55-1.17-1.05-1.72-1.57-.28-.26-.53-.16-.87.14-2.03,1.77-2.06,2-.33,3.15.22.15.45.28.66.45.44.35.86.24,1.3-.29.26-.31.54-.6.82-.9.35-.38.45-.73.14-.97Z"/>
      <path class="cls-2" d="M4.17,28.8c-.6-.55-1.17-1.05-1.72-1.57-.28-.26-.53-.16-.87.14-2.03,1.77-2.06,2-.33,3.15.22.15.45.28.66.45.44.35.86.24,1.3-.29.26-.31.54-.6.82-.9.35-.38.45-.73.14-.97Z"/>
      <path class="cls-2" d="M8.76,14.55c.42-.76.8-1.48,1.2-2.18.2-.35.04-.58-.36-.87-2.34-1.66-2.59-1.64-3.35.44-.1.27-.18.54-.3.79-.26.55-.04.95.63,1.28.38.19.76.41,1.14.62.48.26.86.28,1.04-.1Z"/>
      <path class="cls-2" d="M51.77,35.68c.42-.76.8-1.48,1.2-2.18.2-.35.04-.58-.36-.87-2.34-1.66-2.59-1.64-3.35.44-.1.27-.18.54-.3.79-.26.55-.04.95.63,1.28.38.19.76.41,1.14.62.48.26.86.28,1.04-.1Z"/>
      <path class="cls-2" d="M56.69,28.02c-.61-.62-1.19-1.18-1.75-1.76-.28-.29-.55-.2-.93.1-2.26,1.78-2.3,2.02-.52,3.34.23.17.47.33.68.51.45.4.9.31,1.41-.24.29-.32.61-.61.92-.92.39-.39.52-.75.2-1.03Z"/>
      <path class="cls-2" d="M19.75,11.17c-.8.01-1.55.04-2.3.03-.38,0-.49.25-.55.73-.34,2.84-.21,3.04,1.82,2.67.26-.05.52-.11.78-.13.56-.05.79-.44.77-1.17-.01-.43,0-.86,0-1.29,0-.55-.14-.89-.53-.85Z"/>
      <path class="cls-2" d="M36.07,8.52c-.8.01-1.55.04-2.3.03-.38,0-.49.25-.55.73-.34,2.84-.21,3.04,1.82,2.68.26-.05.52-.11.78-.13.56-.05.79-.44.77-1.17-.01-.43,0-.86,0-1.29,0-.55-.14-.89-.53-.85Z"/>
      <path class="cls-2" d="M53.1,17.93c-.46.66-.88,1.28-1.31,1.88-.22.31-.08.55.28.87,2.11,1.93,2.35,1.94,3.23.09.11-.24.21-.49.35-.71.29-.48.11-.9-.5-1.31-.35-.24-.7-.51-1.04-.76-.44-.33-.8-.4-1-.07Z"/>
      <path class="cls-2" d="M11.61,25.29c-.8.01-1.55.04-2.3.03-.38,0-.49.25-.55.73-.34,2.84-.21,3.04,1.82,2.68.26-.05.52-.11.78-.13.56-.05.79-.44.77-1.17-.01-.43,0-.86,0-1.29,0-.55-.14-.89-.53-.85Z"/>
      <path class="cls-2" d="M38.61,21.77c-.61,0-1.19.03-1.76.03-.29,0-.38.19-.42.56-.26,2.17-.16,2.32,1.39,2.05.2-.04.4-.08.6-.1.42-.04.61-.33.59-.89,0-.33,0-.66,0-.98,0-.42-.11-.68-.41-.65Z"/>
      <path class="cls-2" d="M54.62,40.54c-.49.37-.94.73-1.4,1.06-.23.17-.19.38,0,.7,1.08,1.9,1.25,1.97,2.33.82.14-.15.27-.3.42-.43.32-.28.29-.63-.06-1.07-.2-.26-.39-.53-.58-.8-.24-.34-.49-.48-.71-.29Z"/>
      <path class="cls-2" d="M46.74,7.21c-.49.37-.94.73-1.4,1.06-.23.17-.19.38,0,.7,1.08,1.9,1.25,1.97,2.33.82.14-.15.27-.3.42-.43.32-.28.29-.63-.06-1.07-.2-.26-.39-.53-.58-.8-.24-.34-.49-.48-.71-.29Z"/>
      <path class="cls-2" d="M21.72,37.84c-.61.01-1.19.03-1.76.03-.29,0-.38.19-.42.56-.26,2.17-.16,2.32,1.39,2.05.2-.04.4-.08.6-.1.42-.04.61-.33.59-.89,0-.33,0-.66,0-.98,0-.42-.11-.68-.41-.65Z"/>
      <path class="cls-2" d="M44.36,2.65c-.61,0-1.19.03-1.76.03-.29,0-.38.19-.42.56-.26,2.17-.16,2.32,1.39,2.05.2-.04.4-.08.6-.1.42-.04.61-.33.59-.89,0-.33,0-.66,0-.98,0-.42-.11-.68-.41-.65Z"/>
      <path class="cls-2" d="M8.76,35.56c-.8.01-1.55.04-2.3.03-.38,0-.49.25-.55.73-.34,2.84-.21,3.04,1.82,2.68.26-.05.52-.11.78-.13.56-.05.79-.44.77-1.17-.01-.43,0-.86,0-1.29,0-.55-.14-.89-.53-.85Z"/>
      <path class="cls-2" d="M44.65,19.14c-.8.01-1.55.04-2.3.03-.38,0-.49.25-.55.73-.34,2.84-.21,3.04,1.82,2.67.26-.05.52-.11.78-.13.56-.05.79-.44.77-1.17-.01-.43,0-.86,0-1.29,0-.55-.14-.89-.53-.85Z"/>
      <path class="cls-2" d="M26.67,43.68c-.8.01-1.55.04-2.3.03-.38,0-.49.25-.55.73-.34,2.84-.21,3.04,1.82,2.67.26-.05.52-.11.78-.13.56-.05.79-.44.77-1.17-.01-.43,0-.86,0-1.29,0-.55-.14-.89-.53-.85Z"/>
      <path class="cls-2" d="M10.25,33.26c-.12-.87-.24-1.67-.34-2.48-.05-.41-.33-.5-.83-.49-2.69.21-2.67.61-2.45,2.3.07.35.1.59.16.86.12.59.56.8,1.31.67.44-.07.89-.12,1.34-.17.57-.07.9-.28.81-.7Z"/>
      <path class="cls-2" d="M4.91,39.03c-.12-.87-.25-1.67-.34-2.48-.05-.41-.33-.5-.83-.49-2.69.21-2.67.61-2.45,2.3.07.35.1.59.16.86.12.59.56.8,1.31.67.44-.07.89-.12,1.34-.17.57-.07.9-.28.81-.7Z"/>
      <path class="cls-2" d="M27.29,29.39c-.12-.87-.24-1.67-.34-2.48-.05-.41-.33-.5-.84-.49-2.69.21-2.67.61-2.45,2.3.07.35.1.59.16.86.12.59.56.8,1.32.67.44-.07.89-.12,1.34-.17.57-.07.9-.28.81-.7Z"/>
      <path class="cls-2" d="M20.24,30.55c-.54-.69-1.05-1.32-1.54-1.98-.25-.33-.53-.26-.97,0-2.22,1.53-2,1.86-.97,3.22.24.27.38.46.57.67.4.45.88.41,1.47-.08.35-.28.71-.55,1.07-.82.46-.34.64-.69.36-1.01Z"/>
      <path class="cls-2" d="M18.81,53.87c-.54-.69-1.05-1.33-1.54-1.98-.25-.33-.53-.26-.97,0-2.22,1.53-2,1.86-.97,3.22.24.27.38.46.57.67.4.45.88.41,1.47-.08.35-.29.71-.55,1.07-.82.46-.34.64-.69.36-1.01Z"/>
      <path class="cls-2" d="M35.13,28.34c-.54-.69-1.05-1.33-1.54-1.98-.25-.33-.53-.27-.97,0-2.22,1.53-2,1.86-.97,3.22.24.27.38.46.57.67.4.45.88.41,1.47-.08.35-.29.71-.55,1.07-.82.46-.34.64-.69.36-1.01Z"/>
      <path class="cls-2" d="M24.6,23.13c-.54-.69-1.05-1.33-1.54-1.98-.25-.33-.53-.27-.97,0-2.22,1.53-2,1.86-.97,3.22.24.27.38.46.57.67.4.45.88.41,1.47-.08.35-.29.71-.55,1.07-.82.46-.34.64-.69.36-1.01Z"/>
      <path class="cls-2" d="M44.35,25.93c-.87-.07-1.69-.12-2.5-.19-.41-.04-.56.22-.66.71-.37,2.67.03,2.73,1.73,2.88.36,0,.6.02.88.03.61,0,.9-.38.93-1.14.02-.45.08-.9.12-1.34.05-.57-.08-.94-.51-.94Z"/>
      <path class="cls-2" d="M42.89,49.74c-.54-.69-1.05-1.33-1.54-1.98-.25-.33-.53-.27-.97,0-2.22,1.53-2,1.86-.97,3.22.24.27.38.46.57.67.4.45.88.41,1.47-.08.35-.28.71-.55,1.07-.82.46-.34.64-.69.36-1.01Z"/>
    </g>
  </g>
</svg>