<svg width="73" height="20" viewBox="0 0 73 20" fill="none" xmlns="http://www.w3.org/2000/svg">
<path d="M0.35 19V17.218C0.764 17.2 1.106 17.146 1.376 17.056C1.664 16.966 1.88 16.759 2.024 16.435C2.186 16.111 2.267 15.589 2.267 14.869V4.528C2.267 4.042 2.276 3.574 2.294 3.124C2.33 2.674 2.357 2.332 2.375 2.098C2.087 2.116 1.727 2.134 1.295 2.152C0.863 2.152 0.548 2.161 0.35 2.179V0.0999987H13.85L14.012 5.338H12.23C12.23 4.348 12.059 3.601 11.717 3.097C11.375 2.593 10.952 2.26 10.448 2.098C9.944 1.918 9.449 1.837 8.963 1.855L7.991 1.882C7.613 1.882 7.289 1.936 7.019 2.044C6.749 2.134 6.542 2.35 6.398 2.692C6.254 3.016 6.182 3.529 6.182 4.231V8.929H8.963L8.855 6.607H10.934V13.168H9.152C9.152 12.412 9.035 11.863 8.801 11.521C8.567 11.179 8.243 10.972 7.829 10.9C7.433 10.81 6.992 10.774 6.506 10.792H6.182V14.572C6.182 15.058 6.173 15.526 6.155 15.976C6.137 16.426 6.11 16.768 6.074 17.002C6.272 16.984 6.533 16.975 6.857 16.975C7.181 16.957 7.496 16.948 7.802 16.948C8.126 16.93 8.351 16.921 8.477 16.921V19H0.35ZM15.1363 17.245C15.6403 17.245 16.0003 17.146 16.2163 16.948C16.4323 16.75 16.5673 16.471 16.6213 16.111C16.6933 15.733 16.7293 15.31 16.7293 14.842V10.306C16.7293 9.982 16.7383 9.622 16.7563 9.226C16.7743 8.812 16.8013 8.407 16.8373 8.011C16.5493 8.029 16.2073 8.047 15.8113 8.065C15.4333 8.065 15.1453 8.074 14.9473 8.092V6.04H16.0273C16.7293 6.04 17.3683 5.95 17.9443 5.77C18.5383 5.59 18.9253 5.41 19.1053 5.23H20.4283C20.4643 5.41 20.4913 5.752 20.5093 6.256C20.5273 6.742 20.5363 7.174 20.5363 7.552C21.0223 6.958 21.4813 6.481 21.9133 6.121C22.3453 5.761 22.7683 5.5 23.1823 5.338C23.6143 5.158 24.0463 5.068 24.4783 5.068C25.1083 5.068 25.6573 5.248 26.1253 5.608C26.5933 5.95 26.8273 6.517 26.8273 7.309C26.8273 7.579 26.7643 7.867 26.6383 8.173C26.5123 8.461 26.3143 8.704 26.0443 8.902C25.7743 9.1 25.4053 9.199 24.9373 9.199C24.5773 9.199 24.2083 9.091 23.8303 8.875C23.4523 8.659 23.2363 8.245 23.1823 7.633C22.8223 7.633 22.4623 7.786 22.1023 8.092C21.7423 8.38 21.4183 8.731 21.1303 9.145C20.8603 9.541 20.6713 9.91 20.5633 10.252V14.653C20.5633 14.905 20.5543 15.265 20.5363 15.733C20.5183 16.183 20.4913 16.615 20.4553 17.029C20.7433 16.993 21.0583 16.975 21.4003 16.975C21.7603 16.957 22.0303 16.948 22.2103 16.948V19H15.1363V17.245ZM34.513 19.432C33.217 19.432 32.047 19.153 31.003 18.595C29.959 18.037 29.131 17.245 28.519 16.219C27.925 15.175 27.628 13.951 27.628 12.547C27.628 11.053 27.934 9.748 28.546 8.632C29.176 7.498 30.004 6.625 31.03 6.013C32.074 5.383 33.208 5.068 34.432 5.068C35.728 5.068 36.889 5.347 37.915 5.905C38.941 6.463 39.751 7.264 40.345 8.308C40.939 9.334 41.236 10.567 41.236 12.007C41.236 13.519 40.948 14.833 40.372 15.949C39.796 17.065 39.004 17.929 37.996 18.541C36.988 19.135 35.827 19.432 34.513 19.432ZM34.621 17.515C35.341 17.497 35.881 17.245 36.241 16.759C36.619 16.273 36.88 15.661 37.024 14.923C37.168 14.185 37.24 13.438 37.24 12.682C37.24 12.016 37.186 11.341 37.078 10.657C36.988 9.973 36.835 9.352 36.619 8.794C36.403 8.236 36.106 7.786 35.728 7.444C35.368 7.102 34.918 6.94 34.378 6.958C33.676 6.976 33.118 7.228 32.704 7.714C32.308 8.2 32.02 8.812 31.84 9.55C31.678 10.27 31.597 11.026 31.597 11.818C31.597 12.736 31.696 13.636 31.894 14.518C32.092 15.4 32.407 16.129 32.839 16.705C33.289 17.263 33.883 17.533 34.621 17.515ZM43.191 19V17.245C43.695 17.245 44.055 17.146 44.271 16.948C44.487 16.75 44.622 16.471 44.676 16.111C44.748 15.733 44.784 15.31 44.784 14.842V10.306C44.784 9.982 44.793 9.622 44.811 9.226C44.829 8.812 44.856 8.407 44.892 8.011C44.604 8.029 44.262 8.047 43.866 8.065C43.488 8.065 43.2 8.074 43.002 8.092V6.04C43.83 6.04 44.532 5.995 45.108 5.905C45.684 5.815 46.134 5.707 46.458 5.581C46.8 5.455 47.034 5.338 47.16 5.23H48.483C48.519 5.41 48.537 5.635 48.537 5.905C48.555 6.175 48.573 6.4 48.591 6.58C49.203 6.112 49.86 5.743 50.562 5.473C51.282 5.203 51.957 5.068 52.587 5.068C53.415 5.068 54.099 5.221 54.639 5.527C55.179 5.815 55.611 6.256 55.935 6.85C56.583 6.31 57.294 5.878 58.068 5.554C58.86 5.23 59.616 5.068 60.336 5.068C61.794 5.068 62.892 5.491 63.63 6.337C64.386 7.165 64.764 8.614 64.764 10.684V14.653C64.764 14.905 64.755 15.265 64.737 15.733C64.719 16.183 64.692 16.615 64.656 17.029C64.944 16.993 65.259 16.975 65.601 16.975C65.961 16.957 66.231 16.948 66.411 16.948V19H59.58V17.245C59.994 17.245 60.291 17.146 60.471 16.948C60.669 16.75 60.795 16.471 60.849 16.111C60.903 15.733 60.93 15.31 60.93 14.842V10.711C60.912 9.541 60.714 8.731 60.336 8.281C59.976 7.831 59.49 7.597 58.878 7.579C58.41 7.561 57.969 7.642 57.555 7.822C57.159 8.002 56.799 8.218 56.475 8.47C56.565 8.83 56.628 9.226 56.664 9.658C56.7 10.09 56.718 10.549 56.718 11.035C56.718 11.647 56.718 12.25 56.718 12.844C56.718 13.438 56.718 14.041 56.718 14.653C56.718 14.905 56.709 15.265 56.691 15.733C56.673 16.183 56.646 16.615 56.61 17.029C56.898 16.993 57.213 16.975 57.555 16.975C57.897 16.957 58.167 16.948 58.365 16.948V19H51.399V17.245C51.867 17.245 52.2 17.146 52.398 16.948C52.614 16.75 52.749 16.471 52.803 16.111C52.857 15.733 52.884 15.31 52.884 14.842L52.857 10.63C52.857 9.46 52.686 8.659 52.344 8.227C52.002 7.795 51.525 7.57 50.913 7.552C50.463 7.552 50.04 7.651 49.644 7.849C49.266 8.047 48.924 8.281 48.618 8.551C48.618 8.785 48.618 9.01 48.618 9.226C48.618 9.442 48.618 9.667 48.618 9.901V14.653C48.618 14.905 48.609 15.265 48.591 15.733C48.573 16.183 48.546 16.615 48.51 17.029C48.798 16.993 49.095 16.975 49.401 16.975C49.707 16.957 49.95 16.948 50.13 16.948V19H43.191ZM70.0809 19.432C69.5049 19.432 69.0279 19.225 68.6499 18.811C68.2899 18.397 68.1099 17.902 68.1099 17.326C68.1099 16.75 68.3079 16.255 68.7039 15.841C69.0999 15.427 69.5589 15.22 70.0809 15.22C70.6389 15.22 71.0979 15.427 71.4579 15.841C71.8359 16.255 72.0249 16.75 72.0249 17.326C72.0249 17.902 71.8449 18.397 71.4849 18.811C71.1429 19.225 70.6749 19.432 70.0809 19.432Z" fill="#FF4F4A"/>
</svg>
