<?xml version="1.0" encoding="UTF-8"?>
<svg id="_C__1" data-name="©©C©₩[_1" xmlns="http://www.w3.org/2000/svg" viewBox="350 280 900 660">
  <defs>
    <style>
      .cls-1 {
        fill: #dedede;
      }

      .cls-2 {
        fill: #fa4b4b;
      }

      .cls-3 {
        fill: #f2f2f2;
      }
    </style>
  </defs>
  <rect class="cls-3" x="369.03" y="297.5" width="861.94" height="605.01" rx="72.72" ry="72.72"/>
  <path class="cls-1" d="M929.45,579.22l288.96-249.86c-5.86-8.61-13.56-15.83-22.48-21.26l-395.93,342.37-395.93-342.37c-8.92,5.42-16.62,12.65-22.48,21.26l288.96,249.86-289.9,289.9c5.62,8.72,13.05,16.14,21.76,21.77l291.48-291.48,96.04,83.05c2.89,2.5,6.48,3.75,10.07,3.75s7.18-1.25,10.07-3.75l96.04-83.05,291.42,291.42s.04.03.06.05c8.71-5.62,16.13-13.04,21.76-21.75-.02-.02-.03-.04-.06-.07l-289.84-289.84Z"/>
  <path class="cls-2" d="M865.64,497.01c-49.47-5.62-62.43,38.34-62.43,38.34,0,0-12.96-43.96-62.43-38.34-33.08,3.76-49.95,36.55-49.11,68.19,1.89,70.71,57.69,110.27,89.63,127.19,13.74,7.27,30.07,7.27,43.81,0,31.94-16.91,87.75-56.48,89.63-127.19.84-31.64-16.03-64.43-49.11-68.19Z"/>
</svg>