<?xml version="1.0" encoding="UTF-8"?>
<svg xmlns="http://www.w3.org/2000/svg" viewBox="0 0 315.07 630.13">
  <defs>
    <style>
      .cls-1 {
        fill: #ec7bac;
      }

      .cls-2 {
        fill: #c41421;
        mix-blend-mode: multiply;
      }

      .cls-3 {
        fill: #fff;
        font-family: Marion-Bold, Marion;
        font-size: 27.64px;
        font-weight: 700;
      }

      .cls-4 {
        isolation: isolate;
      }
    </style>
  </defs>
  <g class="cls-4">
    <g id="_레이어_2" data-name="레이어 2">
      <g id="Layer_1" data-name="Layer 1">
        <path class="cls-1" d="M31.79,630.06s0,.05,0,.08h252.06s0-.05,0-.08c0-17.3,13.95-31.34,31.22-31.49V31.42C297.83,31.26,283.89,17.27,283.85,0H31.79c-.04,17.37-14.13,31.43-31.5,31.43-.1,0-.19-.01-.29-.01v567.15c.1,0,.19-.01.29-.01,17.4,0,31.51,14.11,31.51,31.51Z"/>
        <path class="cls-2" d="M293.16,45.68c-11.54-5.16-20.71-14.38-25.83-25.93-.3-.67-.96-1.1-1.69-1.1H46.71c-.73,0-1.4.43-1.7,1.11-5.2,11.79-14.57,21.1-26.4,26.21-.68.29-1.12.96-1.12,1.7v533.64c0,.74.44,1.41,1.12,1.7,11.9,5.13,21.3,14.49,26.48,26.37.29.67.96,1.11,1.7,1.11h218.77c.74,0,1.4-.44,1.7-1.11,5.1-11.64,14.3-20.91,25.9-26.09.67-.3,1.1-.96,1.1-1.69V47.38c0-.73-.43-1.39-1.1-1.69ZM290.55,580.4c-11.56,5.47-20.79,14.77-26.19,26.37H47.99c-5.48-11.84-14.92-21.25-26.79-26.68V48.87c11.8-5.41,21.21-14.75,26.71-26.51h216.54c5.4,11.52,14.61,20.76,26.1,26.21v531.84Z"/>
        <path class="cls-2" d="M28.93,134.9c0,.51.41.93.93.93h252.05c.51,0,.93-.41.93-.93s-.41-.93-.93-.93H29.86c-.51,0-.93.41-.93.93Z"/>
        <g>
          <path class="cls-2" d="M72.83,88.97c.07-.03.12-.1.12-.17v-.43c0-.1-.08-.18-.18-.18h-6.52c-.1,0-.18.08-.18.18v.43c0,.08.05.15.12.17l2.67,1.03-5.87,21.61-6.71-22.02,2.42-.6c.08-.02.14-.09.14-.18v-.43c0-.1-.08-.18-.18-.18h-9.13c-.1,0-.18.08-.18.18v.43c0,.08.06.16.14.18l2.51.63,9.1,29.89c.02.08.1.13.18.13h.65c.08,0,.16-.06.18-.14l8.02-29.47,2.74-1.05Z"/>
          <path class="cls-2" d="M91.46,118.18l-2.51-.63-9.1-29.89c-.02-.08-.1-.13-.18-.13h-.65c-.08,0-.15.05-.18.13l-8.45,29.47-2.74,1.05c-.07.03-.12.1-.12.17v.43c0,.1.08.18.18.18h6.52c.1,0,.18-.08.18-.18v-.43c0-.08-.05-.14-.12-.17l-2.67-1.03,2.09-7.09h8.64s2.29,7.51,2.29,7.51l-2.42.61c-.08.02-.14.09-.14.18v.43c0,.1.08.18.18.18h9.13c.1,0,.18-.08.18-.18v-.43c0-.08-.06-.16-.14-.18ZM82,108.87h-7.94s3.85-13.55,3.85-13.55l4.09,13.55Z"/>
          <path class="cls-2" d="M110.25,113.02c.03-.4.07-.79.13-1.16,0-.05,0-.11-.04-.15-.04-.04-.09-.06-.14-.06h-.43s-.1.02-.13.05c-.77.77-1.41,1.69-1.91,2.75-.48,1.01-.73,2.11-.75,3.28h-7.46v-28.14s2.47-.62,2.47-.62c.08-.02.14-.09.14-.18v-.43c0-.1-.08-.18-.18-.18h-8.91c-.1,0-.18.08-.18.18v.43c0,.08.06.16.14.18l2.47.62v27.97s-2.47.62-2.47.62c-.08.02-.14.09-.14.18v.43c0,.1.08.18.18.18h17.17c.06,0,.11-.03.14-.07.03-.04.05-.1.04-.16-.06-.25-.1-.55-.13-.89-.03-.31-.05-.68-.06-1.1-.02-.42-.02-.9-.02-1.45,0-.37,0-.76.02-1.17.01-.4.04-.78.06-1.12Z"/>
          <path class="cls-2" d="M130.89,113.02c.03-.4.07-.79.13-1.16,0-.05,0-.11-.04-.15-.04-.04-.09-.06-.14-.06h-.43s-.1.02-.13.05c-.77.77-1.41,1.69-1.91,2.75-.48,1.01-.73,2.11-.75,3.28h-8.33v-14.41h3.83s1.91,3.81,1.91,3.81c.03.06.1.1.17.1h.43c.1,0,.18-.08.18-.18v-8.69c0-.1-.08-.18-.18-.18h-.43c-.07,0-.13.04-.17.1l-1.91,3.81h-3.83v-12.67h7.89c.02,1.17.28,2.28.75,3.28.5,1.06,1.14,1.98,1.91,2.75.03.03.08.05.13.05h.43c.05,0,.11-.02.14-.06s.05-.1.04-.15c-.06-.37-.1-.76-.13-1.16-.03-.34-.05-.71-.06-1.1-.02-.39-.02-.78-.02-1.19,0-.55,0-1.03.02-1.45.01-.42.04-.79.06-1.1.03-.34.07-.64.13-.89.01-.05,0-.11-.04-.16-.03-.04-.09-.07-.14-.07h-17.61c-.1,0-.18.08-.18.18v.43c0,.08.06.16.14.18l2.47.62v27.97s-2.47.62-2.47.62c-.08.02-.14.09-.14.18v.43c0,.1.08.18.18.18h18.04c.06,0,.11-.03.14-.07.04-.04.05-.1.04-.16-.06-.25-.1-.55-.13-.89-.03-.31-.05-.68-.06-1.1-.02-.42-.02-.9-.02-1.45,0-.37,0-.76.02-1.17.01-.4.04-.78.06-1.12Z"/>
          <path class="cls-2" d="M155.56,88.18h-6.52c-.1,0-.18.08-.18.18v.43c0,.08.05.15.12.17l2.71,1.04v20.45s-12.04-22.18-12.04-22.18c-.03-.06-.09-.1-.16-.1h-5.87c-.1,0-.18.08-.18.18v.43c0,.08.05.15.13.18l2.69.83v27.34s-2.71,1.04-2.71,1.04c-.07.03-.12.1-.12.17v.43c0,.1.08.18.18.18h6.52c.1,0,.18-.08.18-.18v-.43c0-.08-.05-.15-.12-.17l-2.71-1.04v-24.36s14.43,26.53,14.43,26.53c.03.06.09.1.16.1h.65c.1,0,.18-.08.18-.18v-29.22s2.71-1.04,2.71-1.04c.07-.03.12-.1.12-.17v-.43c0-.1-.08-.18-.18-.18Z"/>
          <path class="cls-2" d="M176.94,93.03c-.02-.39-.02-.78-.02-1.19,0-.55,0-1.03.02-1.45.01-.41.04-.78.06-1.1.03-.34.07-.64.13-.89.01-.05,0-.11-.04-.16-.04-.04-.09-.07-.14-.07h-18.91c-.05,0-.1.02-.14.06-.03.04-.05.09-.05.14.03.26.06.56.09.91.03.32.06.69.09,1.1.03.42.04.91.04,1.44,0,.39-.01.79-.04,1.18-.03.39-.06.76-.09,1.11-.03.41-.06.8-.09,1.17,0,.05.01.1.05.14.03.04.08.06.14.06h.43s.1-.02.13-.05c.76-.77,1.41-1.69,1.9-2.75.48-1.01.73-2.11.75-3.28h4.2v28.14s-2.47.62-2.47.62c-.08.02-.14.09-.14.18v.43c0,.1.08.18.18.18h8.91c.1,0,.18-.08.18-.18v-.43c0-.08-.06-.16-.14-.18l-2.47-.62v-28.14h4.2c.02,1.17.28,2.28.75,3.28.5,1.06,1.14,1.98,1.91,2.75.03.03.08.05.13.05h.43c.05,0,.11-.02.14-.06.03-.04.05-.1.04-.15-.06-.37-.1-.76-.13-1.16-.03-.35-.05-.71-.06-1.1Z"/>
          <path class="cls-2" d="M188.47,88.18h-8.91c-.1,0-.18.08-.18.18v.43c0,.08.06.16.14.18l2.47.62v27.97s-2.47.62-2.47.62c-.08.02-.14.09-.14.18v.43c0,.1.08.18.18.18h8.91c.1,0,.18-.08.18-.18v-.43c0-.08-.06-.16-.14-.18l-2.47-.62v-27.97s2.47-.62,2.47-.62c.08-.02.14-.09.14-.18v-.43c0-.1-.08-.18-.18-.18Z"/>
          <path class="cls-2" d="M213.2,88.18h-6.52c-.1,0-.18.08-.18.18v.43c0,.08.05.15.12.17l2.71,1.04v20.45s-12.04-22.18-12.04-22.18c-.03-.06-.09-.1-.16-.1h-5.87c-.1,0-.18.08-.18.18v.43c0,.08.05.15.13.18l2.69.83v27.34s-2.71,1.04-2.71,1.04c-.07.03-.12.1-.12.17v.43c0,.1.08.18.18.18h6.52c.1,0,.18-.08.18-.18v-.43c0-.08-.05-.15-.12-.17l-2.71-1.04v-24.36s14.43,26.53,14.43,26.53c.03.06.09.1.16.1h.65c.1,0,.18-.08.18-.18v-29.22s2.71-1.04,2.71-1.04c.07-.03.12-.1.12-.17v-.43c0-.1-.08-.18-.18-.18Z"/>
          <path class="cls-2" d="M234.07,113.02c.03-.4.07-.79.13-1.16,0-.05,0-.11-.04-.15-.04-.04-.09-.06-.14-.06h-.43s-.1.02-.13.05c-.76.76-1.41,1.69-1.91,2.75-.48,1.01-.73,2.11-.75,3.28h-8.33v-14.41h3.83s1.9,3.81,1.9,3.81c.03.06.1.1.17.1h.43c.1,0,.18-.08.18-.18v-8.69c0-.1-.08-.18-.18-.18h-.43c-.07,0-.13.04-.17.1l-1.9,3.81h-3.83v-12.67h7.89c.02,1.17.28,2.28.75,3.28.5,1.06,1.14,1.98,1.91,2.75.03.03.08.05.13.05h.43c.05,0,.11-.02.14-.06s.05-.1.04-.15c-.06-.37-.1-.76-.13-1.16-.03-.35-.05-.71-.06-1.1-.01-.39-.02-.78-.02-1.19,0-.55,0-1.03.02-1.45.01-.41.04-.78.06-1.1.03-.34.07-.64.13-.89.01-.05,0-.11-.04-.16-.04-.04-.09-.07-.14-.07h-17.6c-.1,0-.18.08-.18.18v.43c0,.08.06.16.14.18l2.47.62v27.97s-2.47.62-2.47.62c-.08.02-.14.09-.14.18v.43c0,.1.08.18.18.18h18.04c.06,0,.11-.03.14-.07.04-.04.05-.1.04-.16-.06-.25-.1-.55-.13-.89-.03-.32-.05-.69-.06-1.1-.01-.42-.02-.9-.02-1.45,0-.37,0-.76.02-1.17.01-.4.04-.78.06-1.12Z"/>
          <path class="cls-2" d="M239.58,87.74c-.71,0-1.33.25-1.83.75-.5.5-.75,1.11-.75,1.83s.22,1.29.64,1.72c.43.43,1,.64,1.72.64.19,0,.41-.03.65-.09.05-.01.1-.03.14-.05.03.05.05.11.08.17.01.04.03.1.03.22,0,.51-.13.96-.38,1.33-.26.39-.55.71-.86.96-.36.31-.79.58-1.26.8-.05.02-.08.06-.1.12-.01.05,0,.11.02.15l.43.7c.03.06.09.09.16.09.02,0,.04,0,.06-.01.72-.27,1.35-.68,1.89-1.22.48-.48.92-1.12,1.32-1.92.4-.8.61-1.87.61-3.17,0-.91-.25-1.65-.74-2.19-.5-.54-1.12-.82-1.83-.82Z"/>
          <path class="cls-2" d="M261.37,106.96c-.7-1.2-1.59-2.26-2.65-3.16-1.05-.89-2.2-1.69-3.44-2.39-1.22-.69-2.36-1.4-3.4-2.12-1.02-.71-1.89-1.5-2.57-2.33-.66-.82-1-1.81-1-2.95,0-1.59.46-2.88,1.38-3.83.92-.94,2.07-1.42,3.43-1.42,1.68,0,3.11.62,4.26,1.83,1.16,1.23,2.08,3.06,2.74,5.42.02.08.1.14.18.14h.65c.05,0,.1-.02.14-.06.04-.04.05-.09.04-.15-.06-.43-.1-.88-.13-1.34-.03-.4-.05-.84-.06-1.32-.01-.48-.02-.96-.02-1.45,0-.43,0-.87.02-1.32.01-.45.04-.87.06-1.28.03-.42.07-.86.13-1.29,0-.05,0-.11-.04-.15s-.09-.06-.14-.06h-.65s-.03,0-.05,0c-.46.12-.91.39-1.32.78-.34.33-.63.68-.85,1.06-.4-.35-.83-.67-1.3-.96-.47-.26-1.05-.52-1.73-.75-.68-.24-1.48-.36-2.36-.36-1.06,0-2.07.19-2.98.58-.92.38-1.73.92-2.41,1.58-.68.67-1.22,1.45-1.61,2.34-.38.89-.58,1.85-.58,2.86,0,1.74.36,3.23,1.07,4.44.7,1.2,1.59,2.26,2.65,3.16,1.05.89,2.2,1.69,3.44,2.39,1.22.69,2.36,1.4,3.4,2.12,1.02.71,1.89,1.5,2.57,2.33.66.82,1,1.81,1,2.95,0,1.91-.53,3.43-1.58,4.5-1.05,1.07-2.43,1.62-4.11,1.62-2.11,0-3.8-.62-5.02-1.84-1.23-1.23-2.19-3.06-2.84-5.42-.02-.08-.1-.14-.18-.14h-.65c-.05,0-.1.02-.13.06-.03.04-.05.09-.05.14l.09,1.35c.03.41.06.85.09,1.32.03.48.04.97.04,1.45,0,.42-.01.87-.04,1.34-.03.46-.06.88-.09,1.26-.03.46-.06.9-.09,1.3,0,.05.01.1.05.14.03.04.08.06.13.06h.65s.03,0,.05,0c.46-.12.91-.39,1.32-.78.34-.33.62-.68.85-1.05.39.35.85.67,1.39.95.53.3,1.2.56,2,.78.79.22,1.76.33,2.87.33,1.21,0,2.34-.21,3.37-.62,1.03-.41,1.94-1,2.69-1.74.75-.74,1.34-1.62,1.76-2.63.41-1,.62-2.1.62-3.24,0-1.73-.36-3.23-1.07-4.44Z"/>
        </g>
        <path class="cls-2" d="M171.51,40.79c-9.48-4.93-13.98,5.09-13.98,5.09,0,0-4.5-10.03-13.98-5.09-9.48,4.93-3.21,22.12,13.98,33.9,17.19-11.78,23.46-28.97,13.98-33.9Z"/>
        <path class="cls-2" d="M30.91,533.45c0,.51.41.93.93.93h252.05c.51,0,.93-.41.93-.93s-.41-.93-.93-.93H31.83c-.51,0-.93.41-.93.93Z"/>
        <text class="cls-3" transform="translate(37.91 567.11)"><tspan x="0" y="0">From</tspan></text>
      </g>
    </g>
  </g>
</svg>