<?xml version="1.0" encoding="UTF-8"?>
<svg id="_레이어_2" data-name="레이어 2" xmlns="http://www.w3.org/2000/svg" viewBox="0 0 2103.17 2103.17">
  <defs>
    <style>
      .cls-1 {
        fill: #fff;
      }
    </style>
  </defs>
  <g id="Layer_1" data-name="Layer 1">
    <g>
      <path class="cls-1" d="M1306.92,1520.14l-431.05,431.05c-200.99,200.99-525.82,202.64-728.82,4.94-197.71-203.01-196.06-527.85,4.93-728.84l405.59-405.59c28.21-28.21,58.86-52.5,91.27-72.85,128.33-80.6,284.26-99.64,425.63-57.08,34.27,10.3,67.69,24.23,99.64,41.78,40.13,22.03,77.96,49.77,112.3,83.22,2.39,2.45,4.75,4.92,7.07,7.41,48.69,51.97,47.11,133.24-3.82,183.01l-8.82,8.62c-52.5,51.31-136.82,49.18-186.95-4.44-.33-.36-.67-.71-1.01-1.07,1.7,1.6,3.37,3.23,5.03,4.89l-9.92-9.92c1.66,1.66,3.3,3.34,4.89,5.03-35.6-33.67-79.57-55.5-127.13-63.52-13.51-2.28-27.3-3.43-41.27-3.43-5.4,0-10.79.17-16.14.52-18.72,1.21-37.04,4.51-54.67,9.81-38.36,11.5-73.5,32.39-102.62,61.51l-405.59,405.59c-42.5,42.5-67.48,97.84-71.32,157.29-.35,5.35-.52,10.73-.52,16.14,0,63.17,23.72,122.69,66.96,168.4-1.7-1.6-3.37-3.23-5.03-4.89l9.92,9.92c-1.65-1.65-3.29-3.33-4.89-5.03,45.7,43.23,105.22,66.93,168.38,66.94,5.41,0,10.79-.17,16.14-.52,59.45-3.84,114.79-28.82,157.29-71.32l267.82-267.82c.37.15.75.3,1.12.45,73.8,29.1,151.6,43.61,231.22,43.11,42.12-.26,83.69-4.72,124.36-13.3Z"/>
      <path class="cls-1" d="M1951.18,875.88l-405.59,405.59c-28.21,28.21-58.87,52.5-91.28,72.85-128.33,80.6-284.26,99.63-425.61,57.08-34.28-10.31-67.69-24.23-99.65-41.79-40.13-22.03-77.95-49.77-112.28-83.21-2.39-2.45-4.75-4.92-7.07-7.41-48.69-51.97-47.12-133.26,3.82-183.03l8.8-8.6c52.51-51.31,136.84-49.19,186.97,4.44.33.36.67.71,1.01,1.07-1.7-1.6-3.37-3.23-5.03-4.89l9.92,9.92c-1.65-1.65-3.29-3.33-4.89-5.03,35.6,33.67,79.57,55.5,127.13,63.51,13.49,2.28,27.28,3.44,41.25,3.44,5.41,0,10.79-.17,16.14-.52,18.72-1.22,37.05-4.52,54.67-9.81,38.36-11.5,73.5-32.39,102.62-61.5l405.59-405.59c42.5-42.5,67.49-97.85,71.32-157.29.35-5.35.52-10.73.52-16.14,0-63.17-23.71-122.69-66.93-168.39,1.7,1.6,3.37,3.23,5.03,4.89l-9.92-9.92c1.66,1.66,3.3,3.34,4.89,5.03-45.71-43.23-105.23-66.95-168.4-66.95-5.4,0-10.79.17-16.14.52-59.44,3.83-114.78,28.81-157.29,71.32l-267.82,267.82c-.37-.15-.75-.3-1.12-.45-73.8-29.11-151.6-43.61-231.22-43.12-42.14.26-83.69,4.72-124.37,13.31l431.05-431.05c200.99-200.99,525.83-202.64,728.84-4.93,197.7,203,196.05,527.83-4.94,728.82Z"/>
    </g>
  </g>
</svg>