<svg width="281" height="47" viewBox="0 0 281 47" fill="none" xmlns="http://www.w3.org/2000/svg">
<path d="M16.36 34.45C15.34 31.96 14.32 29.485 13.3 27.025C12.31 24.565 11.305 22.105 10.285 19.645C10.045 19.075 9.73 18.28 9.34 17.26C8.98 16.21 8.59 15.01 8.17 13.66C7.78 12.31 7.42 10.915 7.09 9.475C7.15 11.155 7.195 12.745 7.225 14.245C7.255 15.715 7.255 17.125 7.225 18.475C7.225 19.135 7.225 19.81 7.225 20.5C7.225 21.19 7.21 21.88 7.18 22.57C7.18 23.23 7.18 23.905 7.18 24.595C7.18 25.255 7.18 25.93 7.18 26.62C7.18 27.43 7.15 28.21 7.09 28.96C7.06 29.71 7.015 30.28 6.955 30.67C7.465 30.61 8.08 30.58 8.8 30.58C9.55 30.55 10.075 30.535 10.375 30.535V34H0.115V31.03C0.805 31 1.375 30.91 1.825 30.76C2.305 30.61 2.665 30.265 2.905 29.725C3.175 29.185 3.31 28.315 3.31 27.115L3.58 9.88C3.61 9.07 3.64 8.29 3.67 7.54C3.7 6.79 3.73 6.22 3.76 5.83C3.28 5.86 2.68 5.89 1.96 5.92C1.24 5.92 0.715 5.935 0.385 5.965V2.5H10.33L17.125 19.915C17.395 20.605 17.695 21.415 18.025 22.345C18.355 23.245 18.67 24.13 18.97 25C19.27 25.84 19.495 26.515 19.645 27.025H19.69C20.08 25.975 20.44 24.955 20.77 23.965C21.1 22.975 21.445 22.015 21.805 21.085C22.975 17.965 24.13 14.86 25.27 11.77C26.44 8.68 27.61 5.59 28.78 2.5H39.175V5.47C38.515 5.5 37.93 5.59 37.42 5.74C36.91 5.89 36.52 6.235 36.25 6.775C36.01 7.285 35.905 8.155 35.935 9.385L36.61 26.62C36.67 27.43 36.67 28.21 36.61 28.96C36.55 29.71 36.49 30.28 36.43 30.67C36.94 30.61 37.555 30.58 38.275 30.58C39.025 30.55 39.55 30.535 39.85 30.535V34H27.34V31.03C28.03 31 28.615 30.91 29.095 30.76C29.605 30.61 29.98 30.265 30.22 29.725C30.49 29.185 30.595 28.315 30.535 27.115L30.175 17.575C30.175 17.215 30.145 16.6 30.085 15.73C30.025 14.83 29.965 13.855 29.905 12.805C29.875 11.725 29.845 10.72 29.815 9.79C29.725 10 29.635 10.21 29.545 10.42C29.455 10.6 29.38 10.795 29.32 11.005L20.545 34.45H16.36ZM46.8914 46.195C45.7514 46.195 44.7764 45.85 43.9664 45.16C43.1864 44.5 42.7964 43.615 42.7964 42.505C42.7964 41.695 43.0514 40.975 43.5614 40.345C44.1014 39.745 44.7914 39.43 45.6314 39.4C46.2914 39.37 46.8464 39.58 47.2964 40.03C47.7764 40.51 48.0164 41.155 48.0164 41.965C48.0164 42.055 48.0164 42.145 48.0164 42.235C48.0164 42.325 48.0014 42.43 47.9714 42.55C48.0314 42.55 48.1064 42.535 48.1964 42.505C48.4664 42.415 48.7514 42.16 49.0514 41.74C49.3814 41.35 49.6964 40.825 49.9964 40.165C50.3264 39.475 50.6414 38.695 50.9414 37.825C51.2714 36.985 51.5564 36.1 51.7964 35.17L44.6864 20.905C43.8464 19.225 43.2914 17.965 43.0214 17.125C42.7814 16.255 42.6164 15.49 42.5264 14.83L40.4564 14.92V11.5H51.6614V14.38C50.5514 14.5 49.9364 14.92 49.8164 15.64C49.7264 16.36 49.8614 17.11 50.2214 17.89L54.6314 27.97C54.9314 27.19 55.3214 25.99 55.8014 24.37C56.2814 22.72 56.8514 20.935 57.5114 19.015C57.6314 18.625 57.7814 18.175 57.9614 17.665C58.1714 17.125 58.3964 16.6 58.6364 16.09C58.8764 15.55 59.1314 15.115 59.4014 14.785L56.8364 14.92V11.5H64.8464V14.38C63.9164 14.59 63.1364 15.16 62.5064 16.09C61.9064 17.02 61.3664 18.16 60.8864 19.51L55.2614 35.575C54.4214 38.005 53.6264 40 52.8764 41.56C52.1264 43.15 51.2864 44.32 50.3564 45.07C49.4264 45.82 48.2714 46.195 46.8914 46.195ZM91.2379 34.27L80.8879 10.105C80.5879 9.355 80.3029 8.575 80.0329 7.765C79.7629 6.955 79.6279 6.31 79.6279 5.83C79.1479 5.86 78.6979 5.89 78.2779 5.92C77.8879 5.92 77.5279 5.935 77.1979 5.965V2.5H90.4729V5.47C89.3629 5.44 88.5079 5.68 87.9079 6.19C87.3379 6.7 87.3229 7.615 87.8629 8.935C88.5529 10.615 89.2429 12.31 89.9329 14.02C90.6229 15.73 91.3129 17.425 92.0029 19.105C92.5129 20.365 92.9479 21.475 93.3079 22.435C93.6679 23.365 94.0879 24.4 94.5679 25.54H94.6129C94.9429 24.64 95.2879 23.635 95.6479 22.525C96.0379 21.415 96.4129 20.35 96.7729 19.33C97.1629 18.28 97.5379 17.23 97.8979 16.18C98.2879 15.13 98.6779 14.095 99.0679 13.075C99.4579 12.025 99.8329 10.975 100.193 9.925C100.343 9.415 100.583 8.725 100.913 7.855C101.273 6.985 101.648 6.31 102.038 5.83C101.558 5.86 100.943 5.89 100.193 5.92C99.4429 5.92 98.9029 5.935 98.5729 5.965V2.5H108.698V5.47C107.678 5.5 106.793 5.875 106.043 6.595C105.293 7.315 104.588 8.545 103.928 10.285C103.418 11.605 102.908 12.94 102.398 14.29C101.918 15.61 101.423 16.945 100.913 18.295C100.433 19.615 99.9379 20.95 99.4279 22.3C98.9179 23.62 98.4079 24.955 97.8979 26.305C97.4179 27.625 96.9229 28.945 96.4129 30.265C95.9329 31.585 95.4379 32.92 94.9279 34.27H91.2379ZM119.406 34C119.346 33.58 119.301 33.235 119.271 32.965C119.271 32.665 119.256 32.32 119.226 31.93C118.206 32.95 117.126 33.67 115.986 34.09C114.846 34.51 113.691 34.72 112.521 34.72C110.601 34.72 109.101 34.15 108.021 33.01C106.941 31.87 106.401 30.445 106.401 28.735C106.401 27.295 106.761 26.065 107.481 25.045C108.231 24.025 109.206 23.2 110.406 22.57C111.636 21.91 112.986 21.415 114.456 21.085C115.956 20.725 117.456 20.515 118.956 20.455V18.115C118.956 17.335 118.851 16.63 118.641 16C118.461 15.37 118.131 14.875 117.651 14.515C117.201 14.155 116.556 13.99 115.716 14.02C115.146 14.05 114.591 14.17 114.051 14.38C113.511 14.59 113.046 14.89 112.656 15.28C112.896 15.55 113.046 15.85 113.106 16.18C113.166 16.48 113.196 16.75 113.196 16.99C113.196 17.59 112.956 18.22 112.476 18.88C111.996 19.51 111.231 19.81 110.181 19.78C109.281 19.75 108.591 19.435 108.111 18.835C107.631 18.235 107.391 17.53 107.391 16.72C107.391 15.52 107.811 14.485 108.651 13.615C109.521 12.715 110.676 12.025 112.116 11.545C113.556 11.035 115.146 10.78 116.886 10.78C119.526 10.78 121.566 11.47 123.006 12.85C124.476 14.2 125.211 16.375 125.211 19.375C125.211 20.395 125.211 21.265 125.211 21.985C125.211 22.705 125.196 23.425 125.166 24.145C125.166 24.865 125.166 25.735 125.166 26.755C125.166 27.175 125.151 27.775 125.121 28.555C125.091 29.305 125.046 30.025 124.986 30.715C125.496 30.655 126.036 30.625 126.606 30.625C127.176 30.595 127.611 30.58 127.911 30.58V34H119.406ZM118.911 23.65C118.071 23.74 117.276 23.89 116.526 24.1C115.776 24.31 115.116 24.595 114.546 24.955C114.006 25.315 113.571 25.75 113.241 26.26C112.941 26.77 112.791 27.34 112.791 27.97C112.821 28.81 113.091 29.41 113.601 29.77C114.111 30.13 114.696 30.31 115.356 30.31C116.046 30.31 116.691 30.16 117.291 29.86C117.891 29.56 118.431 29.17 118.911 28.69C118.911 28.39 118.911 28.105 118.911 27.835C118.911 27.535 118.911 27.235 118.911 26.935C118.911 26.395 118.911 25.855 118.911 25.315C118.911 24.745 118.911 24.19 118.911 23.65ZM129.774 31.075C130.614 31.075 131.214 30.91 131.574 30.58C131.964 30.25 132.204 29.785 132.294 29.185C132.384 28.555 132.429 27.85 132.429 27.07V8.575C132.429 8.035 132.444 7.42 132.474 6.73C132.504 6.01 132.549 5.32 132.609 4.66C132.129 4.69 131.559 4.72 130.899 4.75C130.269 4.75 129.789 4.765 129.459 4.795V1.375C130.869 1.375 132.039 1.3 132.969 1.15C133.929 0.999999 134.679 0.819999 135.219 0.609998C135.789 0.399999 136.179 0.204999 136.389 0.0249975H138.819V26.755C138.819 27.175 138.804 27.775 138.774 28.555C138.744 29.305 138.699 30.025 138.639 30.715C139.149 30.655 139.689 30.625 140.259 30.625C140.829 30.595 141.264 30.58 141.564 30.58V34H129.774V31.075ZM155.178 34.72C152.988 34.72 151.053 34.24 149.373 33.28C147.693 32.29 146.388 30.91 145.458 29.14C144.528 27.34 144.063 25.225 144.063 22.795C144.063 20.695 144.528 18.73 145.458 16.9C146.388 15.07 147.693 13.6 149.373 12.49C151.083 11.35 153.063 10.78 155.313 10.78C156.573 10.78 157.803 10.96 159.003 11.32C160.203 11.65 161.283 12.235 162.243 13.075C163.233 13.915 164.013 15.055 164.583 16.495C165.183 17.935 165.468 19.735 165.438 21.895L150.678 22.165C150.678 23.785 150.873 25.24 151.263 26.53C151.683 27.82 152.358 28.84 153.288 29.59C154.218 30.34 155.463 30.715 157.023 30.715C157.623 30.715 158.298 30.61 159.048 30.4C159.828 30.19 160.608 29.845 161.388 29.365C162.198 28.855 162.948 28.18 163.638 27.34L165.663 29.23C164.583 30.76 163.428 31.93 162.198 32.74C160.968 33.52 159.738 34.045 158.508 34.315C157.308 34.585 156.198 34.72 155.178 34.72ZM150.948 19.015H159.228C159.198 17.755 159.018 16.765 158.688 16.045C158.388 15.295 157.968 14.755 157.428 14.425C156.888 14.095 156.258 13.93 155.538 13.93C154.218 13.93 153.183 14.41 152.433 15.37C151.683 16.3 151.188 17.515 150.948 19.015ZM168.727 34V31.075C169.567 31.075 170.167 30.91 170.527 30.58C170.887 30.25 171.112 29.785 171.202 29.185C171.322 28.555 171.382 27.85 171.382 27.07V19.51C171.382 18.97 171.397 18.37 171.427 17.71C171.457 17.02 171.502 16.345 171.562 15.685C171.082 15.715 170.512 15.745 169.852 15.775C169.222 15.775 168.742 15.79 168.412 15.82V12.4C169.792 12.4 170.962 12.325 171.922 12.175C172.882 12.025 173.632 11.845 174.172 11.635C174.742 11.425 175.132 11.23 175.342 11.05H177.547C177.607 11.44 177.637 11.725 177.637 11.905C177.637 12.085 177.637 12.265 177.637 12.445C177.667 12.595 177.727 12.88 177.817 13.3C178.417 12.82 179.107 12.4 179.887 12.04C180.667 11.65 181.447 11.35 182.227 11.14C183.007 10.9 183.697 10.78 184.297 10.78C187.057 10.78 189.007 11.575 190.147 13.165C191.317 14.725 191.902 17.245 191.902 20.725V26.755C191.902 27.175 191.887 27.775 191.857 28.555C191.827 29.305 191.782 30.025 191.722 30.715C192.232 30.655 192.772 30.625 193.342 30.625C193.912 30.595 194.347 30.58 194.647 30.58V34H182.857V31.075C183.697 31.075 184.297 30.91 184.657 30.58C185.047 30.25 185.287 29.785 185.377 29.185C185.497 28.555 185.557 27.85 185.557 27.07L185.512 20.68C185.512 18.73 185.227 17.29 184.657 16.36C184.117 15.4 183.187 14.92 181.867 14.92C181.117 14.92 180.367 15.085 179.617 15.415C178.897 15.745 178.282 16.135 177.772 16.585C177.772 17.005 177.772 17.44 177.772 17.89C177.772 18.31 177.772 18.73 177.772 19.15V26.755C177.772 27.175 177.757 27.775 177.727 28.555C177.697 29.305 177.652 30.025 177.592 30.715C178.072 30.655 178.597 30.625 179.167 30.625C179.767 30.595 180.217 30.58 180.517 30.58V34H168.727ZM206.069 34.72C205.169 34.72 204.299 34.615 203.459 34.405C202.619 34.195 201.869 33.805 201.209 33.235C200.549 32.635 200.024 31.765 199.634 30.625C199.244 29.485 199.049 27.97 199.049 26.08L199.139 15.235H196.079V11.5C197.009 11.47 197.909 11.155 198.779 10.555C199.649 9.955 200.384 9.175 200.984 8.215C201.614 7.255 202.034 6.25 202.244 5.2H205.574L205.529 11.5H211.244V14.965L205.529 15.1L205.484 26.17C205.484 26.86 205.544 27.55 205.664 28.24C205.814 28.9 206.084 29.455 206.474 29.905C206.864 30.325 207.434 30.535 208.184 30.535C208.604 30.535 209.174 30.385 209.894 30.085C210.644 29.785 211.439 29.035 212.279 27.835L214.439 29.86C213.629 31.06 212.789 31.99 211.919 32.65C211.049 33.31 210.209 33.79 209.399 34.09C208.619 34.39 207.929 34.57 207.329 34.63C206.729 34.69 206.309 34.72 206.069 34.72ZM215.748 31.075C216.588 31.075 217.188 30.91 217.548 30.58C217.908 30.25 218.133 29.785 218.223 29.185C218.343 28.555 218.403 27.85 218.403 27.07V19.6C218.403 19.06 218.418 18.445 218.448 17.755C218.478 17.035 218.523 16.345 218.583 15.685C218.103 15.715 217.533 15.745 216.873 15.775C216.243 15.775 215.763 15.79 215.433 15.82V12.4C216.813 12.4 217.983 12.325 218.943 12.175C219.903 12.025 220.653 11.845 221.193 11.635C221.763 11.425 222.153 11.23 222.363 11.05H224.793V26.755C224.793 27.175 224.778 27.775 224.748 28.555C224.718 29.305 224.673 30.025 224.613 30.715C225.093 30.655 225.618 30.625 226.188 30.625C226.788 30.595 227.238 30.58 227.538 30.58V34H215.748V31.075ZM221.373 7.495C220.353 7.495 219.513 7.135 218.853 6.415C218.193 5.695 217.863 4.825 217.863 3.805C217.863 2.785 218.208 1.915 218.898 1.195C219.588 0.474999 220.398 0.114999 221.328 0.114999C222.288 0.114999 223.083 0.474999 223.713 1.195C224.373 1.915 224.703 2.785 224.703 3.805C224.703 4.825 224.403 5.695 223.803 6.415C223.203 7.135 222.393 7.495 221.373 7.495ZM230.47 34V31.075C231.31 31.075 231.91 30.91 232.27 30.58C232.63 30.25 232.855 29.785 232.945 29.185C233.065 28.555 233.125 27.85 233.125 27.07V19.51C233.125 18.97 233.14 18.37 233.17 17.71C233.2 17.02 233.245 16.345 233.305 15.685C232.825 15.715 232.255 15.745 231.595 15.775C230.965 15.775 230.485 15.79 230.155 15.82V12.4C231.535 12.4 232.705 12.325 233.665 12.175C234.625 12.025 235.375 11.845 235.915 11.635C236.485 11.425 236.875 11.23 237.085 11.05H239.29C239.35 11.44 239.38 11.725 239.38 11.905C239.38 12.085 239.38 12.265 239.38 12.445C239.41 12.595 239.47 12.88 239.56 13.3C240.16 12.82 240.85 12.4 241.63 12.04C242.41 11.65 243.19 11.35 243.97 11.14C244.75 10.9 245.44 10.78 246.04 10.78C248.8 10.78 250.75 11.575 251.89 13.165C253.06 14.725 253.645 17.245 253.645 20.725V26.755C253.645 27.175 253.63 27.775 253.6 28.555C253.57 29.305 253.525 30.025 253.465 30.715C253.975 30.655 254.515 30.625 255.085 30.625C255.655 30.595 256.09 30.58 256.39 30.58V34H244.6V31.075C245.44 31.075 246.04 30.91 246.4 30.58C246.79 30.25 247.03 29.785 247.12 29.185C247.24 28.555 247.3 27.85 247.3 27.07L247.255 20.68C247.255 18.73 246.97 17.29 246.4 16.36C245.86 15.4 244.93 14.92 243.61 14.92C242.86 14.92 242.11 15.085 241.36 15.415C240.64 15.745 240.025 16.135 239.515 16.585C239.515 17.005 239.515 17.44 239.515 17.89C239.515 18.31 239.515 18.73 239.515 19.15V26.755C239.515 27.175 239.5 27.775 239.47 28.555C239.44 29.305 239.395 30.025 239.335 30.715C239.815 30.655 240.34 30.625 240.91 30.625C241.51 30.595 241.96 30.58 242.26 30.58V34H230.47ZM269.831 34.72C267.641 34.72 265.706 34.24 264.026 33.28C262.346 32.29 261.041 30.91 260.111 29.14C259.181 27.34 258.716 25.225 258.716 22.795C258.716 20.695 259.181 18.73 260.111 16.9C261.041 15.07 262.346 13.6 264.026 12.49C265.736 11.35 267.716 10.78 269.966 10.78C271.226 10.78 272.456 10.96 273.656 11.32C274.856 11.65 275.936 12.235 276.896 13.075C277.886 13.915 278.666 15.055 279.236 16.495C279.836 17.935 280.121 19.735 280.091 21.895L265.331 22.165C265.331 23.785 265.526 25.24 265.916 26.53C266.336 27.82 267.011 28.84 267.941 29.59C268.871 30.34 270.116 30.715 271.676 30.715C272.276 30.715 272.951 30.61 273.701 30.4C274.481 30.19 275.261 29.845 276.041 29.365C276.851 28.855 277.601 28.18 278.291 27.34L280.316 29.23C279.236 30.76 278.081 31.93 276.851 32.74C275.621 33.52 274.391 34.045 273.161 34.315C271.961 34.585 270.851 34.72 269.831 34.72ZM265.601 19.015H273.881C273.851 17.755 273.671 16.765 273.341 16.045C273.041 15.295 272.621 14.755 272.081 14.425C271.541 14.095 270.911 13.93 270.191 13.93C268.871 13.93 267.836 14.41 267.086 15.37C266.336 16.3 265.841 17.515 265.601 19.015Z" fill="#FF4F4A"/>
</svg>
