<svg width="37" height="20" viewBox="0 0 37 20" fill="none" xmlns="http://www.w3.org/2000/svg">
<path d="M15.309 6.202C15.309 5.23 15.174 4.429 14.904 3.799C14.634 3.151 14.247 2.674 13.743 2.368C13.257 2.044 12.672 1.891 11.988 1.909H10.692V14.572C10.692 15.058 10.683 15.526 10.665 15.976C10.647 16.426 10.62 16.768 10.584 17.002C10.89 16.966 11.277 16.948 11.745 16.948C12.231 16.93 12.564 16.921 12.744 16.921V19H4.86V17.218C5.274 17.2 5.616 17.146 5.886 17.056C6.174 16.966 6.39 16.759 6.534 16.435C6.696 16.111 6.777 15.589 6.777 14.869V1.936H5.535C4.509 1.954 3.699 2.305 3.105 2.989C2.511 3.673 2.214 4.744 2.214 6.202H0.432L0.567 0.0999987H16.929L17.091 6.202H15.309ZM23.9115 19.432C22.6155 19.432 21.4455 19.153 20.4015 18.595C19.3575 18.037 18.5295 17.245 17.9175 16.219C17.3235 15.175 17.0265 13.951 17.0265 12.547C17.0265 11.053 17.3325 9.748 17.9445 8.632C18.5745 7.498 19.4025 6.625 20.4285 6.013C21.4725 5.383 22.6065 5.068 23.8305 5.068C25.1265 5.068 26.2875 5.347 27.3135 5.905C28.3395 6.463 29.1495 7.264 29.7435 8.308C30.3375 9.334 30.6345 10.567 30.6345 12.007C30.6345 13.519 30.3465 14.833 29.7705 15.949C29.1945 17.065 28.4025 17.929 27.3945 18.541C26.3865 19.135 25.2255 19.432 23.9115 19.432ZM24.0195 17.515C24.7395 17.497 25.2795 17.245 25.6395 16.759C26.0175 16.273 26.2785 15.661 26.4225 14.923C26.5665 14.185 26.6385 13.438 26.6385 12.682C26.6385 12.016 26.5845 11.341 26.4765 10.657C26.3865 9.973 26.2335 9.352 26.0175 8.794C25.8015 8.236 25.5045 7.786 25.1265 7.444C24.7665 7.102 24.3165 6.94 23.7765 6.958C23.0745 6.976 22.5165 7.228 22.1025 7.714C21.7065 8.2 21.4185 8.812 21.2385 9.55C21.0765 10.27 20.9955 11.026 20.9955 11.818C20.9955 12.736 21.0945 13.636 21.2925 14.518C21.4905 15.4 21.8055 16.129 22.2375 16.705C22.6875 17.263 23.2815 17.533 24.0195 17.515ZM34.6414 19.432C34.0654 19.432 33.5884 19.225 33.2104 18.811C32.8504 18.397 32.6704 17.902 32.6704 17.326C32.6704 16.75 32.8684 16.255 33.2644 15.841C33.6604 15.427 34.1194 15.22 34.6414 15.22C35.1994 15.22 35.6584 15.427 36.0184 15.841C36.3964 16.255 36.5854 16.75 36.5854 17.326C36.5854 17.902 36.4054 18.397 36.0454 18.811C35.7034 19.225 35.2354 19.432 34.6414 19.432Z" fill="#FF4F4A"/>
</svg>
